<?xml version="1.0" encoding="UTF-8"?>
<svg xmlns="http://www.w3.org/2000/svg" xmlns:xlink="http://www.w3.org/1999/xlink" version="1.2" >
<font id="Avenir Next LT Pro Bold Condensed">
<font-face  font-family="Avenir Next LT Pro" units-per-em="1000" ascent="756" descent="-244" font-style="normal" font-weight="700" font-stretch="normal" cap-height="708" x-height="523" underline-position="-75" underline-thickness="50" />
<missing-glyph  horiz-adv-x="512" d="M222 117 L222 184 L278 184 L278 117 L222 117 Z M225 234 L223 251 C223 288 227 315 236 332 C245 349 260 369 282 391 C325 432 332 449 332 474 C332 522 297 559 256 559 C215 559 182 532 174 464 L124 472 C133 567 187 609 259 609 C330 609 383 557 383 478 C383 435 371 405 320 358 C295 336 281 319 277 306 C273 293 271 269 271 234 L225 234 Z M462 50 L462 667 L50 667 L50 50 L462 50 Z M512 718 L512 0 L0 0 L0 718 L512 718 Z " />
<glyph glyph-name="NULL" horiz-adv-x="200" d="" />
<glyph glyph-name="&amp;#x0;" d="" />
<glyph glyph-name="&amp;#xd;" unicode="&#xd;" d="" />
<glyph glyph-name="space" unicode="&#x20;" horiz-adv-x="200" d="" />
<glyph glyph-name="exclam" unicode="&#x21;" horiz-adv-x="328" d="M242 241 L242 708 L87 708 L87 241 L242 241 Z M249 81 C249 130 214 172 164 172 C115 172 80 130 80 81 C80 31 115 -9 164 -9 C214 -9 249 31 249 81 L249 81 Z " />
<glyph glyph-name="quotedbl" unicode="&#x22;" horiz-adv-x="393" d="M323 440 L323 708 L221 708 L221 440 L323 440 Z M172 440 L172 708 L69 708 L69 440 L172 440 Z " />
<glyph glyph-name="numbersign" unicode="&#x23;" horiz-adv-x="429" d="M398 407 L398 506 L338 506 L358 708 L275 708 L255 506 L205 506 L224 708 L140 708 L121 506 L50 506 L50 407 L112 407 L101 302 L30 302 L30 203 L91 203 L71 0 L155 0 L175 203 L225 203 L205 0 L288 0 L308 203 L369 203 L369 302 L318 302 L327 407 L398 407 Z M245 407 L235 302 L185 302 L194 407 L245 407 Z " />
<glyph glyph-name="dollar" unicode="&#x24;" horiz-adv-x="525" d="M230 705 C148 687 73 621 73 497 C73 385 134 339 207 302 C265 274 297 252 297 208 C297 165 268 139 231 139 C192 139 151 159 122 190 L44 75 C82 36 148 2 224 -1 L224 -82 L286 -82 L286 4 C375 23 446 95 446 218 C446 336 365 385 303 415 C248 443 220 461 220 503 C220 553 252 573 286 573 C319 573 351 557 374 531 L453 643 C416 683 360 708 292 711 L292 786 L230 786 L230 705 Z " />
<glyph glyph-name="percent" unicode="&#x25;" horiz-adv-x="694" d="M673 172 C673 281 619 360 529 360 C440 360 386 281 386 172 C386 64 440 -15 529 -15 C619 -15 673 64 673 172 L673 172 Z M576 173 C576 119 562 76 529 76 C498 76 483 119 483 173 C483 227 498 270 529 270 C562 270 576 227 576 173 L576 173 Z M310 531 C310 640 256 720 166 720 C77 720 23 640 23 531 C23 423 77 344 166 344 C256 344 310 423 310 531 L310 531 Z M214 532 C214 479 199 435 166 435 C135 435 120 479 120 532 C120 587 135 629 166 629 C199 629 214 587 214 532 L214 532 Z M538 709 L464 738 L161 6 L236 -21 L538 709 Z " />
<glyph glyph-name="ampersand" unicode="&#x26;" horiz-adv-x="607" d="M602 0 L476 175 L590 388 L439 388 L390 283 L331 365 C399 407 460 463 460 553 C460 665 387 728 285 728 C178 728 96 658 96 542 C96 485 115 437 147 394 C79 358 30 293 30 198 C30 61 108 -15 231 -15 C304 -15 356 18 383 59 L424 0 L602 0 Z M330 544 C330 501 302 470 271 450 C249 477 237 508 237 542 C237 579 255 612 286 612 C315 612 330 582 330 544 L330 544 Z M307 164 C298 143 278 117 244 117 C201 117 174 153 174 208 C174 253 198 285 216 295 L307 164 Z " />
<glyph glyph-name="quotesingle" unicode="&#x27;" horiz-adv-x="240" d="M171 440 L171 708 L69 708 L69 440 L171 440 Z " />
<glyph glyph-name="parenleft" unicode="&#x28;" horiz-adv-x="282" d="M241 -131 C173 -12 135 140 135 288 C135 436 173 588 241 707 L144 751 C66 621 24 449 24 288 C24 127 66 -45 144 -175 L241 -131 Z " />
<glyph glyph-name="parenright" unicode="&#x29;" horiz-adv-x="282" d="M258 288 C258 449 216 621 138 751 L41 707 C109 588 147 436 147 288 C147 140 109 -12 41 -131 L138 -175 C216 -45 258 127 258 288 L258 288 Z " />
<glyph glyph-name="asterisk" unicode="&#x2a;" horiz-adv-x="474" d="M448 519 L415 620 L294 581 L294 708 L184 708 L184 581 L64 623 L28 523 L151 482 L73 379 L162 315 L237 419 L314 311 L403 376 L327 481 L448 519 Z " />
<glyph glyph-name="plus" unicode="&#x2b;" horiz-adv-x="666" d="M611 240 L611 366 L398 366 L398 575 L268 575 L268 366 L56 366 L56 240 L269 240 L269 31 L399 31 L399 240 L611 240 Z " />
<glyph glyph-name="comma" unicode="&#x2c;" horiz-adv-x="270" d="M224 167 L87 167 L27 -118 L143 -118 L224 167 Z " />
<glyph glyph-name="hyphen" unicode="&#x2d;" horiz-adv-x="248" d="M220 217 L220 336 L28 336 L28 217 L220 217 Z " />
<glyph glyph-name="period" unicode="&#x2e;" horiz-adv-x="270" d="M220 81 C220 130 184 172 135 172 C85 172 50 130 50 81 C50 31 85 -9 135 -9 C184 -9 220 31 220 81 L220 81 Z " />
<glyph glyph-name="slash" unicode="&#x2f;" horiz-adv-x="292" d="M283 739 L200 758 L5 -20 L89 -38 L283 739 Z " />
<glyph glyph-name="zero" unicode="0" horiz-adv-x="525" d="M495 354 C495 514 454 723 262 723 C70 723 30 514 30 354 C30 194 70 -15 262 -15 C454 -15 495 194 495 354 L495 354 Z M335 354 C335 259 325 126 262 126 C199 126 189 259 189 354 C189 447 199 582 262 582 C325 582 335 447 335 354 L335 354 Z " />
<glyph glyph-name="one" unicode="1" horiz-adv-x="525" d="M380 0 L380 708 L240 708 L46 566 L117 442 L223 522 L223 0 L380 0 Z " />
<glyph glyph-name="two" unicode="2" horiz-adv-x="525" d="M475 513 C475 641 393 723 263 723 C142 723 53 652 37 508 L187 494 C192 554 219 586 258 586 C299 586 318 552 318 511 C318 472 296 429 262 389 L47 142 L47 0 L466 0 L466 138 L237 138 L369 291 C422 353 475 421 475 513 L475 513 Z " />
<glyph glyph-name="three" unicode="3" horiz-adv-x="525" d="M480 207 C480 284 437 348 369 367 L369 370 C427 389 466 449 466 531 C466 659 364 723 261 723 C167 723 77 675 44 553 L181 519 C191 557 212 586 250 586 C296 586 315 547 315 511 C315 455 285 422 232 422 L192 422 L192 304 L228 304 C286 304 325 275 325 214 C325 168 301 122 250 122 C204 122 177 155 167 201 L26 165 C53 44 141 -15 257 -15 C382 -15 480 64 480 207 L480 207 Z " />
<glyph glyph-name="four" unicode="4" horiz-adv-x="525" d="M496 142 L496 274 L424 274 L424 708 L230 708 L23 278 L23 142 L282 142 L282 0 L424 0 L424 142 L496 142 Z M285 274 L162 274 L283 552 L285 552 L285 274 Z " />
<glyph glyph-name="five" unicode="5" horiz-adv-x="525" d="M476 235 C476 370 403 458 275 458 C260 458 237 454 221 447 L226 569 L451 569 L451 708 L92 708 L77 306 C115 322 177 337 218 337 C275 337 322 303 322 230 C322 170 297 124 248 124 C205 124 180 162 169 209 L32 166 C57 45 144 -15 252 -15 C376 -15 476 68 476 235 L476 235 Z " />
<glyph glyph-name="six" unicode="6" horiz-adv-x="525" d="M310 472 C298 472 280 469 273 465 L272 466 L409 708 L226 708 L91 454 C57 390 31 323 31 237 C31 76 129 -15 265 -15 C398 -15 495 78 495 240 C495 371 435 472 310 472 L310 472 Z M341 242 C341 175 310 125 263 125 C218 125 185 174 185 242 C185 309 219 359 264 359 C312 359 341 311 341 242 L341 242 Z " />
<glyph glyph-name="seven" unicode="7" horiz-adv-x="525" d="M464 588 L464 708 L47 708 L47 567 L290 567 L81 0 L255 0 L464 588 Z " />
<glyph glyph-name="eight" unicode="8" horiz-adv-x="525" d="M496 199 C496 295 443 350 386 372 L386 374 C447 399 482 454 482 529 C482 628 408 723 263 723 C119 723 48 628 48 529 C48 453 83 399 145 374 L145 372 C89 352 34 295 34 199 C34 77 122 -15 263 -15 C406 -15 496 77 496 199 L496 199 Z M329 518 C329 470 304 426 263 426 C223 426 198 470 198 518 C198 570 221 608 263 608 C306 608 329 570 329 518 L329 518 Z M335 208 C335 150 309 107 263 107 C218 107 191 150 191 208 C191 268 221 310 263 310 C306 310 335 268 335 208 L335 208 Z " />
<glyph glyph-name="nine" unicode="9" horiz-adv-x="525" d="M217 245 C229 245 247 248 254 252 L255 251 L116 0 L299 0 L434 257 C468 321 494 388 494 474 C494 635 394 723 263 723 C133 723 30 636 30 474 C30 346 92 245 217 245 L217 245 Z M184 472 C184 539 215 586 262 586 C307 586 340 540 340 472 C340 405 306 357 261 357 C213 357 184 403 184 472 L184 472 Z " />
<glyph glyph-name="colon" unicode="&#x3a;" horiz-adv-x="300" d="M233 436 C233 483 198 523 150 523 C102 523 68 483 68 436 C68 385 102 348 150 348 C198 348 233 385 233 436 L233 436 Z M233 85 C233 132 198 173 150 173 C102 173 68 132 68 85 C68 35 102 -3 150 -3 C198 -3 233 35 233 85 L233 85 Z " />
<glyph glyph-name="semicolon" unicode="&#x3b;" horiz-adv-x="300" d="M233 436 C233 483 198 523 150 523 C102 523 68 483 68 436 C68 385 102 348 150 348 C198 348 233 385 233 436 L233 436 Z M230 167 L94 167 L35 -118 L149 -118 L230 167 Z " />
<glyph glyph-name="less" unicode="&#x3c;" horiz-adv-x="666" d="M587 37 L587 174 L281 301 L587 432 L587 568 L79 354 L79 251 L587 37 Z " />
<glyph glyph-name="equal" unicode="&#x3d;" horiz-adv-x="666" d="M598 335 L598 458 L68 458 L68 335 L598 335 Z M598 150 L598 273 L68 273 L68 150 L598 150 Z " />
<glyph glyph-name="greater" unicode="&#x3e;" horiz-adv-x="666" d="M587 251 L587 354 L79 568 L79 432 L385 301 L79 174 L79 37 L587 251 Z " />
<glyph glyph-name="question" unicode="&#x3f;" horiz-adv-x="428" d="M280 266 C280 298 289 321 323 352 C378 401 416 446 416 531 C416 656 340 727 223 727 C93 727 31 635 17 532 L148 509 C152 541 169 589 214 589 C252 589 269 562 269 520 C269 492 253 471 234 451 L217 433 C173 392 148 350 148 280 L148 238 L280 238 L280 266 Z M306 81 C306 130 271 172 221 172 C171 172 136 130 136 81 C136 31 171 -9 221 -9 C271 -9 306 31 306 81 L306 81 Z " />
<glyph glyph-name="at" unicode="&#x40;" horiz-adv-x="640" d="M606 403 C606 612 500 726 329 726 C148 726 33 565 33 353 C33 137 141 -18 331 -18 C421 -18 497 10 558 70 L514 137 C469 90 405 62 339 62 C201 62 118 183 118 354 C118 516 201 649 329 649 C453 649 530 556 530 401 C530 305 499 255 467 255 C446 255 442 274 442 294 C442 313 448 354 455 400 L478 534 L396 534 L389 500 L387 500 C381 531 357 560 315 560 C224 560 173 443 173 329 C173 235 213 160 283 160 C330 160 360 193 374 232 L376 232 C378 182 408 160 450 160 C546 160 606 264 606 403 L606 403 Z M368 392 C368 340 349 255 309 255 C279 255 267 286 267 329 C267 396 290 468 328 468 C359 468 368 434 368 392 L368 392 Z " />
<glyph glyph-name="A" unicode="A" horiz-adv-x="543" d="M544 0 L373 708 L172 708 L0 0 L160 0 L189 129 L348 129 L377 0 L544 0 Z M328 253 L207 253 L267 554 L271 554 L328 253 Z " />
<glyph glyph-name="B" unicode="B" horiz-adv-x="544" d="M508 202 C508 301 450 355 396 369 L396 371 C445 394 484 443 484 526 C484 679 363 708 275 708 L63 708 L63 0 L298 0 C399 0 508 51 508 202 L508 202 Z M343 500 C343 444 306 422 267 422 L212 422 L212 575 L266 575 C307 575 343 555 343 500 L343 500 Z M356 217 C356 161 319 133 272 133 L212 133 L212 305 L270 305 C311 305 356 280 356 217 L356 217 Z " />
<glyph glyph-name="C" unicode="C" horiz-adv-x="512" d="M505 77 L416 188 C397 159 365 134 322 134 C237 134 193 232 193 354 C193 478 237 574 321 574 C366 574 394 554 418 522 L504 638 C466 689 403 727 309 727 C145 727 34 576 34 354 C34 135 144 -19 309 -19 C407 -19 466 23 505 77 L505 77 Z " />
<glyph glyph-name="D" unicode="D" horiz-adv-x="590" d="M556 352 C556 570 465 708 262 708 L63 708 L63 0 L262 0 C464 0 556 138 556 352 L556 352 Z M395 352 C395 215 341 140 264 140 L225 140 L225 568 L264 568 C341 568 395 494 395 352 L395 352 Z " />
<glyph glyph-name="E" unicode="E" horiz-adv-x="448" d="M417 0 L417 143 L216 143 L216 296 L390 296 L390 428 L216 428 L216 567 L405 567 L405 708 L63 708 L63 0 L417 0 Z " />
<glyph glyph-name="F" unicode="F" horiz-adv-x="432" d="M408 563 L408 708 L63 708 L63 0 L225 0 L225 282 L393 282 L393 419 L224 419 L224 563 L408 563 Z " />
<glyph glyph-name="G" unicode="G" horiz-adv-x="560" d="M513 42 L513 419 L297 419 L297 280 L373 280 L373 148 C360 138 340 133 317 133 C229 133 192 235 192 354 C192 473 232 575 320 574 C362 574 394 557 418 524 L505 641 C468 690 403 727 308 727 C143 727 34 575 34 354 C34 134 140 -16 318 -16 C404 -16 468 7 513 42 L513 42 Z " />
<glyph glyph-name="H" unicode="H" horiz-adv-x="609" d="M546 0 L546 708 L387 708 L387 439 L222 439 L222 708 L63 708 L63 0 L222 0 L222 296 L387 296 L387 0 L546 0 Z " />
<glyph glyph-name="I" unicode="I" horiz-adv-x="287" d="M224 0 L224 708 L63 708 L63 0 L224 0 Z " />
<glyph glyph-name="J" unicode="J" horiz-adv-x="445" d="M385 223 L385 708 L226 708 L226 237 C226 173 216 135 172 135 C142 135 124 163 116 195 L-14 137 C7 46 82 -16 180 -16 C322 -16 385 75 385 223 L385 223 Z " />
<glyph glyph-name="K" unicode="K" horiz-adv-x="568" d="M563 0 L370 384 L552 708 L373 708 L227 413 L224 413 L224 708 L63 708 L63 0 L224 0 L224 329 L227 329 L378 0 L563 0 Z " />
<glyph glyph-name="L" unicode="L" horiz-adv-x="423" d="M414 0 L414 148 L225 148 L225 708 L63 708 L63 0 L414 0 Z " />
<glyph glyph-name="M" unicode="M" horiz-adv-x="771" d="M708 0 L708 708 L494 708 L383 252 L379 252 L265 708 L63 708 L63 0 L208 0 L203 486 L206 486 L321 0 L434 0 L553 486 L557 486 L551 0 L708 0 Z " />
<glyph glyph-name="N" unicode="N" horiz-adv-x="603" d="M540 0 L540 708 L402 708 L405 271 L402 271 L239 708 L63 708 L63 0 L206 0 L202 431 L205 431 L369 0 L540 0 Z " />
<glyph glyph-name="O" unicode="O" horiz-adv-x="612" d="M578 356 C578 580 474 727 306 727 C136 727 34 580 34 356 C34 131 138 -19 306 -19 C474 -19 578 131 578 356 L578 356 Z M414 356 C414 233 378 138 306 138 C233 138 198 233 198 356 C198 479 233 572 306 572 C378 572 414 479 414 356 L414 356 Z " />
<glyph glyph-name="P" unicode="P" horiz-adv-x="522" d="M500 486 C500 655 384 708 283 708 L63 708 L63 0 L220 0 L220 258 L289 258 C394 258 500 328 500 486 L500 486 Z M350 483 C350 422 315 388 271 388 L220 388 L220 573 L271 573 C315 573 350 546 350 483 L350 483 Z " />
<glyph glyph-name="Q" unicode="Q" horiz-adv-x="620" d="M612 0 L612 138 L499 134 L499 138 C540 169 576 269 576 365 C576 580 473 727 306 727 C140 727 34 581 34 358 C34 133 133 0 301 0 L612 0 Z M415 358 C415 241 380 145 307 145 C235 145 198 237 198 358 C198 480 235 570 307 570 C377 570 415 479 415 358 L415 358 Z " />
<glyph glyph-name="R" unicode="R" horiz-adv-x="541" d="M528 0 L407 316 C453 332 507 390 507 495 C507 636 427 708 290 708 L63 708 L63 0 L217 0 L217 282 L264 282 L359 0 L528 0 Z M349 486 C349 422 309 395 264 395 L217 395 L217 574 L267 574 C304 574 349 558 349 486 L349 486 Z " />
<glyph glyph-name="S" unicode="S" horiz-adv-x="461" d="M439 656 C398 700 335 727 258 727 C155 727 40 660 40 503 C40 385 104 337 181 299 C242 269 275 246 275 200 C275 155 245 128 206 128 C165 128 122 149 92 181 L10 61 C52 18 126 -19 211 -19 C327 -19 431 58 431 211 C431 334 346 385 281 417 C224 446 194 465 194 509 C194 561 228 582 264 582 C298 582 332 566 356 538 L439 656 Z " />
<glyph glyph-name="T" unicode="T" horiz-adv-x="415" d="M416 572 L416 708 L-1 708 L-1 572 L129 572 L129 0 L286 0 L286 572 L416 572 Z " />
<glyph glyph-name="U" unicode="U" horiz-adv-x="581" d="M530 262 L530 708 L370 708 L370 276 C370 196 354 135 291 135 C228 135 212 196 212 276 L212 708 L51 708 L51 262 C51 105 115 -19 288 -19 C461 -19 530 106 530 262 L530 262 Z " />
<glyph glyph-name="V" unicode="V" horiz-adv-x="546" d="M547 708 L373 708 L278 190 L276 190 L180 708 L-1 708 L170 0 L373 0 L547 708 Z " />
<glyph glyph-name="W" unicode="W" horiz-adv-x="799" d="M791 708 L636 708 L564 215 L561 215 L481 708 L326 708 L249 215 L245 215 L172 708 L9 708 L142 0 L312 0 L398 475 L400 475 L487 0 L657 0 L791 708 Z " />
<glyph glyph-name="X" unicode="X" horiz-adv-x="540" d="M538 0 L362 372 L523 708 L359 708 L271 493 L184 708 L17 708 L177 371 L3 0 L170 0 L267 234 L365 0 L538 0 Z " />
<glyph glyph-name="Y" unicode="Y" horiz-adv-x="492" d="M504 708 L334 708 L248 415 L246 415 L161 708 L-12 708 L167 255 L167 0 L324 0 L324 255 L504 708 Z " />
<glyph glyph-name="Z" unicode="Z" horiz-adv-x="458" d="M424 0 L424 145 L208 145 L424 581 L424 708 L42 708 L42 567 L241 567 L24 130 L24 0 L424 0 Z " />
<glyph glyph-name="bracketleft" unicode="&#x5b;" horiz-adv-x="282" d="M232 -156 L232 -57 L154 -57 L154 633 L232 633 L232 732 L36 732 L36 -156 L232 -156 Z " />
<glyph glyph-name="backslash" unicode="&#x5c;" horiz-adv-x="292" d="M5 739 L199 -38 L283 -20 L88 758 L5 739 Z " />
<glyph glyph-name="bracketright" unicode="&#x5d;" horiz-adv-x="282" d="M245 -156 L245 732 L50 732 L50 633 L128 633 L128 -57 L50 -57 L50 -156 L245 -156 Z " />
<glyph glyph-name="asciicircum" unicode="&#x5e;" horiz-adv-x="690" d="M616 343 L404 708 L286 708 L73 343 L221 343 L344 556 L468 343 L616 343 Z " />
<glyph glyph-name="underscore" unicode="&#x5f;" horiz-adv-x="500" d="M500 -164 L500 -75 L0 -75 L0 -164 L500 -164 Z " />
<glyph glyph-name="grave" unicode="&#x60;" horiz-adv-x="274" d="M0 723 L112 579 L220 579 L130 723 L0 723 Z " />
<glyph glyph-name="a" unicode="a" horiz-adv-x="465" d="M274 199 C274 150 254 97 205 97 C180 97 159 116 159 157 C159 213 200 228 246 228 L274 228 L274 199 Z M281 65 L281 0 L410 0 L410 298 C410 452 359 539 217 539 C155 539 85 510 43 459 L112 363 C134 389 167 409 205 409 C243 409 269 387 269 337 L269 329 L249 329 C139 329 26 289 26 146 C26 26 103 -13 163 -13 C225 -13 266 19 279 65 L281 65 Z " />
<glyph glyph-name="b" unicode="b" horiz-adv-x="528" d="M62 0 L213 0 L213 63 L215 63 C231 20 262 -16 325 -16 C435 -16 498 111 498 269 C498 423 438 539 325 539 C274 539 233 508 221 470 L218 470 L218 756 L62 756 L62 0 Z M210 262 C210 341 232 404 277 404 C325 404 344 341 344 262 C344 184 325 120 277 120 C232 120 210 184 210 262 L210 262 Z " />
<glyph glyph-name="c" unicode="c" horiz-adv-x="361" d="M365 40 L302 161 C291 143 274 130 252 130 C208 130 181 179 181 262 C181 346 210 395 249 395 C270 395 288 383 300 365 L363 487 C339 514 295 539 237 539 C105 539 30 424 30 262 C30 99 103 -16 235 -16 C292 -16 337 6 365 40 L365 40 Z " />
<glyph glyph-name="d" unicode="d" horiz-adv-x="528" d="M466 0 L466 756 L311 756 L311 470 L308 470 C296 508 255 539 203 539 C90 539 30 423 30 269 C30 111 93 -16 203 -16 C266 -16 298 20 313 63 L315 63 L315 0 L466 0 Z M318 262 C318 184 296 120 251 120 C204 120 184 184 184 262 C184 341 204 404 251 404 C296 404 318 341 318 262 L318 262 Z " />
<glyph glyph-name="e" unicode="e" horiz-adv-x="473" d="M444 222 L444 266 C444 425 387 542 243 542 C118 542 30 432 30 260 C30 79 124 -19 247 -19 C339 -19 400 30 435 107 L320 172 C308 142 288 115 253 115 C210 115 183 164 182 222 L444 222 Z M300 324 L181 324 C182 365 202 422 244 422 C284 422 300 380 300 324 L300 324 Z " />
<glyph glyph-name="f" unicode="f" horiz-adv-x="299" d="M316 773 C297 778 268 781 250 781 C112 781 68 681 68 567 L68 523 L6 523 L6 401 L68 401 L68 0 L221 0 L221 401 L300 401 L300 523 L220 523 L220 566 C220 611 232 651 276 651 C288 651 299 649 308 646 L316 773 Z " />
<glyph glyph-name="g" unicode="g" horiz-adv-x="527" d="M315 523 L315 461 L312 461 C296 506 263 539 204 539 C93 539 30 422 30 263 C30 110 90 -7 204 -7 C255 -7 297 25 311 60 L313 60 L313 17 C313 -51 286 -102 221 -102 C179 -102 141 -83 111 -56 L38 -172 C83 -211 158 -240 231 -240 C393 -240 465 -141 465 37 L465 523 L315 523 Z M318 262 C318 184 296 120 251 120 C204 120 184 184 184 262 C184 341 204 404 251 404 C297 404 318 341 318 262 L318 262 Z " />
<glyph glyph-name="h" unicode="h" horiz-adv-x="538" d="M217 308 C217 365 240 404 278 404 C317 404 326 365 326 321 L326 0 L483 0 L483 320 C483 435 463 542 343 542 C279 542 236 499 220 453 L217 453 L217 756 L60 756 L60 0 L217 0 L217 308 Z " />
<glyph glyph-name="i" unicode="i" horiz-adv-x="276" d="M217 0 L217 523 L59 523 L59 0 L217 0 Z M224 665 C224 715 189 757 138 757 C87 757 52 715 52 665 C52 614 87 574 138 574 C188 574 224 614 224 665 L224 665 Z " />
<glyph glyph-name="j" unicode="j" horiz-adv-x="277" d="M218 -35 L218 523 L59 523 L59 -21 C59 -70 51 -102 9 -102 C0 -102 -11 -100 -19 -97 L-27 -234 C-7 -238 19 -240 43 -240 C180 -240 218 -147 218 -35 L218 -35 Z M225 665 C225 715 190 757 139 757 C88 757 53 715 53 665 C53 614 88 574 139 574 C189 574 225 614 225 665 L225 665 Z " />
<glyph glyph-name="k" unicode="k" horiz-adv-x="500" d="M503 0 L368 283 L500 523 L316 523 L220 312 L218 312 L218 756 L62 756 L62 0 L218 0 L218 240 L220 240 L322 0 L503 0 Z " />
<glyph glyph-name="l" unicode="l" horiz-adv-x="284" d="M222 0 L222 756 L62 756 L62 0 L222 0 Z " />
<glyph glyph-name="m" unicode="m" horiz-adv-x="796" d="M62 523 L62 0 L216 0 L216 308 C216 365 238 404 276 404 C314 404 323 365 323 321 L323 0 L477 0 L477 308 C477 365 499 404 537 404 C575 404 585 365 585 321 L585 0 L740 0 L740 320 C739 435 719 542 598 542 C527 542 484 496 465 449 L463 449 C449 501 415 542 341 542 C275 542 230 499 217 449 L215 449 L215 523 L62 523 Z " />
<glyph glyph-name="n" unicode="n" horiz-adv-x="540" d="M62 523 L62 0 L219 0 L219 308 C219 365 242 404 280 404 C318 404 327 365 327 321 L327 0 L484 0 L484 320 C484 435 464 542 345 542 C280 542 234 499 217 449 L215 449 L215 523 L62 523 Z " />
<glyph glyph-name="o" unicode="o" horiz-adv-x="495" d="M465 261 C465 425 384 542 248 542 C112 542 30 425 30 261 C30 98 113 -19 248 -19 C384 -19 465 98 465 261 L465 261 Z M315 262 C315 183 295 120 248 120 C202 120 182 183 182 262 C182 341 202 404 248 404 C295 404 315 341 315 262 L315 262 Z " />
<glyph glyph-name="p" unicode="p" horiz-adv-x="528" d="M62 523 L62 -240 L216 -240 L216 56 L218 56 C231 19 266 -16 325 -16 C437 -16 498 109 498 267 C498 421 437 539 325 539 C267 539 234 506 216 461 L213 461 L213 523 L62 523 Z M210 262 C210 341 232 404 277 404 C325 404 344 341 344 262 C344 184 325 120 277 120 C232 120 210 184 210 262 L210 262 Z " />
<glyph glyph-name="q" unicode="q" horiz-adv-x="528" d="M466 523 L315 523 L315 461 L312 461 C294 506 261 539 203 539 C91 539 30 421 30 267 C30 109 92 -16 203 -16 C262 -16 297 19 310 56 L312 56 L312 -240 L466 -240 L466 523 Z M318 262 C318 184 296 120 251 120 C204 120 184 184 184 262 C184 341 204 404 251 404 C296 404 318 341 318 262 L318 262 Z " />
<glyph glyph-name="r" unicode="r" horiz-adv-x="344" d="M62 0 L220 0 L220 259 C220 324 250 384 302 384 C317 384 326 382 336 379 L346 536 C337 539 332 539 321 539 C270 539 234 503 216 435 L215 435 L215 523 L62 523 L62 0 L62 0 Z " />
<glyph glyph-name="s" unicode="s" horiz-adv-x="400" d="M383 475 C338 515 277 539 213 539 C129 539 35 484 35 366 C35 268 96 232 152 214 C205 197 232 186 232 153 C232 125 214 106 185 106 C147 106 114 127 86 156 L8 56 C54 11 123 -16 192 -16 C273 -16 373 34 373 162 C373 259 307 301 245 320 C192 336 176 345 176 371 C176 399 197 416 222 416 C255 416 283 400 307 376 L383 475 Z " />
<glyph glyph-name="t" unicode="t" horiz-adv-x="315" d="M305 4 L305 127 C297 123 283 120 270 120 C235 120 220 142 220 193 L220 401 L310 401 L310 523 L220 523 L220 649 L68 649 L68 523 L6 523 L6 401 L69 401 L69 157 C69 45 115 -13 220 -13 C252 -13 288 -5 305 4 L305 4 Z " />
<glyph glyph-name="u" unicode="u" horiz-adv-x="540" d="M478 0 L478 523 L321 523 L321 216 C321 159 298 120 260 120 C222 120 213 159 213 203 L213 523 L56 523 L56 203 C56 88 76 -19 195 -19 C260 -19 306 24 323 74 L325 74 L325 0 L478 0 Z " />
<glyph glyph-name="v" unicode="v" horiz-adv-x="470" d="M467 523 L308 523 L242 165 L238 165 L168 523 L3 523 L139 0 L330 0 L467 523 Z " />
<glyph glyph-name="w" unicode="w" horiz-adv-x="692" d="M686 523 L528 523 L477 196 L475 196 L413 523 L279 523 L219 196 L217 196 L166 523 L6 523 L122 0 L276 0 L341 300 L343 300 L409 0 L568 0 L686 523 Z " />
<glyph glyph-name="x" unicode="x" horiz-adv-x="468" d="M-2 0 L171 0 L234 166 L299 0 L470 0 L342 273 L462 523 L296 523 L234 362 L175 523 L8 523 L124 274 L-2 0 Z " />
<glyph glyph-name="y" unicode="y" horiz-adv-x="476" d="M473 523 L314 523 L245 174 L243 174 L168 523 L3 523 L159 -13 L151 -42 C143 -71 128 -96 88 -96 C76 -96 58 -93 46 -88 L25 -230 C49 -235 83 -240 113 -240 C250 -240 292 -137 325 -18 L473 523 Z " />
<glyph glyph-name="z" unicode="z" horiz-adv-x="399" d="M373 0 L373 132 L195 132 L371 399 L371 523 L37 523 L37 391 L202 391 L27 129 L27 0 L373 0 Z " />
<glyph glyph-name="braceleft" unicode="&#x7b;" horiz-adv-x="282" d="M235 -156 L235 -57 L206 -57 C172 -57 162 -24 162 15 L162 173 C162 253 124 282 100 287 L100 289 C124 294 162 323 162 403 L162 561 C162 600 172 633 206 633 L235 633 L235 732 L171 732 C84 732 51 664 51 573 L51 425 C51 358 31 343 0 343 L0 233 C31 233 51 218 51 151 L51 3 C51 -88 84 -156 171 -156 L235 -156 Z " />
<glyph glyph-name="bar" unicode="&#x7c;" horiz-adv-x="241" d="M186 -250 L186 750 L55 750 L56 -250 L186 -250 Z " />
<glyph glyph-name="braceright" unicode="&#x7d;" horiz-adv-x="282" d="M282 233 L282 343 C251 343 231 358 231 425 L231 573 C231 664 198 732 111 732 L46 732 L46 633 L76 633 C110 633 120 600 120 561 L120 403 C120 323 157 294 182 289 L182 287 C157 282 120 253 120 173 L120 15 C120 -24 110 -57 76 -57 L46 -57 L46 -156 L111 -156 C198 -156 231 -88 231 3 L231 151 C231 218 251 233 282 233 L282 233 Z " />
<glyph glyph-name="asciitilde" unicode="&#x7e;" horiz-adv-x="666" d="M593 287 L528 388 C504 352 478 317 441 317 C418 317 387 331 342 357 C302 381 265 394 222 394 C160 394 116 355 85 295 L151 191 C171 232 196 261 235 261 C272 261 302 248 342 223 C383 197 412 185 454 185 C524 185 563 234 593 285 L593 287 Z " />
<glyph glyph-name="uni00A0" unicode="&#xa0;" horiz-adv-x="200" d="" />
<glyph glyph-name="exclamdown" unicode="&#xa1;" horiz-adv-x="328" d="M242 295 L87 295 L87 -172 L242 -172 L242 295 Z M249 455 C249 505 214 545 164 545 C115 545 80 505 80 455 C80 406 115 364 164 364 C214 364 249 406 249 455 L249 455 Z " />
<glyph glyph-name="cent" unicode="&#xa2;" horiz-adv-x="525" d="M327 530 L327 583 L263 583 L263 529 C154 509 93 404 93 262 C93 190 108 127 137 80 C166 34 208 3 263 -6 L263 -63 L327 -63 L327 -7 C370 -1 405 19 428 46 L365 165 C354 147 337 134 315 134 C271 134 244 181 244 262 C244 344 273 391 312 391 C333 391 351 379 363 361 L426 481 C406 503 372 524 327 530 L327 530 Z " />
<glyph glyph-name="sterling" unicode="&#xa3;" horiz-adv-x="529" d="M284 426 L284 475 C284 529 300 581 359 581 C385 581 405 572 416 560 L489 679 C461 704 408 728 341 728 C184 728 128 596 128 489 L128 426 L55 426 L55 309 L128 309 L128 140 L52 140 L52 0 L459 0 L459 140 L284 140 L284 309 L397 309 L397 426 L284 426 Z " />
<glyph glyph-name="currency" unicode="&#xa4;" horiz-adv-x="950" d="M713 459 L803 549 C775 577 746 605 718 633 L626 541 C583 566 532 580 476 580 C420 580 369 565 326 539 C295 570 263 601 231 633 C203 605 175 577 146 549 L239 456 C214 415 200 366 200 309 C200 248 215 197 242 157 L146 61 C175 33 202 5 230 -23 C263 9 296 42 329 75 C378 46 425 34 476 34 C530 34 581 48 622 73 C654 41 687 8 719 -23 L803 61 L710 154 C739 196 755 248 755 309 C755 368 739 419 713 459 L713 459 Z M476 441 C551 441 603 380 603 309 C603 235 552 175 476 175 C401 175 350 235 350 309 C350 380 401 441 476 441 L476 441 Z " />
<glyph glyph-name="yen" unicode="&#xa5;" horiz-adv-x="529" d="M393 428 L512 708 L352 708 L264 441 L175 708 L12 708 L133 428 L52 428 L52 323 L181 323 L181 247 L52 247 L52 142 L181 142 L181 0 L338 0 L338 142 L471 142 L471 247 L338 247 L338 323 L471 323 L471 428 L393 428 Z " />
<glyph glyph-name="brokenbar" unicode="&#xa6;" horiz-adv-x="241" d="M186 313 L186 675 L55 675 L55 313 L186 313 Z M186 -175 L186 187 L55 187 L55 -175 L186 -175 Z " />
<glyph glyph-name="section" unicode="&#xa7;" horiz-adv-x="516" d="M338 270 C338 239 318 221 297 216 L245 240 C206 257 175 272 175 312 C175 344 197 362 215 368 L268 344 C306 326 338 308 338 270 L338 270 Z M212 111 C277 85 301 68 301 31 C301 -8 269 -24 236 -24 C189 -24 145 -1 115 36 L31 -65 C79 -120 158 -148 238 -148 C332 -148 443 -99 443 44 C443 91 422 132 389 155 C431 173 467 218 467 282 C467 372 419 419 335 457 L304 471 C244 498 216 508 216 545 C216 587 247 603 280 603 C316 603 349 586 368 558 L460 644 C424 694 370 727 275 727 C156 727 76 642 76 541 C76 487 93 453 126 428 C92 410 49 364 49 294 C49 204 90 159 174 126 L212 111 Z " />
<glyph glyph-name="dieresis" unicode="&#xa8;" horiz-adv-x="274" d="M119 666 C119 711 88 748 45 748 C1 748 -29 711 -29 666 C-29 620 1 584 45 584 C87 584 119 620 119 666 L119 666 Z M303 666 C303 711 272 748 229 748 C185 748 155 711 155 666 C155 620 185 584 229 584 C271 584 303 620 303 666 L303 666 Z " />
<glyph glyph-name="copyright" unicode="&#xa9;" horiz-adv-x="640" d="M387 266 C377 246 363 231 339 231 C302 231 278 285 278 357 C278 430 302 484 339 484 C362 484 378 473 389 451 L444 530 C421 566 381 589 332 589 C235 589 171 497 171 357 C171 218 235 126 335 126 C386 126 421 152 445 189 L387 266 Z M320 -20 C488 -20 604 125 604 355 C604 585 488 730 320 730 C152 730 36 585 36 355 C36 125 152 -20 320 -20 L320 -20 Z M320 686 C463 686 552 546 552 355 C552 164 463 24 320 24 C177 24 88 164 88 355 C88 546 177 686 320 686 L320 686 Z " />
<glyph glyph-name="ordfeminine" unicode="&#xaa;" horiz-adv-x="320" d="M270 396 L270 573 C270 665 239 721 154 721 C117 721 75 705 47 677 L89 613 C104 626 127 637 144 637 C166 637 181 630 181 600 L181 593 L165 593 C99 593 35 568 35 482 C35 415 79 387 120 387 C158 387 183 407 191 431 L193 431 L193 396 L270 396 Z M182 512 C182 483 172 454 146 454 C131 454 119 466 119 487 C119 520 140 529 167 529 L182 529 L182 512 Z " />
<glyph glyph-name="guillemotleft" unicode="&#xab;" horiz-adv-x="416" d="M225 73 L137 262 L225 451 L145 493 L36 262 L145 31 L225 73 Z M380 73 L292 262 L380 451 L300 493 L191 262 L300 31 L380 73 Z " />
<glyph glyph-name="logicalnot" unicode="&#xac;" horiz-adv-x="666" d="M606 145 L606 451 L51 451 L51 328 L476 328 L476 145 L606 145 Z " />
<glyph glyph-name="uni00AD" unicode="&#xad;" horiz-adv-x="248" d="M220 217 L220 336 L28 336 L28 217 L220 217 Z " />
<glyph glyph-name="registered" unicode="&#xae;" horiz-adv-x="480" d="M229 518 L229 573 L245 573 C256 573 266 564 266 550 C266 531 257 518 245 518 L229 518 Z M346 371 L302 477 C326 488 335 516 335 551 C335 618 290 637 248 637 L158 637 L158 371 L229 371 L229 464 L238 464 L271 371 L346 371 Z M240 274 C341 274 410 361 410 499 C410 637 341 724 240 724 C139 724 70 637 70 499 C70 361 139 274 240 274 L240 274 Z M240 698 C326 698 379 614 379 499 C379 384 326 300 240 300 C154 300 101 384 101 499 C101 614 154 698 240 698 L240 698 Z " />
<glyph glyph-name="macron" unicode="&#xaf;" horiz-adv-x="274" d="M284 613 L284 690 L-10 690 L-10 613 L284 613 Z " />
<glyph glyph-name="degree" unicode="&#xb0;" horiz-adv-x="320" d="M288 560 C288 648 241 729 160 729 C79 729 32 648 32 560 C32 472 79 388 160 388 C241 388 288 472 288 560 L288 560 Z M219 560 C219 500 196 456 160 456 C123 456 101 500 101 560 C101 617 123 661 160 661 C196 661 219 617 219 560 L219 560 Z " />
<glyph glyph-name="plusminus" unicode="&#xb1;" horiz-adv-x="666" d="M616 331 L616 458 L404 458 L404 590 L274 590 L274 458 L61 458 L61 331 L274 331 L274 199 L404 199 L404 331 L616 331 Z M616 31 L616 158 L61 158 L61 31 L616 31 Z " />
<glyph glyph-name="twosuperior" unicode="&#xb2;" horiz-adv-x="325" d="M306 585 C306 667 255 718 170 718 C92 718 36 673 25 581 L123 572 C126 609 144 628 167 628 C193 628 204 608 204 584 C204 560 190 539 169 514 L33 360 L33 267 L301 267 L301 356 L154 356 L238 449 C272 488 306 528 306 585 L306 585 Z " />
<glyph glyph-name="threesuperior" unicode="&#xb3;" horiz-adv-x="325" d="M306 397 C306 445 279 486 235 499 L235 500 C272 512 298 549 298 601 C298 682 234 721 167 721 C111 721 50 692 28 615 L118 592 C124 615 140 632 161 632 C189 632 201 609 201 588 C201 554 182 534 150 534 L123 534 L123 456 L147 456 C184 456 208 438 208 400 C208 371 192 346 162 346 C134 346 116 369 110 395 L17 372 C34 295 89 257 165 257 C244 257 306 306 306 397 L306 397 Z " />
<glyph glyph-name="acute" unicode="&#xb4;" horiz-adv-x="274" d="M274 723 L144 723 L54 579 L162 579 L274 723 Z " />
<glyph glyph-name="mu" unicode="&#xb5;" horiz-adv-x="666" d="M89 498 L89 -226 L251 -226 L251 13 C265 0 290 -7 314 -7 C373 -7 405 22 425 57 L426 57 L426 0 L581 0 L581 498 L419 498 L419 237 C419 177 395 126 328 126 C261 126 251 205 251 250 L251 498 L89 498 Z " />
<glyph glyph-name="paragraph" unicode="&#xb6;" horiz-adv-x="618" d="M555 -129 L555 708 L268 708 C131 708 24 662 24 518 C24 410 107 338 238 335 L238 -129 L354 -129 L354 608 L439 608 L439 -129 L555 -129 Z " />
<glyph glyph-name="periodcentered" unicode="&#xb7;" horiz-adv-x="270" d="M220 269 C220 318 184 360 135 360 C85 360 50 318 50 269 C50 219 85 179 135 179 C184 179 220 219 220 269 L220 269 Z " />
<glyph glyph-name="cedilla" unicode="&#xb8;" horiz-adv-x="274" d="M257 -139 C257 -75 207 -59 168 -59 C160 -59 153 -59 145 -61 L192 0 L108 0 L43 -91 L74 -119 C86 -114 105 -110 118 -110 C137 -110 160 -116 160 -137 C160 -162 135 -169 112 -169 C90 -169 57 -163 35 -152 L11 -214 C41 -228 87 -236 121 -236 C175 -236 257 -217 257 -139 L257 -139 Z " />
<glyph glyph-name="onesuperior" unicode="&#xb9;" horiz-adv-x="325" d="M247 265 L247 708 L149 708 L29 617 L74 536 L141 585 L141 265 L247 265 Z " />
<glyph glyph-name="ordmasculine" unicode="&#xba;" horiz-adv-x="320" d="M290 552 C290 651 242 721 160 721 C78 721 29 651 29 552 C29 455 79 384 160 384 C242 384 290 455 290 552 L290 552 Z M197 553 C197 509 186 473 160 473 C134 473 123 509 123 553 C123 597 134 633 160 633 C186 633 197 597 197 553 L197 553 Z " />
<glyph glyph-name="guillemotright" unicode="&#xbb;" horiz-adv-x="416" d="M191 73 L271 31 L380 262 L271 493 L191 451 L279 262 L191 73 Z M36 73 L116 31 L225 262 L116 493 L36 451 L124 262 L36 73 Z " />
<glyph glyph-name="onequarter" unicode="&#xbc;" horiz-adv-x="750" d="M719 88 L719 174 L675 174 L675 444 L543 444 L412 176 L412 88 L582 88 L582 0 L675 0 L675 88 L719 88 Z M584 174 L503 174 L583 348 L584 348 L584 174 Z M554 711 L475 737 L205 5 L283 -19 L554 711 Z M247 265 L247 708 L149 708 L29 617 L74 536 L141 585 L141 265 L247 265 Z " />
<glyph glyph-name="onehalf" unicode="&#xbd;" horiz-adv-x="750" d="M727 318 C727 400 676 451 591 451 C513 451 457 406 446 314 L544 305 C547 342 565 361 588 361 C614 361 625 341 625 317 C625 293 611 272 590 247 L454 93 L454 0 L722 0 L722 89 L575 89 L659 182 C693 221 727 261 727 318 L727 318 Z M554 711 L475 737 L205 5 L283 -19 L554 711 Z M247 265 L247 708 L149 708 L29 617 L74 536 L141 585 L141 265 L247 265 Z " />
<glyph glyph-name="threequarters" unicode="&#xbe;" horiz-adv-x="750" d="M719 88 L719 174 L675 174 L675 444 L543 444 L412 176 L412 88 L582 88 L582 0 L675 0 L675 88 L719 88 Z M584 174 L503 174 L583 348 L584 348 L584 174 Z M306 397 C306 445 279 486 235 499 L235 500 C272 512 298 549 298 601 C298 682 234 721 167 721 C111 721 50 692 28 615 L118 592 C124 615 140 632 161 632 C189 632 201 609 201 588 C201 554 182 534 150 534 L123 534 L123 456 L147 456 C184 456 208 438 208 400 C208 371 192 346 162 346 C134 346 116 369 110 395 L17 372 C34 295 89 257 165 257 C244 257 306 306 306 397 L306 397 Z M554 711 L475 737 L205 5 L283 -19 L554 711 Z " />
<glyph glyph-name="questiondown" unicode="&#xbf;" horiz-adv-x="428" d="M148 270 C148 238 139 215 105 184 C50 135 12 90 12 5 C12 -120 88 -191 205 -191 C335 -191 397 -99 411 4 L280 27 C276 -5 259 -53 214 -53 C176 -53 159 -26 159 16 C159 44 175 65 194 85 L211 103 C255 144 280 186 280 256 L280 298 L148 298 L148 270 Z M122 455 C122 406 157 364 207 364 C257 364 292 406 292 455 C292 505 257 545 207 545 C157 545 122 505 122 455 L122 455 Z " />
<glyph glyph-name="Agrave" unicode="&#xc0;" horiz-adv-x="543" d="M544 0 L373 708 L172 708 L0 0 L160 0 L189 129 L348 129 L377 0 L544 0 Z M328 253 L207 253 L267 554 L271 554 L328 253 Z M138 908 L250 764 L358 764 L268 908 L138 908 Z " />
<glyph glyph-name="Aacute" unicode="&#xc1;" horiz-adv-x="543" d="M544 0 L373 708 L172 708 L0 0 L160 0 L189 129 L348 129 L377 0 L544 0 Z M328 253 L207 253 L267 554 L271 554 L328 253 Z M406 908 L276 908 L186 764 L294 764 L406 908 Z " />
<glyph glyph-name="Acircumflex" unicode="&#xc2;" horiz-adv-x="543" d="M544 0 L373 708 L172 708 L0 0 L160 0 L189 129 L348 129 L377 0 L544 0 Z M328 253 L207 253 L267 554 L271 554 L328 253 Z M446 764 L332 908 L213 908 L98 764 L205 764 L271 849 L338 764 L446 764 Z " />
<glyph glyph-name="Atilde" unicode="&#xc3;" horiz-adv-x="543" d="M544 0 L373 708 L172 708 L0 0 L160 0 L189 129 L348 129 L377 0 L544 0 Z M328 253 L207 253 L267 554 L271 554 L328 253 Z M426 896 L369 896 C365 864 357 851 337 851 C320 851 309 856 280 873 C254 889 235 897 210 897 C157 897 125 844 121 771 L179 771 C182 799 193 815 212 815 C229 815 239 811 268 793 C294 777 314 770 337 770 C390 770 423 819 426 896 L426 896 Z " />
<glyph glyph-name="Adieresis" unicode="&#xc4;" horiz-adv-x="543" d="M544 0 L373 708 L172 708 L0 0 L160 0 L189 129 L348 129 L377 0 L544 0 Z M328 253 L207 253 L267 554 L271 554 L328 253 Z M254 851 C254 896 223 933 180 933 C136 933 106 896 106 851 C106 805 136 769 180 769 C222 769 254 805 254 851 L254 851 Z M438 851 C438 896 407 933 364 933 C320 933 290 896 290 851 C290 805 320 769 364 769 C406 769 438 805 438 851 L438 851 Z " />
<glyph glyph-name="Aring" unicode="&#xc5;" horiz-adv-x="543" d="M544 0 L373 708 L172 708 L0 0 L160 0 L189 129 L348 129 L377 0 L544 0 Z M328 253 L207 253 L267 554 L271 554 L328 253 Z M371 855 C371 917 330 964 269 964 C208 964 169 917 169 855 C169 793 208 746 269 746 C330 746 371 793 371 855 L371 855 Z M323 855 C323 820 304 790 269 790 C234 790 217 820 217 855 C217 890 234 920 269 920 C304 920 323 890 323 855 L323 855 Z " />
<glyph glyph-name="AE" unicode="&#xc6;" horiz-adv-x="720" d="M690 0 L690 143 L494 143 L494 296 L663 296 L663 428 L494 428 L494 567 L679 567 L679 708 L243 708 L-3 0 L161 0 L204 131 L347 131 L347 0 L690 0 Z M347 257 L241 257 L342 571 L347 571 L347 257 Z " />
<glyph glyph-name="Ccedilla" unicode="&#xc7;" horiz-adv-x="512" d="M505 77 L416 188 C397 159 365 134 322 134 C237 134 193 232 193 354 C193 478 237 574 321 574 C366 574 394 554 418 522 L504 638 C466 689 403 727 309 727 C145 727 34 576 34 354 C34 161 119 19 252 -12 L196 -91 L227 -119 C239 -114 258 -110 271 -110 C290 -110 313 -116 313 -137 C313 -162 288 -169 265 -169 C243 -169 210 -163 188 -152 L164 -214 C194 -228 240 -236 274 -236 C328 -236 410 -217 410 -139 C410 -75 360 -59 321 -59 C313 -59 306 -59 298 -61 L331 -18 C416 -12 469 27 505 77 L505 77 Z " />
<glyph glyph-name="Egrave" unicode="&#xc8;" horiz-adv-x="448" d="M417 0 L417 143 L216 143 L216 296 L390 296 L390 428 L216 428 L216 567 L405 567 L405 708 L63 708 L63 0 L417 0 Z M76 908 L188 764 L296 764 L206 908 L76 908 Z " />
<glyph glyph-name="Eacute" unicode="&#xc9;" horiz-adv-x="448" d="M417 0 L417 143 L216 143 L216 296 L390 296 L390 428 L216 428 L216 567 L405 567 L405 708 L63 708 L63 0 L417 0 Z M384 908 L254 908 L164 764 L272 764 L384 908 Z " />
<glyph glyph-name="Ecircumflex" unicode="&#xca;" horiz-adv-x="448" d="M417 0 L417 143 L216 143 L216 296 L390 296 L390 428 L216 428 L216 567 L405 567 L405 708 L63 708 L63 0 L417 0 Z M409 764 L295 908 L176 908 L61 764 L168 764 L234 849 L301 764 L409 764 Z " />
<glyph glyph-name="Edieresis" unicode="&#xcb;" horiz-adv-x="448" d="M417 0 L417 143 L216 143 L216 296 L390 296 L390 428 L216 428 L216 567 L405 567 L405 708 L63 708 L63 0 L417 0 Z M217 851 C217 896 186 933 143 933 C99 933 69 896 69 851 C69 805 99 769 143 769 C185 769 217 805 217 851 L217 851 Z M401 851 C401 896 370 933 327 933 C283 933 253 896 253 851 C253 805 283 769 327 769 C369 769 401 805 401 851 L401 851 Z " />
<glyph glyph-name="Igrave" unicode="&#xcc;" horiz-adv-x="287" d="M224 0 L224 708 L63 708 L63 0 L224 0 Z M3 908 L115 764 L223 764 L133 908 L3 908 Z " />
<glyph glyph-name="Iacute" unicode="&#xcd;" horiz-adv-x="287" d="M224 0 L224 708 L63 708 L63 0 L224 0 Z M285 908 L155 908 L65 764 L173 764 L285 908 Z " />
<glyph glyph-name="Icircumflex" unicode="&#xce;" horiz-adv-x="287" d="M224 0 L224 708 L63 708 L63 0 L224 0 Z M318 764 L204 908 L85 908 L-30 764 L77 764 L143 849 L210 764 L318 764 Z " />
<glyph glyph-name="Idieresis" unicode="&#xcf;" horiz-adv-x="287" d="M224 0 L224 708 L63 708 L63 0 L224 0 Z M125 851 C125 896 94 933 51 933 C7 933 -23 896 -23 851 C-23 805 7 769 51 769 C93 769 125 805 125 851 L125 851 Z M309 851 C309 896 278 933 235 933 C191 933 161 896 161 851 C161 805 191 769 235 769 C277 769 309 805 309 851 L309 851 Z " />
<glyph glyph-name="Eth" unicode="&#xd0;" horiz-adv-x="595" d="M63 308 L63 0 L262 0 C464 0 556 138 556 352 C556 570 465 708 262 708 L63 708 L63 413 L14 413 L14 308 L63 308 Z M225 413 L225 568 L264 568 C341 568 395 494 395 352 C395 215 341 140 264 140 L225 140 L225 308 L320 308 L320 413 L225 413 Z " />
<glyph glyph-name="Ntilde" unicode="&#xd1;" horiz-adv-x="603" d="M540 0 L540 708 L402 708 L405 271 L402 271 L239 708 L63 708 L63 0 L206 0 L202 431 L205 431 L369 0 L540 0 Z M458 896 L401 896 C397 864 389 851 369 851 C352 851 341 856 312 873 C286 889 267 897 242 897 C189 897 157 844 153 771 L211 771 C214 799 225 815 244 815 C261 815 271 811 300 793 C326 777 346 770 369 770 C422 770 455 819 458 896 L458 896 Z " />
<glyph glyph-name="Ograve" unicode="&#xd2;" horiz-adv-x="612" d="M578 356 C578 580 474 727 306 727 C136 727 34 580 34 356 C34 131 138 -19 306 -19 C474 -19 578 131 578 356 L578 356 Z M414 356 C414 233 378 138 306 138 C233 138 198 233 198 356 C198 479 233 572 306 572 C378 572 414 479 414 356 L414 356 Z M151 908 L263 764 L371 764 L281 908 L151 908 Z " />
<glyph glyph-name="Oacute" unicode="&#xd3;" horiz-adv-x="612" d="M578 356 C578 580 474 727 306 727 C136 727 34 580 34 356 C34 131 138 -19 306 -19 C474 -19 578 131 578 356 L578 356 Z M414 356 C414 233 378 138 306 138 C233 138 198 233 198 356 C198 479 233 572 306 572 C378 572 414 479 414 356 L414 356 Z M451 908 L321 908 L231 764 L339 764 L451 908 Z " />
<glyph glyph-name="Ocircumflex" unicode="&#xd4;" horiz-adv-x="612" d="M578 356 C578 580 474 727 306 727 C136 727 34 580 34 356 C34 131 138 -19 306 -19 C474 -19 578 131 578 356 L578 356 Z M414 356 C414 233 378 138 306 138 C233 138 198 233 198 356 C198 479 233 572 306 572 C378 572 414 479 414 356 L414 356 Z M480 764 L366 908 L247 908 L132 764 L239 764 L305 849 L372 764 L480 764 Z " />
<glyph glyph-name="Otilde" unicode="&#xd5;" horiz-adv-x="612" d="M578 356 C578 580 474 727 306 727 C136 727 34 580 34 356 C34 131 138 -19 306 -19 C474 -19 578 131 578 356 L578 356 Z M414 356 C414 233 378 138 306 138 C233 138 198 233 198 356 C198 479 233 572 306 572 C378 572 414 479 414 356 L414 356 Z M459 896 L402 896 C398 864 390 851 370 851 C353 851 342 856 313 873 C287 889 268 897 243 897 C190 897 158 844 154 771 L212 771 C215 799 226 815 245 815 C262 815 272 811 301 793 C327 777 347 770 370 770 C423 770 456 819 459 896 L459 896 Z " />
<glyph glyph-name="Odieresis" unicode="&#xd6;" horiz-adv-x="612" d="M578 356 C578 580 474 727 306 727 C136 727 34 580 34 356 C34 131 138 -19 306 -19 C474 -19 578 131 578 356 L578 356 Z M414 356 C414 233 378 138 306 138 C233 138 198 233 198 356 C198 479 233 572 306 572 C378 572 414 479 414 356 L414 356 Z M288 851 C288 896 257 933 214 933 C170 933 140 896 140 851 C140 805 170 769 214 769 C256 769 288 805 288 851 L288 851 Z M472 851 C472 896 441 933 398 933 C354 933 324 896 324 851 C324 805 354 769 398 769 C440 769 472 805 472 851 L472 851 Z " />
<glyph glyph-name="multiply" unicode="&#xd7;" horiz-adv-x="666" d="M604 130 L425 305 L599 478 L508 565 L334 393 L157 566 L63 475 L241 301 L64 126 L157 37 L333 210 L510 37 L604 130 Z " />
<glyph glyph-name="Oslash" unicode="&#xd8;" horiz-adv-x="615" d="M578 356 C578 471 550 566 501 631 L549 726 L472 761 L438 689 C400 713 356 727 306 727 C136 727 34 580 34 356 C34 242 60 148 108 82 L60 -12 L138 -48 L170 21 C209 -4 254 -19 306 -19 C474 -19 578 131 578 356 L578 356 Z M420 356 C420 227 382 127 306 127 C282 127 262 137 245 154 L407 471 C416 437 420 398 420 356 L420 356 Z M192 356 C192 485 229 583 306 583 C328 583 347 574 362 559 L203 244 C195 277 192 315 192 356 L192 356 Z " />
<glyph glyph-name="Ugrave" unicode="&#xd9;" horiz-adv-x="581" d="M530 262 L530 708 L370 708 L370 276 C370 196 354 135 291 135 C228 135 212 196 212 276 L212 708 L51 708 L51 262 C51 105 115 -19 288 -19 C461 -19 530 106 530 262 L530 262 Z M148 908 L260 764 L368 764 L278 908 L148 908 Z " />
<glyph glyph-name="Uacute" unicode="&#xda;" horiz-adv-x="581" d="M530 262 L530 708 L370 708 L370 276 C370 196 354 135 291 135 C228 135 212 196 212 276 L212 708 L51 708 L51 262 C51 105 115 -19 288 -19 C461 -19 530 106 530 262 L530 262 Z M443 908 L313 908 L223 764 L331 764 L443 908 Z " />
<glyph glyph-name="Ucircumflex" unicode="&#xdb;" horiz-adv-x="581" d="M530 262 L530 708 L370 708 L370 276 C370 196 354 135 291 135 C228 135 212 196 212 276 L212 708 L51 708 L51 262 C51 105 115 -19 288 -19 C461 -19 530 106 530 262 L530 262 Z M466 764 L352 908 L233 908 L118 764 L225 764 L291 849 L358 764 L466 764 Z " />
<glyph glyph-name="Udieresis" unicode="&#xdc;" horiz-adv-x="581" d="M530 262 L530 708 L370 708 L370 276 C370 196 354 135 291 135 C228 135 212 196 212 276 L212 708 L51 708 L51 262 C51 105 115 -19 288 -19 C461 -19 530 106 530 262 L530 262 Z M274 851 C274 896 243 933 200 933 C156 933 126 896 126 851 C126 805 156 769 200 769 C242 769 274 805 274 851 L274 851 Z M458 851 C458 896 427 933 384 933 C340 933 310 896 310 851 C310 805 340 769 384 769 C426 769 458 805 458 851 L458 851 Z " />
<glyph glyph-name="Yacute" unicode="&#xdd;" horiz-adv-x="492" d="M504 708 L334 708 L248 415 L246 415 L161 708 L-12 708 L167 255 L167 0 L324 0 L324 255 L504 708 Z M399 908 L269 908 L179 764 L287 764 L399 908 Z " />
<glyph glyph-name="Thorn" unicode="&#xde;" horiz-adv-x="544" d="M513 369 C513 531 417 587 286 587 L220 587 L220 708 L63 708 L63 0 L220 0 L220 146 L283 146 C407 146 513 205 513 369 L513 369 Z M360 368 C360 301 318 277 264 277 L220 277 L220 455 L267 455 C318 455 360 437 360 368 L360 368 Z " />
<glyph glyph-name="germandbls" unicode="&#xdf;" horiz-adv-x="528" d="M379 416 C430 433 476 487 476 571 C476 685 409 768 279 768 C119 768 59 655 59 507 L59 0 L211 0 L211 511 C211 577 222 639 277 639 C320 639 337 601 337 559 C337 504 307 470 267 470 L250 470 L250 345 L268 345 C321 345 360 306 360 229 C360 162 335 118 278 118 C268 118 256 119 246 123 L246 -2 C260 -5 285 -10 309 -10 C454 -10 506 94 506 220 C506 333 447 400 379 415 L379 416 Z " />
<glyph glyph-name="agrave" unicode="&#xe0;" horiz-adv-x="465" d="M274 199 C274 150 254 97 205 97 C180 97 159 116 159 157 C159 213 200 228 246 228 L274 228 L274 199 Z M281 65 L281 0 L410 0 L410 298 C410 452 359 539 217 539 C155 539 85 510 43 459 L112 363 C134 389 167 409 205 409 C243 409 269 387 269 337 L269 329 L249 329 C139 329 26 289 26 146 C26 26 103 -13 163 -13 C225 -13 266 19 279 65 L281 65 Z M90 723 L202 579 L310 579 L220 723 L90 723 Z " />
<glyph glyph-name="aacute" unicode="&#xe1;" horiz-adv-x="465" d="M274 199 C274 150 254 97 205 97 C180 97 159 116 159 157 C159 213 200 228 246 228 L274 228 L274 199 Z M281 65 L281 0 L410 0 L410 298 C410 452 359 539 217 539 C155 539 85 510 43 459 L112 363 C134 389 167 409 205 409 C243 409 269 387 269 337 L269 329 L249 329 C139 329 26 289 26 146 C26 26 103 -13 163 -13 C225 -13 266 19 279 65 L281 65 Z M382 722 L252 722 L162 578 L270 578 L382 722 Z " />
<glyph glyph-name="acircumflex" unicode="&#xe2;" horiz-adv-x="465" d="M274 199 C274 150 254 97 205 97 C180 97 159 116 159 157 C159 213 200 228 246 228 L274 228 L274 199 Z M281 65 L281 0 L410 0 L410 298 C410 452 359 539 217 539 C155 539 85 510 43 459 L112 363 C134 389 167 409 205 409 C243 409 269 387 269 337 L269 329 L249 329 C139 329 26 289 26 146 C26 26 103 -13 163 -13 C225 -13 266 19 279 65 L281 65 Z M400 579 L286 723 L167 723 L52 579 L159 579 L225 664 L292 579 L400 579 Z " />
<glyph glyph-name="atilde" unicode="&#xe3;" horiz-adv-x="465" d="M274 199 C274 150 254 97 205 97 C180 97 159 116 159 157 C159 213 200 228 246 228 L274 228 L274 199 Z M281 65 L281 0 L410 0 L410 298 C410 452 359 539 217 539 C155 539 85 510 43 459 L112 363 C134 389 167 409 205 409 C243 409 269 387 269 337 L269 329 L249 329 C139 329 26 289 26 146 C26 26 103 -13 163 -13 C225 -13 266 19 279 65 L281 65 Z M380 711 L323 711 C319 679 311 666 291 666 C274 666 263 671 234 688 C208 704 189 712 164 712 C138 712 116 699 101 676 C86 654 77 623 75 586 L133 586 C136 614 147 630 166 630 C183 630 193 626 222 608 C248 592 268 585 291 585 C344 585 377 634 380 711 L380 711 Z " />
<glyph glyph-name="adieresis" unicode="&#xe4;" horiz-adv-x="465" d="M274 199 C274 150 254 97 205 97 C180 97 159 116 159 157 C159 213 200 228 246 228 L274 228 L274 199 Z M281 65 L281 0 L410 0 L410 298 C410 452 359 539 217 539 C155 539 85 510 43 459 L112 363 C134 389 167 409 205 409 C243 409 269 387 269 337 L269 329 L249 329 C139 329 26 289 26 146 C26 26 103 -13 163 -13 C225 -13 266 19 279 65 L281 65 Z M208 666 C208 711 177 748 134 748 C90 748 60 711 60 666 C60 620 90 584 134 584 C176 584 208 620 208 666 L208 666 Z M392 666 C392 711 361 748 318 748 C274 748 244 711 244 666 C244 620 274 584 318 584 C360 584 392 620 392 666 L392 666 Z " />
<glyph glyph-name="aring" unicode="&#xe5;" horiz-adv-x="465" d="M274 199 C274 150 254 97 205 97 C180 97 159 116 159 157 C159 213 200 228 246 228 L274 228 L274 199 Z M281 65 L281 0 L410 0 L410 298 C410 452 359 539 217 539 C155 539 85 510 43 459 L112 363 C134 389 167 409 205 409 C243 409 269 387 269 337 L269 329 L249 329 C139 329 26 289 26 146 C26 26 103 -13 163 -13 C225 -13 266 19 279 65 L281 65 Z M327 670 C327 732 286 779 225 779 C164 779 125 732 125 670 C125 608 164 561 225 561 C286 561 327 608 327 670 L327 670 Z M279 670 C279 635 260 605 225 605 C190 605 173 635 173 670 C173 705 190 735 225 735 C260 735 279 705 279 670 L279 670 Z " />
<glyph glyph-name="ae" unicode="&#xe6;" horiz-adv-x="702" d="M217 542 C155 542 85 513 43 462 L112 366 C134 392 167 412 205 412 C243 412 269 390 269 340 L269 324 L249 324 C139 324 26 287 26 144 C26 24 102 -19 189 -19 C269 -19 319 16 339 63 C363 13 418 -19 479 -19 C568 -19 629 30 664 107 L549 172 C537 142 517 115 482 115 C439 115 412 164 411 222 L673 222 L673 266 C673 414 618 542 482 542 C424 542 378 517 350 470 C325 520 279 542 217 542 L217 542 Z M274 199 C274 145 254 97 205 97 C180 97 159 116 159 157 C159 213 200 222 246 222 L274 222 L274 199 Z M529 324 L410 324 C411 365 431 422 473 422 C513 422 529 380 529 324 L529 324 Z " />
<glyph glyph-name="ccedilla" unicode="&#xe7;" horiz-adv-x="361" d="M365 40 L302 161 C291 143 274 130 252 130 C208 130 181 179 181 262 C181 346 210 395 249 395 C270 395 288 383 300 365 L363 487 C339 514 295 539 237 539 C105 539 30 424 30 262 C30 117 88 10 193 -11 L137 -91 L168 -119 C180 -114 199 -110 212 -110 C231 -110 254 -116 254 -137 C254 -162 229 -169 206 -169 C184 -169 151 -163 129 -152 L105 -214 C135 -228 181 -236 215 -236 C269 -236 351 -217 351 -139 C351 -75 301 -59 262 -59 C254 -59 247 -59 239 -61 L277 -11 C314 -3 344 15 365 40 L365 40 Z " />
<glyph glyph-name="egrave" unicode="&#xe8;" horiz-adv-x="473" d="M444 222 L444 266 C444 425 387 542 243 542 C118 542 30 432 30 260 C30 79 124 -19 247 -19 C339 -19 400 30 435 107 L320 172 C308 142 288 115 253 115 C210 115 183 164 182 222 L444 222 Z M300 324 L181 324 C182 365 202 422 244 422 C284 422 300 380 300 324 L300 324 Z M91 723 L203 579 L311 579 L221 723 L91 723 Z " />
<glyph glyph-name="eacute" unicode="&#xe9;" horiz-adv-x="473" d="M444 222 L444 266 C444 425 387 542 243 542 C118 542 30 432 30 260 C30 79 124 -19 247 -19 C339 -19 400 30 435 107 L320 172 C308 142 288 115 253 115 C210 115 183 164 182 222 L444 222 Z M300 324 L181 324 C182 365 202 422 244 422 C284 422 300 380 300 324 L300 324 Z M396 723 L266 723 L176 579 L284 579 L396 723 Z " />
<glyph glyph-name="ecircumflex" unicode="&#xea;" horiz-adv-x="473" d="M444 222 L444 266 C444 425 387 542 243 542 C118 542 30 432 30 260 C30 79 124 -19 247 -19 C339 -19 400 30 435 107 L320 172 C308 142 288 115 253 115 C210 115 183 164 182 222 L444 222 Z M300 324 L181 324 C182 365 202 422 244 422 C284 422 300 380 300 324 L300 324 Z M430 579 L316 723 L197 723 L82 579 L189 579 L255 664 L322 579 L430 579 Z " />
<glyph glyph-name="edieresis" unicode="&#xeb;" horiz-adv-x="473" d="M444 222 L444 266 C444 425 387 542 243 542 C118 542 30 432 30 260 C30 79 124 -19 247 -19 C339 -19 400 30 435 107 L320 172 C308 142 288 115 253 115 C210 115 183 164 182 222 L444 222 Z M300 324 L181 324 C182 365 202 422 244 422 C284 422 300 380 300 324 L300 324 Z M232 666 C232 711 201 748 158 748 C114 748 84 711 84 666 C84 620 114 584 158 584 C200 584 232 620 232 666 L232 666 Z M416 666 C416 711 385 748 342 748 C298 748 268 711 268 666 C268 620 298 584 342 584 C384 584 416 620 416 666 L416 666 Z " />
<glyph glyph-name="igrave" unicode="&#xec;" horiz-adv-x="276" d="M216 0 L216 523 L60 523 L60 0 L216 0 Z M-6 723 L106 579 L214 579 L124 723 L-6 723 Z " />
<glyph glyph-name="iacute" unicode="&#xed;" horiz-adv-x="276" d="M216 0 L216 523 L60 523 L60 0 L216 0 Z M282 723 L152 723 L62 579 L170 579 L282 723 Z " />
<glyph glyph-name="icircumflex" unicode="&#xee;" horiz-adv-x="276" d="M216 0 L216 523 L60 523 L60 0 L216 0 Z M313 579 L199 723 L80 723 L-35 579 L72 579 L138 664 L205 579 L313 579 Z " />
<glyph glyph-name="idieresis" unicode="&#xef;" horiz-adv-x="276" d="M216 0 L216 523 L60 523 L60 0 L216 0 Z M122 666 C122 711 91 748 48 748 C4 748 -26 711 -26 666 C-26 620 4 584 48 584 C90 584 122 620 122 666 L122 666 Z M306 666 C306 711 275 748 232 748 C188 748 158 711 158 666 C158 620 188 584 232 584 C274 584 306 620 306 666 L306 666 Z " />
<glyph glyph-name="eth" unicode="&#xf0;" horiz-adv-x="489" d="M458 259 C458 415 405 554 328 653 L434 701 L365 767 L275 724 C255 747 229 768 200 793 L74 736 C104 714 135 691 151 674 L48 626 L111 559 L211 608 C234 583 260 545 276 512 L273 511 C263 518 251 523 231 523 C113 523 30 417 30 261 C30 87 118 -19 244 -19 C367 -19 458 88 458 259 L458 259 Z M315 261 C315 185 292 122 244 122 C197 122 175 185 175 261 C175 338 197 400 244 400 C291 400 315 338 315 261 L315 261 Z " />
<glyph glyph-name="ntilde" unicode="&#xf1;" horiz-adv-x="540" d="M62 523 L62 0 L219 0 L219 308 C219 365 242 404 280 404 C318 404 327 365 327 321 L327 0 L484 0 L484 320 C484 435 464 542 345 542 C280 542 234 499 217 449 L215 449 L215 523 L62 523 Z M423 703 L366 703 C362 671 354 658 334 658 C317 658 306 663 277 680 C251 696 232 704 207 704 C154 704 122 651 118 578 L176 578 C179 606 190 622 209 622 C226 622 236 618 265 600 C291 584 311 577 334 577 C387 577 420 626 423 703 L423 703 Z " />
<glyph glyph-name="ograve" unicode="&#xf2;" horiz-adv-x="495" d="M465 261 C465 425 384 542 248 542 C112 542 30 425 30 261 C30 98 113 -19 248 -19 C384 -19 465 98 465 261 L465 261 Z M315 262 C315 183 295 120 248 120 C202 120 182 183 182 262 C182 341 202 404 248 404 C295 404 315 341 315 262 L315 262 Z M102 723 L214 579 L322 579 L232 723 L102 723 Z " />
<glyph glyph-name="oacute" unicode="&#xf3;" horiz-adv-x="495" d="M465 261 C465 425 384 542 248 542 C112 542 30 425 30 261 C30 98 113 -19 248 -19 C384 -19 465 98 465 261 L465 261 Z M315 262 C315 183 295 120 248 120 C202 120 182 183 182 262 C182 341 202 404 248 404 C295 404 315 341 315 262 L315 262 Z M396 723 L266 723 L176 579 L284 579 L396 723 Z " />
<glyph glyph-name="ocircumflex" unicode="&#xf4;" horiz-adv-x="495" d="M465 261 C465 425 384 542 248 542 C112 542 30 425 30 261 C30 98 113 -19 248 -19 C384 -19 465 98 465 261 L465 261 Z M315 262 C315 183 295 120 248 120 C202 120 182 183 182 262 C182 341 202 404 248 404 C295 404 315 341 315 262 L315 262 Z M422 579 L308 723 L189 723 L74 579 L181 579 L247 664 L314 579 L422 579 Z " />
<glyph glyph-name="otilde" unicode="&#xf5;" horiz-adv-x="495" d="M465 261 C465 425 384 542 248 542 C112 542 30 425 30 261 C30 98 113 -19 248 -19 C384 -19 465 98 465 261 L465 261 Z M315 262 C315 183 295 120 248 120 C202 120 182 183 182 262 C182 341 202 404 248 404 C295 404 315 341 315 262 L315 262 Z M401 711 L344 711 C340 679 332 666 312 666 C295 666 284 671 255 688 C229 704 210 712 185 712 C159 712 137 699 122 676 C107 654 98 623 96 586 L154 586 C157 614 168 630 187 630 C204 630 214 626 243 608 C269 592 289 585 312 585 C365 585 398 634 401 711 L401 711 Z " />
<glyph glyph-name="odieresis" unicode="&#xf6;" horiz-adv-x="495" d="M465 261 C465 425 384 542 248 542 C112 542 30 425 30 261 C30 98 113 -19 248 -19 C384 -19 465 98 465 261 L465 261 Z M315 262 C315 183 295 120 248 120 C202 120 182 183 182 262 C182 341 202 404 248 404 C295 404 315 341 315 262 L315 262 Z M230 666 C230 711 199 748 156 748 C112 748 82 711 82 666 C82 620 112 584 156 584 C198 584 230 620 230 666 L230 666 Z M414 666 C414 711 383 748 340 748 C296 748 266 711 266 666 C266 620 296 584 340 584 C382 584 414 620 414 666 L414 666 Z " />
<glyph glyph-name="divide" unicode="&#xf7;" horiz-adv-x="666" d="M246 489 C246 442 286 404 333 404 C380 404 419 442 419 489 C419 535 380 573 333 573 C286 573 246 535 246 489 L246 489 Z M246 117 C246 71 286 32 333 32 C380 32 419 71 419 117 C419 163 380 201 333 201 C286 201 246 163 246 117 L246 117 Z M586 240 L586 367 L79 367 L79 240 L586 240 Z " />
<glyph glyph-name="oslash" unicode="&#xf8;" horiz-adv-x="495" d="M437 545 L371 576 L343 519 C316 534 284 542 248 542 C112 542 30 425 30 261 C30 177 52 106 91 56 L54 -18 L121 -50 L147 7 C176 -10 210 -19 248 -19 C384 -19 465 98 465 261 C465 348 442 422 400 472 L437 545 Z M326 262 C326 173 303 102 248 102 C233 102 220 107 210 117 L320 333 C324 311 326 287 326 262 L326 262 Z M172 262 C172 351 195 422 248 422 C261 422 272 418 281 411 L176 202 C173 220 172 240 172 262 L172 262 Z " />
<glyph glyph-name="ugrave" unicode="&#xf9;" horiz-adv-x="540" d="M478 0 L478 523 L321 523 L321 216 C321 159 298 120 260 120 C222 120 213 159 213 203 L213 523 L56 523 L56 203 C56 88 76 -19 195 -19 C260 -19 306 24 323 74 L325 74 L325 0 L478 0 Z M124 723 L236 579 L344 579 L254 723 L124 723 Z " />
<glyph glyph-name="uacute" unicode="&#xfa;" horiz-adv-x="540" d="M478 0 L478 523 L321 523 L321 216 C321 159 298 120 260 120 C222 120 213 159 213 203 L213 523 L56 523 L56 203 C56 88 76 -19 195 -19 C260 -19 306 24 323 74 L325 74 L325 0 L478 0 Z M416 723 L286 723 L196 579 L304 579 L416 723 Z " />
<glyph glyph-name="ucircumflex" unicode="&#xfb;" horiz-adv-x="540" d="M478 0 L478 523 L321 523 L321 216 C321 159 298 120 260 120 C222 120 213 159 213 203 L213 523 L56 523 L56 203 C56 88 76 -19 195 -19 C260 -19 306 24 323 74 L325 74 L325 0 L478 0 Z M442 579 L328 723 L209 723 L94 579 L201 579 L267 664 L334 579 L442 579 Z " />
<glyph glyph-name="udieresis" unicode="&#xfc;" horiz-adv-x="540" d="M478 0 L478 523 L321 523 L321 216 C321 159 298 120 260 120 C222 120 213 159 213 203 L213 523 L56 523 L56 203 C56 88 76 -19 195 -19 C260 -19 306 24 323 74 L325 74 L325 0 L478 0 Z M250 666 C250 711 219 748 176 748 C132 748 102 711 102 666 C102 620 132 584 176 584 C218 584 250 620 250 666 L250 666 Z M434 666 C434 711 403 748 360 748 C316 748 286 711 286 666 C286 620 316 584 360 584 C402 584 434 620 434 666 L434 666 Z " />
<glyph glyph-name="yacute" unicode="&#xfd;" horiz-adv-x="476" d="M473 523 L314 523 L245 174 L243 174 L168 523 L3 523 L159 -13 L151 -42 C143 -71 128 -96 88 -96 C76 -96 58 -93 46 -88 L25 -230 C49 -235 83 -240 113 -240 C250 -240 292 -137 325 -18 L473 523 Z M391 723 L261 723 L171 579 L279 579 L391 723 Z " />
<glyph glyph-name="thorn" unicode="&#xfe;" horiz-adv-x="528" d="M62 762 L62 -240 L216 -240 L216 56 L218 56 C231 19 266 -16 325 -16 C437 -16 498 109 498 267 C498 421 437 539 325 539 C267 539 234 506 216 461 L213 461 L213 762 L62 762 Z M210 262 C210 341 232 404 277 404 C325 404 344 341 344 262 C344 184 325 120 277 120 C232 120 210 184 210 262 L210 262 Z " />
<glyph glyph-name="ydieresis" unicode="&#xff;" horiz-adv-x="476" d="M473 523 L314 523 L245 174 L243 174 L168 523 L3 523 L159 -13 L151 -42 C143 -71 128 -96 88 -96 C76 -96 58 -93 46 -88 L25 -230 C49 -235 83 -240 113 -240 C250 -240 292 -137 325 -18 L473 523 Z M226 666 C226 711 195 748 152 748 C108 748 78 711 78 666 C78 620 108 584 152 584 C194 584 226 620 226 666 L226 666 Z M410 666 C410 711 379 748 336 748 C292 748 262 711 262 666 C262 620 292 584 336 584 C378 584 410 620 410 666 L410 666 Z " />
<glyph glyph-name="Amacron" unicode="&#x100;" horiz-adv-x="543" d="M544 0 L373 708 L172 708 L0 0 L160 0 L189 129 L348 129 L377 0 L544 0 Z M328 253 L207 253 L267 554 L271 554 L328 253 Z M415 798 L415 875 L121 875 L121 798 L415 798 Z " />
<glyph glyph-name="amacron" unicode="&#x101;" horiz-adv-x="465" d="M274 199 C274 150 254 97 205 97 C180 97 159 116 159 157 C159 213 200 228 246 228 L274 228 L274 199 Z M281 65 L281 0 L410 0 L410 298 C410 452 359 539 217 539 C155 539 85 510 43 459 L112 363 C134 389 167 409 205 409 C243 409 269 387 269 337 L269 329 L249 329 C139 329 26 289 26 146 C26 26 103 -13 163 -13 C225 -13 266 19 279 65 L281 65 Z M373 613 L373 690 L79 690 L79 613 L373 613 Z " />
<glyph glyph-name="Abreve" unicode="&#x102;" horiz-adv-x="543" d="M544 0 L373 708 L172 708 L0 0 L160 0 L189 129 L348 129 L377 0 L544 0 Z M328 253 L207 253 L267 554 L271 554 L328 253 Z M417 905 L339 905 C333 862 300 849 267 849 C237 849 202 863 197 905 L119 905 C126 800 195 766 267 766 C342 766 409 800 417 905 L417 905 Z " />
<glyph glyph-name="abreve" unicode="&#x103;" horiz-adv-x="465" d="M274 199 C274 150 254 97 205 97 C180 97 159 116 159 157 C159 213 200 228 246 228 L274 228 L274 199 Z M281 65 L281 0 L410 0 L410 298 C410 452 359 539 217 539 C155 539 85 510 43 459 L112 363 C134 389 167 409 205 409 C243 409 269 387 269 337 L269 329 L249 329 C139 329 26 289 26 146 C26 26 103 -13 163 -13 C225 -13 266 19 279 65 L281 65 Z M381 720 L303 720 C297 677 264 664 231 664 C201 664 166 678 161 720 L83 720 C90 615 159 581 231 581 C306 581 373 615 381 720 L381 720 Z " />
<glyph glyph-name="Aogonek" unicode="&#x104;" horiz-adv-x="543" d="M496 -196 L465 -130 C448 -144 431 -151 411 -151 C393 -151 382 -141 382 -120 C382 -90 407 -60 478 0 L544 0 L373 708 L172 708 L0 0 L160 0 L189 129 L348 129 L377 0 L381 0 C334 -38 281 -84 281 -145 C281 -214 338 -236 385 -236 C426 -236 467 -218 496 -196 L496 -196 Z M328 253 L207 253 L267 554 L271 554 L328 253 Z " />
<glyph glyph-name="aogonek" unicode="&#x105;" horiz-adv-x="465" d="M281 65 L281 0 L286 0 C239 -38 187 -84 187 -145 C187 -214 244 -236 291 -236 C332 -236 373 -218 402 -196 L371 -130 C354 -144 337 -151 317 -151 C299 -151 288 -141 288 -120 C288 -90 313 -59 383 0 L410 0 L410 298 C410 452 359 539 217 539 C155 539 85 510 43 459 L112 363 C134 389 167 409 205 409 C243 409 269 387 269 337 L269 329 L249 329 C139 329 26 289 26 146 C26 26 103 -13 163 -13 C225 -13 266 19 279 65 L281 65 Z M274 199 C274 150 254 97 205 97 C180 97 159 116 159 157 C159 213 200 228 246 228 L274 228 L274 199 Z " />
<glyph glyph-name="Cacute" unicode="&#x106;" horiz-adv-x="512" d="M505 77 L416 188 C397 159 365 134 322 134 C237 134 193 232 193 354 C193 478 237 574 321 574 C366 574 394 554 418 522 L504 638 C466 689 403 727 309 727 C145 727 34 576 34 354 C34 135 144 -19 309 -19 C407 -19 466 23 505 77 L505 77 Z M447 908 L317 908 L227 764 L335 764 L447 908 Z " />
<glyph glyph-name="cacute" unicode="&#x107;" horiz-adv-x="361" d="M365 40 L302 161 C291 143 274 130 252 130 C208 130 181 179 181 262 C181 346 210 395 249 395 C270 395 288 383 300 365 L363 487 C339 514 295 539 237 539 C105 539 30 424 30 262 C30 99 103 -16 235 -16 C292 -16 337 6 365 40 L365 40 Z M375 723 L245 723 L155 579 L263 579 L375 723 Z " />
<glyph glyph-name="Ccircumflex" unicode="&#x108;" horiz-adv-x="512" d="M505 77 L416 188 C397 159 365 134 322 134 C237 134 193 232 193 354 C193 478 237 574 321 574 C366 574 394 554 418 522 L504 638 C466 689 403 727 309 727 C145 727 34 576 34 354 C34 135 144 -19 309 -19 C407 -19 466 23 505 77 L505 77 Z M488 764 L374 908 L255 908 L140 764 L247 764 L313 849 L380 764 L488 764 Z " />
<glyph glyph-name="ccircumflex" unicode="&#x109;" horiz-adv-x="361" d="M365 40 L302 161 C291 143 274 130 252 130 C208 130 181 179 181 262 C181 346 210 395 249 395 C270 395 288 383 300 365 L363 487 C339 514 295 539 237 539 C105 539 30 424 30 262 C30 99 103 -16 235 -16 C292 -16 337 6 365 40 L365 40 Z M409 579 L295 723 L176 723 L61 579 L168 579 L234 664 L301 579 L409 579 Z " />
<glyph glyph-name="Cdotaccent" unicode="&#x10a;" horiz-adv-x="512" d="M505 77 L416 188 C397 159 365 134 322 134 C237 134 193 232 193 354 C193 478 237 574 321 574 C366 574 394 554 418 522 L504 638 C466 689 403 727 309 727 C145 727 34 576 34 354 C34 135 144 -19 309 -19 C407 -19 466 23 505 77 L505 77 Z M398 850 C398 900 363 942 312 942 C261 942 226 900 226 850 C226 799 261 759 312 759 C362 759 398 799 398 850 L398 850 Z " />
<glyph glyph-name="cdotaccent" unicode="&#x10b;" horiz-adv-x="361" d="M365 40 L302 161 C291 143 274 130 252 130 C208 130 181 179 181 262 C181 346 210 395 249 395 C270 395 288 383 300 365 L363 487 C339 514 295 539 237 539 C105 539 30 424 30 262 C30 99 103 -16 235 -16 C292 -16 337 6 365 40 L365 40 Z M322 665 C322 715 287 757 236 757 C185 757 150 715 150 665 C150 614 185 574 236 574 C286 574 322 614 322 665 L322 665 Z " />
<glyph glyph-name="Ccaron" unicode="&#x10c;" horiz-adv-x="512" d="M505 77 L416 188 C397 159 365 134 322 134 C237 134 193 232 193 354 C193 478 237 574 321 574 C366 574 394 554 418 522 L504 638 C466 689 403 727 309 727 C145 727 34 576 34 354 C34 135 144 -19 309 -19 C407 -19 466 23 505 77 L505 77 Z M138 908 L252 764 L371 764 L486 908 L379 908 L313 823 L246 908 L138 908 Z " />
<glyph glyph-name="ccaron" unicode="&#x10d;" horiz-adv-x="361" d="M365 40 L302 161 C291 143 274 130 252 130 C208 130 181 179 181 262 C181 346 210 395 249 395 C270 395 288 383 300 365 L363 487 C339 514 295 539 237 539 C105 539 30 424 30 262 C30 99 103 -16 235 -16 C292 -16 337 6 365 40 L365 40 Z M62 723 L176 579 L295 579 L410 723 L303 723 L237 638 L170 723 L62 723 Z " />
<glyph glyph-name="Dcaron" unicode="&#x10e;" horiz-adv-x="590" d="M556 352 C556 570 465 708 262 708 L63 708 L63 0 L262 0 C464 0 556 138 556 352 L556 352 Z M395 352 C395 215 341 140 264 140 L225 140 L225 568 L264 568 C341 568 395 494 395 352 L395 352 Z M99 908 L213 764 L332 764 L447 908 L340 908 L274 823 L207 908 L99 908 Z " />
<glyph glyph-name="dcaron" unicode="&#x10f;" horiz-adv-x="651" d="M466 0 L466 756 L311 756 L311 470 L308 470 C296 508 255 539 203 539 C90 539 30 423 30 269 C30 111 93 -16 203 -16 C266 -16 298 20 313 63 L315 63 L315 0 L466 0 Z M318 262 C318 184 296 120 251 120 C204 120 184 184 184 262 C184 341 204 404 251 404 C296 404 318 341 318 262 L318 262 Z M669 708 L552 708 L502 521 L607 521 L669 708 Z " />
<glyph glyph-name="Dcroat" unicode="&#x110;" horiz-adv-x="595" d="M63 308 L63 0 L262 0 C464 0 556 138 556 352 C556 570 465 708 262 708 L63 708 L63 413 L14 413 L14 308 L63 308 Z M225 413 L225 568 L264 568 C341 568 395 494 395 352 C395 215 341 140 264 140 L225 140 L225 308 L320 308 L320 413 L225 413 Z " />
<glyph glyph-name="dcroat" unicode="&#x111;" horiz-adv-x="528" d="M466 0 L466 590 L505 590 L505 667 L466 667 L466 756 L311 756 L311 667 L211 667 L211 590 L311 590 L311 470 L308 470 C296 508 255 539 203 539 C90 539 30 423 30 269 C30 111 93 -16 203 -16 C266 -16 298 20 313 63 L315 63 L315 0 L466 0 Z M318 262 C318 184 296 120 251 120 C204 120 184 184 184 262 C184 341 204 404 251 404 C296 404 318 341 318 262 L318 262 Z " />
<glyph glyph-name="Emacron" unicode="&#x112;" horiz-adv-x="448" d="M417 0 L417 143 L216 143 L216 296 L390 296 L390 428 L216 428 L216 567 L405 567 L405 708 L63 708 L63 0 L417 0 Z M378 798 L378 875 L84 875 L84 798 L378 798 Z " />
<glyph glyph-name="emacron" unicode="&#x113;" horiz-adv-x="473" d="M444 222 L444 266 C444 425 387 542 243 542 C118 542 30 432 30 260 C30 79 124 -19 247 -19 C339 -19 400 30 435 107 L320 172 C308 142 288 115 253 115 C210 115 183 164 182 222 L444 222 Z M300 324 L181 324 C182 365 202 422 244 422 C284 422 300 380 300 324 L300 324 Z M394 613 L394 690 L100 690 L100 613 L394 613 Z " />
<glyph glyph-name="Ebreve" unicode="&#x114;" horiz-adv-x="448" d="M417 0 L417 143 L216 143 L216 296 L390 296 L390 428 L216 428 L216 567 L405 567 L405 708 L63 708 L63 0 L417 0 Z M381 905 L303 905 C297 862 264 849 231 849 C201 849 166 863 161 905 L83 905 C90 800 159 766 231 766 C306 766 373 800 381 905 L381 905 Z " />
<glyph glyph-name="ebreve" unicode="&#x115;" horiz-adv-x="473" d="M444 222 L444 266 C444 425 387 542 243 542 C118 542 30 432 30 260 C30 79 124 -19 247 -19 C339 -19 400 30 435 107 L320 172 C308 142 288 115 253 115 C210 115 183 164 182 222 L444 222 Z M300 324 L181 324 C182 365 202 422 244 422 C284 422 300 380 300 324 L300 324 Z M396 720 L318 720 C312 677 279 664 246 664 C216 664 181 678 176 720 L98 720 C105 615 174 581 246 581 C321 581 388 615 396 720 L396 720 Z " />
<glyph glyph-name="Edotaccent" unicode="&#x116;" horiz-adv-x="448" d="M417 0 L417 143 L216 143 L216 296 L390 296 L390 428 L216 428 L216 567 L405 567 L405 708 L63 708 L63 0 L417 0 Z M321 850 C321 900 286 942 235 942 C184 942 149 900 149 850 C149 799 184 759 235 759 C285 759 321 799 321 850 L321 850 Z " />
<glyph glyph-name="edotaccent" unicode="&#x117;" horiz-adv-x="473" d="M444 222 L444 266 C444 425 387 542 243 542 C118 542 30 432 30 260 C30 79 124 -19 247 -19 C339 -19 400 30 435 107 L320 172 C308 142 288 115 253 115 C210 115 183 164 182 222 L444 222 Z M300 324 L181 324 C182 365 202 422 244 422 C284 422 300 380 300 324 L300 324 Z M331 665 C331 715 296 757 245 757 C194 757 159 715 159 665 C159 614 194 574 245 574 C295 574 331 614 331 665 L331 665 Z " />
<glyph glyph-name="Eogonek" unicode="&#x118;" horiz-adv-x="448" d="M414 -196 L383 -130 C366 -144 349 -151 329 -151 C311 -151 300 -141 300 -120 C300 -90 325 -60 396 0 L417 0 L417 143 L216 143 L216 296 L390 296 L390 428 L216 428 L216 567 L405 567 L405 708 L63 708 L63 0 L299 0 C252 -38 199 -84 199 -145 C199 -214 256 -236 303 -236 C344 -236 385 -218 414 -196 L414 -196 Z " />
<glyph glyph-name="eogonek" unicode="&#x119;" horiz-adv-x="473" d="M444 222 L444 266 C444 425 387 542 243 542 C118 542 30 432 30 260 C30 100 104 4 206 -15 C164 -50 125 -92 125 -145 C125 -214 182 -236 229 -236 C270 -236 311 -218 340 -196 L309 -130 C292 -144 275 -151 255 -151 C237 -151 226 -141 226 -120 C226 -92 248 -64 310 -10 C368 7 408 49 435 107 L320 172 C308 142 288 115 253 115 C210 115 183 164 182 222 L444 222 Z M300 324 L181 324 C182 365 202 422 244 422 C284 422 300 380 300 324 L300 324 Z " />
<glyph glyph-name="Ecaron" unicode="&#x11a;" horiz-adv-x="448" d="M417 0 L417 143 L216 143 L216 296 L390 296 L390 428 L216 428 L216 567 L405 567 L405 708 L63 708 L63 0 L417 0 Z M59 908 L173 764 L292 764 L407 908 L300 908 L234 823 L167 908 L59 908 Z " />
<glyph glyph-name="ecaron" unicode="&#x11b;" horiz-adv-x="473" d="M444 222 L444 266 C444 425 387 542 243 542 C118 542 30 432 30 260 C30 79 124 -19 247 -19 C339 -19 400 30 435 107 L320 172 C308 142 288 115 253 115 C210 115 183 164 182 222 L444 222 Z M300 324 L181 324 C182 365 202 422 244 422 C284 422 300 380 300 324 L300 324 Z M71 723 L185 579 L304 579 L419 723 L312 723 L246 638 L179 723 L71 723 Z " />
<glyph glyph-name="Gcircumflex" unicode="&#x11c;" horiz-adv-x="560" d="M513 42 L513 419 L297 419 L297 280 L373 280 L373 148 C360 138 340 133 317 133 C229 133 192 235 192 354 C192 473 232 575 320 574 C362 574 394 557 418 524 L505 641 C468 690 403 727 308 727 C143 727 34 575 34 354 C34 134 140 -16 318 -16 C404 -16 468 7 513 42 L513 42 Z M489 764 L375 908 L256 908 L141 764 L248 764 L314 849 L381 764 L489 764 Z " />
<glyph glyph-name="gcircumflex" unicode="&#x11d;" horiz-adv-x="527" d="M315 523 L315 461 L312 461 C296 506 263 539 204 539 C93 539 30 422 30 263 C30 110 90 -7 204 -7 C255 -7 297 25 311 60 L313 60 L313 17 C313 -51 286 -102 221 -102 C179 -102 141 -83 111 -56 L38 -172 C83 -211 158 -240 231 -240 C393 -240 465 -141 465 37 L465 523 L315 523 Z M318 262 C318 184 296 120 251 120 C204 120 184 184 184 262 C184 341 204 404 251 404 C297 404 318 341 318 262 L318 262 Z M437 579 L323 723 L204 723 L89 579 L196 579 L262 664 L329 579 L437 579 Z " />
<glyph glyph-name="Gbreve" unicode="&#x11e;" horiz-adv-x="560" d="M513 42 L513 419 L297 419 L297 280 L373 280 L373 148 C360 138 340 133 317 133 C229 133 192 235 192 354 C192 473 232 575 320 574 C362 574 394 557 418 524 L505 641 C468 690 403 727 308 727 C143 727 34 575 34 354 C34 134 140 -16 318 -16 C404 -16 468 7 513 42 L513 42 Z M461 905 L383 905 C377 862 344 849 311 849 C281 849 246 863 241 905 L163 905 C170 800 239 766 311 766 C386 766 453 800 461 905 L461 905 Z " />
<glyph glyph-name="gbreve" unicode="&#x11f;" horiz-adv-x="527" d="M315 523 L315 461 L312 461 C296 506 263 539 204 539 C93 539 30 422 30 263 C30 110 90 -7 204 -7 C255 -7 297 25 311 60 L313 60 L313 17 C313 -51 286 -102 221 -102 C179 -102 141 -83 111 -56 L38 -172 C83 -211 158 -240 231 -240 C393 -240 465 -141 465 37 L465 523 L315 523 Z M318 262 C318 184 296 120 251 120 C204 120 184 184 184 262 C184 341 204 404 251 404 C297 404 318 341 318 262 L318 262 Z M416 720 L338 720 C332 677 299 664 266 664 C236 664 201 678 196 720 L118 720 C125 615 194 581 266 581 C341 581 408 615 416 720 L416 720 Z " />
<glyph glyph-name="Gdotaccent" unicode="&#x120;" horiz-adv-x="560" d="M513 42 L513 419 L297 419 L297 280 L373 280 L373 148 C360 138 340 133 317 133 C229 133 192 235 192 354 C192 473 232 575 320 574 C362 574 394 557 418 524 L505 641 C468 690 403 727 308 727 C143 727 34 575 34 354 C34 134 140 -16 318 -16 C404 -16 468 7 513 42 L513 42 Z M405 850 C405 900 370 942 319 942 C268 942 233 900 233 850 C233 799 268 759 319 759 C369 759 405 799 405 850 L405 850 Z " />
<glyph glyph-name="gdotaccent" unicode="&#x121;" horiz-adv-x="527" d="M315 523 L315 461 L312 461 C296 506 263 539 204 539 C93 539 30 422 30 263 C30 110 90 -7 204 -7 C255 -7 297 25 311 60 L313 60 L313 17 C313 -51 286 -102 221 -102 C179 -102 141 -83 111 -56 L38 -172 C83 -211 158 -240 231 -240 C393 -240 465 -141 465 37 L465 523 L315 523 Z M318 262 C318 184 296 120 251 120 C204 120 184 184 184 262 C184 341 204 404 251 404 C297 404 318 341 318 262 L318 262 Z M356 665 C356 715 321 757 270 757 C219 757 184 715 184 665 C184 614 219 574 270 574 C320 574 356 614 356 665 L356 665 Z " />
<glyph glyph-name="Gcommaaccent" unicode="&#x122;" horiz-adv-x="560" d="M513 42 L513 419 L297 419 L297 280 L373 280 L373 148 C360 138 340 133 317 133 C229 133 192 235 192 354 C192 473 232 575 320 574 C362 574 394 557 418 524 L505 641 C468 690 403 727 308 727 C143 727 34 575 34 354 C34 134 140 -16 318 -16 C404 -16 468 7 513 42 L513 42 Z M380 -45 L263 -45 L213 -232 L318 -232 L380 -45 Z " />
<glyph glyph-name="gcommaaccent" unicode="&#x123;" horiz-adv-x="527" d="M315 523 L315 461 L312 461 C296 506 263 539 204 539 C93 539 30 422 30 263 C30 110 90 -7 204 -7 C255 -7 297 25 311 60 L313 60 L313 17 C313 -51 286 -102 221 -102 C179 -102 141 -83 111 -56 L38 -172 C83 -211 158 -240 231 -240 C393 -240 465 -141 465 37 L465 523 L315 523 Z M318 262 C318 184 296 120 251 120 C204 120 184 184 184 262 C184 341 204 404 251 404 C297 404 318 341 318 262 L318 262 Z M215 579 L332 579 L382 766 L277 766 L215 579 Z " />
<glyph glyph-name="Hcircumflex" unicode="&#x124;" horiz-adv-x="609" d="M546 0 L546 708 L387 708 L387 439 L222 439 L222 708 L63 708 L63 0 L222 0 L222 296 L387 296 L387 0 L546 0 Z M480 764 L366 908 L247 908 L132 764 L239 764 L305 849 L372 764 L480 764 Z " />
<glyph glyph-name="hcircumflex" unicode="&#x125;" horiz-adv-x="538" d="M217 308 C217 365 240 404 278 404 C317 404 326 365 326 321 L326 0 L483 0 L483 320 C483 435 463 542 343 542 C279 542 236 499 220 453 L217 453 L217 756 L60 756 L60 0 L217 0 L217 308 Z M444 796 L330 940 L211 940 L96 796 L203 796 L269 881 L336 796 L444 796 Z " />
<glyph glyph-name="Hbar" unicode="&#x126;" horiz-adv-x="609" d="M546 0 L546 708 L387 708 L387 593 L222 593 L222 708 L63 708 L63 0 L222 0 L222 296 L387 296 L387 0 L546 0 Z M222 439 L222 516 L387 516 L387 439 L222 439 Z " />
<glyph glyph-name="hbar" unicode="&#x127;" horiz-adv-x="538" d="M317 590 L317 667 L217 667 L217 756 L60 756 L60 667 L23 667 L23 590 L60 590 L60 0 L217 0 L217 307 C217 364 240 403 278 403 C317 403 326 364 326 320 L326 0 L483 0 L483 320 C483 435 463 542 343 542 C279 542 236 499 220 453 L217 453 L217 590 L317 590 Z " />
<glyph glyph-name="Itilde" unicode="&#x128;" horiz-adv-x="287" d="M224 0 L224 708 L63 708 L63 0 L224 0 Z M296 896 L239 896 C235 864 227 851 207 851 C190 851 179 856 150 873 C124 889 105 897 80 897 C27 897 -5 844 -9 771 L49 771 C52 799 63 815 82 815 C99 815 109 811 138 793 C164 777 184 770 207 770 C260 770 293 819 296 896 L296 896 Z " />
<glyph glyph-name="itilde" unicode="&#x129;" horiz-adv-x="276" d="M216 0 L216 523 L60 523 L60 0 L216 0 Z M292 711 L235 711 C231 679 223 666 203 666 C186 666 175 671 146 688 C120 704 101 712 76 712 C50 712 28 699 13 676 C-2 654 -11 623 -13 586 L45 586 C48 614 59 630 78 630 C95 630 105 626 134 608 C160 592 180 585 203 585 C256 585 289 634 292 711 L292 711 Z " />
<glyph glyph-name="Imacron" unicode="&#x12a;" horiz-adv-x="287" d="M224 0 L224 708 L63 708 L63 0 L224 0 Z M290 798 L290 875 L-4 875 L-4 798 L290 798 Z " />
<glyph glyph-name="imacron" unicode="&#x12b;" horiz-adv-x="276" d="M216 0 L216 523 L60 523 L60 0 L216 0 Z M285 613 L285 690 L-9 690 L-9 613 L285 613 Z " />
<glyph glyph-name="Iogonek" unicode="&#x12e;" horiz-adv-x="287" d="M236 -196 L205 -130 C188 -144 171 -151 151 -151 C133 -151 122 -141 122 -120 C122 -90 147 -60 218 0 L224 0 L224 708 L63 708 L63 0 L121 0 C74 -38 21 -84 21 -145 C21 -214 78 -236 125 -236 C166 -236 207 -218 236 -196 L236 -196 Z " />
<glyph glyph-name="iogonek" unicode="&#x12f;" horiz-adv-x="276" d="M230 -196 L199 -130 C182 -144 165 -151 145 -151 C127 -151 116 -141 116 -120 C116 -90 141 -60 212 0 L217 0 L217 523 L59 523 L59 0 L115 0 C68 -38 15 -84 15 -145 C15 -214 72 -236 119 -236 C160 -236 201 -218 230 -196 L230 -196 Z M224 665 C224 715 189 757 138 757 C87 757 52 715 52 665 C52 614 87 574 138 574 C188 574 224 614 224 665 L224 665 Z " />
<glyph glyph-name="Idotaccent" unicode="&#x130;" horiz-adv-x="287" d="M224 0 L224 708 L63 708 L63 0 L224 0 Z M231 850 C231 900 196 942 145 942 C94 942 59 900 59 850 C59 799 94 759 145 759 C195 759 231 799 231 850 L231 850 Z " />
<glyph glyph-name="dotlessi" unicode="&#x131;" horiz-adv-x="276" d="M216 0 L216 523 L60 523 L60 0 L216 0 Z " />
<glyph glyph-name="IJ" unicode="&#x132;" horiz-adv-x="733" d="M224 0 L224 708 L63 708 L63 0 L224 0 Z M673 223 L673 708 L514 708 L514 237 C514 173 504 135 460 135 C430 135 412 163 404 195 L274 137 C295 46 370 -16 468 -16 C610 -16 673 75 673 223 L673 223 Z " />
<glyph glyph-name="ij" unicode="&#x133;" horiz-adv-x="543" d="M217 0 L217 523 L59 523 L59 0 L217 0 Z M224 665 C224 715 189 757 138 757 C87 757 52 715 52 665 C52 614 87 574 138 574 C188 574 224 614 224 665 L224 665 Z M484 -35 L484 523 L325 523 L325 -21 C325 -70 317 -102 275 -102 C266 -102 255 -100 247 -97 L239 -234 C259 -238 285 -240 309 -240 C446 -240 484 -147 484 -35 L484 -35 Z M491 665 C491 715 456 757 405 757 C354 757 319 715 319 665 C319 614 354 574 405 574 C455 574 491 614 491 665 L491 665 Z " />
<glyph glyph-name="Jcircumflex" unicode="&#x134;" horiz-adv-x="445" d="M385 223 L385 708 L226 708 L226 237 C226 173 216 135 172 135 C142 135 124 163 116 195 L-14 137 C7 46 82 -16 180 -16 C322 -16 385 75 385 223 L385 223 Z M479 764 L365 908 L246 908 L131 764 L238 764 L304 849 L371 764 L479 764 Z " />
<glyph glyph-name="jcircumflex" unicode="&#x135;" horiz-adv-x="299" d="M218 -35 L218 523 L59 523 L59 -21 C59 -70 51 -102 9 -102 C0 -102 -11 -100 -19 -97 L-27 -234 C-7 -238 19 -240 43 -240 C180 -240 218 -147 218 -35 L218 -35 Z M313 579 L199 723 L80 723 L-35 579 L72 579 L138 664 L205 579 L313 579 Z " />
<glyph glyph-name="Kcommaaccent" unicode="&#x136;" horiz-adv-x="568" d="M563 0 L370 384 L552 708 L373 708 L227 413 L224 413 L224 708 L63 708 L63 0 L224 0 L224 329 L227 329 L378 0 L563 0 Z M369 -45 L252 -45 L202 -232 L307 -232 L369 -45 Z " />
<glyph glyph-name="kcommaaccent" unicode="&#x137;" horiz-adv-x="500" d="M503 0 L368 283 L500 523 L316 523 L220 312 L218 312 L218 756 L62 756 L62 0 L218 0 L218 240 L220 240 L322 0 L503 0 Z M339 -45 L222 -45 L172 -232 L277 -232 L339 -45 Z " />
<glyph glyph-name="Lacute" unicode="&#x139;" horiz-adv-x="423" d="M414 0 L414 148 L225 148 L225 708 L63 708 L63 0 L414 0 Z M306 908 L176 908 L86 764 L194 764 L306 908 Z " />
<glyph glyph-name="lacute" unicode="&#x13a;" horiz-adv-x="284" d="M222 0 L222 756 L62 756 L62 0 L222 0 Z M284 951 L154 951 L64 807 L172 807 L284 951 Z " />
<glyph glyph-name="Lcommaaccent" unicode="&#x13b;" horiz-adv-x="423" d="M414 0 L414 148 L225 148 L225 708 L63 708 L63 0 L414 0 Z M308 -45 L191 -45 L141 -232 L246 -232 L308 -45 Z " />
<glyph glyph-name="lcommaaccent" unicode="&#x13c;" horiz-adv-x="284" d="M222 0 L222 756 L62 756 L62 0 L222 0 Z M209 -45 L92 -45 L42 -232 L147 -232 L209 -45 Z " />
<glyph glyph-name="Lcaron" unicode="&#x13d;" horiz-adv-x="423" d="M414 0 L414 148 L225 148 L225 708 L63 708 L63 0 L414 0 Z M436 708 L319 708 L269 521 L374 521 L436 708 Z " />
<glyph glyph-name="lcaron" unicode="&#x13e;" horiz-adv-x="407" d="M222 0 L222 756 L62 756 L62 0 L222 0 Z M415 708 L298 708 L248 521 L353 521 L415 708 Z " />
<glyph glyph-name="Ldot" unicode="&#x13f;" horiz-adv-x="438" d="M414 0 L414 148 L225 148 L225 708 L63 708 L63 0 L414 0 Z M442 445 C442 495 407 537 356 537 C305 537 270 495 270 445 C270 394 305 354 356 354 C406 354 442 394 442 445 L442 445 Z " />
<glyph glyph-name="ldot" unicode="&#x140;" horiz-adv-x="425" d="M222 0 L222 756 L62 756 L62 0 L222 0 Z M429 475 C429 525 394 567 343 567 C292 567 257 525 257 475 C257 424 292 384 343 384 C393 384 429 424 429 475 L429 475 Z " />
<glyph glyph-name="Lslash" unicode="&#x141;" horiz-adv-x="424" d="M414 0 L414 148 L225 148 L225 317 L343 426 L343 567 L225 458 L225 708 L63 708 L63 341 L19 300 L19 159 L63 200 L63 0 L414 0 Z " />
<glyph glyph-name="lslash" unicode="&#x142;" horiz-adv-x="286" d="M267 423 L267 555 L222 514 L222 756 L62 756 L62 402 L21 366 L21 234 L62 270 L62 0 L222 0 L222 383 L267 423 Z " />
<glyph glyph-name="Nacute" unicode="&#x143;" horiz-adv-x="603" d="M540 0 L540 708 L402 708 L405 271 L402 271 L239 708 L63 708 L63 0 L206 0 L202 431 L205 431 L369 0 L540 0 Z M453 908 L323 908 L233 764 L341 764 L453 908 Z " />
<glyph glyph-name="nacute" unicode="&#x144;" horiz-adv-x="540" d="M62 523 L62 0 L219 0 L219 308 C219 365 242 404 280 404 C318 404 327 365 327 321 L327 0 L484 0 L484 320 C484 435 464 542 345 542 C280 542 234 499 217 449 L215 449 L215 523 L62 523 Z M406 723 L276 723 L186 579 L294 579 L406 723 Z " />
<glyph glyph-name="Ncommaaccent" unicode="&#x145;" horiz-adv-x="603" d="M540 0 L540 708 L402 708 L405 271 L402 271 L239 708 L63 708 L63 0 L206 0 L202 431 L205 431 L369 0 L540 0 Z M374 -45 L257 -45 L207 -232 L312 -232 L374 -45 Z " />
<glyph glyph-name="ncommaaccent" unicode="&#x146;" horiz-adv-x="540" d="M62 523 L62 0 L219 0 L219 308 C219 365 242 404 280 404 C318 404 327 365 327 321 L327 0 L484 0 L484 320 C484 435 464 542 345 542 C280 542 234 499 217 449 L215 449 L215 523 L62 523 Z M339 -45 L222 -45 L172 -232 L277 -232 L339 -45 Z " />
<glyph glyph-name="Ncaron" unicode="&#x147;" horiz-adv-x="603" d="M540 0 L540 708 L402 708 L405 271 L402 271 L239 708 L63 708 L63 0 L206 0 L202 431 L205 431 L369 0 L540 0 Z M127 908 L241 764 L360 764 L475 908 L368 908 L302 823 L235 908 L127 908 Z " />
<glyph glyph-name="ncaron" unicode="&#x148;" horiz-adv-x="540" d="M62 523 L62 0 L219 0 L219 308 C219 365 242 404 280 404 C318 404 327 365 327 321 L327 0 L484 0 L484 320 C484 435 464 542 345 542 C280 542 234 499 217 449 L215 449 L215 523 L62 523 Z M93 723 L207 579 L326 579 L441 723 L334 723 L268 638 L201 723 L93 723 Z " />
<glyph glyph-name="napostrophe" unicode="&#x149;" horiz-adv-x="614" d="M136 523 L136 0 L293 0 L293 308 C293 365 316 404 354 404 C392 404 401 365 401 321 L401 0 L558 0 L558 320 C558 435 538 542 419 542 C354 542 308 499 291 449 L289 449 L289 523 L136 523 Z M153 708 L36 708 L-14 521 L91 521 L153 708 Z " />
<glyph glyph-name="Omacron" unicode="&#x14c;" horiz-adv-x="612" d="M578 356 C578 580 474 727 306 727 C136 727 34 580 34 356 C34 131 138 -19 306 -19 C474 -19 578 131 578 356 L578 356 Z M414 356 C414 233 378 138 306 138 C233 138 198 233 198 356 C198 479 233 572 306 572 C378 572 414 479 414 356 L414 356 Z M453 798 L453 875 L159 875 L159 798 L453 798 Z " />
<glyph glyph-name="omacron" unicode="&#x14d;" horiz-adv-x="495" d="M465 261 C465 425 384 542 248 542 C112 542 30 425 30 261 C30 98 113 -19 248 -19 C384 -19 465 98 465 261 L465 261 Z M315 262 C315 183 295 120 248 120 C202 120 182 183 182 262 C182 341 202 404 248 404 C295 404 315 341 315 262 L315 262 Z M395 613 L395 690 L101 690 L101 613 L395 613 Z " />
<glyph glyph-name="Obreve" unicode="&#x14e;" horiz-adv-x="612" d="M578 356 C578 580 474 727 306 727 C136 727 34 580 34 356 C34 131 138 -19 306 -19 C474 -19 578 131 578 356 L578 356 Z M414 356 C414 233 378 138 306 138 C233 138 198 233 198 356 C198 479 233 572 306 572 C378 572 414 479 414 356 L414 356 Z M454 905 L376 905 C370 862 337 849 304 849 C274 849 239 863 234 905 L156 905 C163 800 232 766 304 766 C379 766 446 800 454 905 L454 905 Z " />
<glyph glyph-name="obreve" unicode="&#x14f;" horiz-adv-x="495" d="M465 261 C465 425 384 542 248 542 C112 542 30 425 30 261 C30 98 113 -19 248 -19 C384 -19 465 98 465 261 L465 261 Z M315 262 C315 183 295 120 248 120 C202 120 182 183 182 262 C182 341 202 404 248 404 C295 404 315 341 315 262 L315 262 Z M397 720 L319 720 C313 677 280 664 247 664 C217 664 182 678 177 720 L99 720 C106 615 175 581 247 581 C322 581 389 615 397 720 L397 720 Z " />
<glyph glyph-name="Ohungarumlaut" unicode="&#x150;" horiz-adv-x="612" d="M578 356 C578 580 474 727 306 727 C136 727 34 580 34 356 C34 131 138 -19 306 -19 C474 -19 578 131 578 356 L578 356 Z M414 356 C414 233 378 138 306 138 C233 138 198 233 198 356 C198 479 233 572 306 572 C378 572 414 479 414 356 L414 356 Z M393 908 L268 908 L178 764 L281 764 L393 908 Z M546 908 L421 908 L331 764 L434 764 L546 908 Z " />
<glyph glyph-name="ohungarumlaut" unicode="&#x151;" horiz-adv-x="495" d="M465 261 C465 425 384 542 248 542 C112 542 30 425 30 261 C30 98 113 -19 248 -19 C384 -19 465 98 465 261 L465 261 Z M315 262 C315 183 295 120 248 120 C202 120 182 183 182 262 C182 341 202 404 248 404 C295 404 315 341 315 262 L315 262 Z M337 723 L212 723 L122 579 L225 579 L337 723 Z M490 723 L365 723 L275 579 L378 579 L490 723 Z " />
<glyph glyph-name="OE" unicode="&#x152;" horiz-adv-x="726" d="M695 0 L695 143 L499 143 L499 296 L668 296 L668 428 L499 428 L499 567 L684 567 L684 708 L328 708 C125 708 34 570 34 356 C34 138 125 0 328 0 L695 0 Z M349 140 L326 140 C249 140 195 214 195 356 C195 493 249 568 326 568 L349 568 L349 140 Z " />
<glyph glyph-name="oe" unicode="&#x153;" horiz-adv-x="747" d="M525 542 C458 542 411 510 387 459 C363 514 308 542 246 542 C110 542 28 425 28 261 C28 98 111 -19 246 -19 C306 -19 361 10 386 63 C413 11 465 -19 523 -19 C615 -19 676 30 711 107 L596 172 C584 142 564 115 529 115 C486 115 459 164 458 222 L720 222 L720 266 C720 414 668 542 525 542 L525 542 Z M314 262 C314 183 294 120 247 120 C201 120 181 183 181 262 C181 341 201 404 247 404 C294 404 314 341 314 262 L314 262 Z M576 324 L457 324 C458 365 478 422 520 422 C560 422 576 380 576 324 L576 324 Z " />
<glyph glyph-name="Racute" unicode="&#x154;" horiz-adv-x="541" d="M528 0 L407 316 C453 332 507 390 507 495 C507 636 427 708 290 708 L63 708 L63 0 L217 0 L217 282 L264 282 L359 0 L528 0 Z M349 486 C349 422 309 395 264 395 L217 395 L217 574 L267 574 C304 574 349 558 349 486 L349 486 Z M412 908 L282 908 L192 764 L300 764 L412 908 Z " />
<glyph glyph-name="racute" unicode="&#x155;" horiz-adv-x="344" d="M62 0 L220 0 L220 259 C220 324 250 384 302 384 C317 384 326 382 336 379 L346 536 C337 539 332 539 321 539 C270 539 234 503 216 435 L215 435 L215 523 L62 523 L62 0 L62 0 Z M330 723 L200 723 L110 579 L218 579 L330 723 Z " />
<glyph glyph-name="Rcommaaccent" unicode="&#x156;" horiz-adv-x="541" d="M528 0 L407 316 C453 332 507 390 507 495 C507 636 427 708 290 708 L63 708 L63 0 L217 0 L217 282 L264 282 L359 0 L528 0 Z M349 486 C349 422 309 395 264 395 L217 395 L217 574 L267 574 C304 574 349 558 349 486 L349 486 Z M350 -45 L233 -45 L183 -232 L288 -232 L350 -45 Z " />
<glyph glyph-name="rcommaaccent" unicode="&#x157;" horiz-adv-x="344" d="M62 0 L220 0 L220 259 C220 324 250 384 302 384 C317 384 326 382 336 379 L346 536 C337 539 332 539 321 539 C270 539 234 503 216 435 L215 435 L215 523 L62 523 L62 0 L62 0 Z M209 -45 L92 -45 L42 -232 L147 -232 L209 -45 Z " />
<glyph glyph-name="Rcaron" unicode="&#x158;" horiz-adv-x="541" d="M528 0 L407 316 C453 332 507 390 507 495 C507 636 427 708 290 708 L63 708 L63 0 L217 0 L217 282 L264 282 L359 0 L528 0 Z M349 486 C349 422 309 395 264 395 L217 395 L217 574 L267 574 C304 574 349 558 349 486 L349 486 Z M94 908 L208 764 L327 764 L442 908 L335 908 L269 823 L202 908 L94 908 Z " />
<glyph glyph-name="rcaron" unicode="&#x159;" horiz-adv-x="344" d="M62 0 L220 0 L220 259 C220 324 250 384 302 384 C317 384 326 382 336 379 L346 536 C337 539 332 539 321 539 C270 539 234 503 216 435 L215 435 L215 523 L62 523 L62 0 L62 0 Z M26 723 L140 579 L259 579 L374 723 L267 723 L201 638 L134 723 L26 723 Z " />
<glyph glyph-name="Sacute" unicode="&#x15a;" horiz-adv-x="461" d="M439 656 C398 700 335 727 258 727 C155 727 40 660 40 503 C40 385 104 337 181 299 C242 269 275 246 275 200 C275 155 245 128 206 128 C165 128 122 149 92 181 L10 61 C52 18 126 -19 211 -19 C327 -19 431 58 431 211 C431 334 346 385 281 417 C224 446 194 465 194 509 C194 561 228 582 264 582 C298 582 332 566 356 538 L439 656 Z M386 908 L256 908 L166 764 L274 764 L386 908 Z " />
<glyph glyph-name="sacute" unicode="&#x15b;" horiz-adv-x="400" d="M383 475 C338 515 277 539 213 539 C129 539 35 484 35 366 C35 268 96 232 152 214 C205 197 232 186 232 153 C232 125 214 106 185 106 C147 106 114 127 86 156 L8 56 C54 11 123 -16 192 -16 C273 -16 373 34 373 162 C373 259 307 301 245 320 C192 336 176 345 176 371 C176 399 197 416 222 416 C255 416 283 400 307 376 L383 475 Z M361 723 L231 723 L141 579 L249 579 L361 723 Z " />
<glyph glyph-name="Scircumflex" unicode="&#x15c;" horiz-adv-x="461" d="M439 656 C398 700 335 727 258 727 C155 727 40 660 40 503 C40 385 104 337 181 299 C242 269 275 246 275 200 C275 155 245 128 206 128 C165 128 122 149 92 181 L10 61 C52 18 126 -19 211 -19 C327 -19 431 58 431 211 C431 334 346 385 281 417 C224 446 194 465 194 509 C194 561 228 582 264 582 C298 582 332 566 356 538 L439 656 Z M432 764 L318 908 L199 908 L84 764 L191 764 L257 849 L324 764 L432 764 Z " />
<glyph glyph-name="scircumflex" unicode="&#x15d;" horiz-adv-x="400" d="M383 475 C338 515 277 539 213 539 C129 539 35 484 35 366 C35 268 96 232 152 214 C205 197 232 186 232 153 C232 125 214 106 185 106 C147 106 114 127 86 156 L8 56 C54 11 123 -16 192 -16 C273 -16 373 34 373 162 C373 259 307 301 245 320 C192 336 176 345 176 371 C176 399 197 416 222 416 C255 416 283 400 307 376 L383 475 Z M388 579 L274 723 L155 723 L40 579 L147 579 L213 664 L280 579 L388 579 Z " />
<glyph glyph-name="Scedilla" unicode="&#x15e;" horiz-adv-x="461" d="M439 656 C398 700 335 727 258 727 C155 727 40 660 40 503 C40 385 104 337 181 299 C242 269 275 246 275 200 C275 155 245 128 206 128 C165 128 122 149 92 181 L10 61 C48 22 112 -12 187 -18 L135 -91 L166 -119 C178 -114 197 -110 210 -110 C229 -110 252 -116 252 -137 C252 -162 227 -169 204 -169 C182 -169 149 -163 127 -152 L103 -214 C133 -228 179 -236 213 -236 C267 -236 349 -217 349 -139 C349 -75 299 -59 260 -59 C252 -59 245 -59 237 -61 L276 -10 C363 13 431 87 431 211 C431 334 346 385 281 417 C224 446 194 465 194 509 C194 561 228 582 264 582 C298 582 332 566 356 538 L439 656 Z " />
<glyph glyph-name="scedilla" unicode="&#x15f;" horiz-adv-x="400" d="M383 475 C338 515 277 539 213 539 C129 539 35 484 35 366 C35 268 96 232 152 214 C205 197 232 186 232 153 C232 125 214 106 185 106 C147 106 114 127 86 156 L8 56 C48 17 105 -9 164 -15 L110 -91 L141 -119 C153 -114 172 -110 185 -110 C204 -110 227 -116 227 -137 C227 -162 202 -169 179 -169 C157 -169 124 -163 102 -152 L78 -214 C108 -228 154 -236 188 -236 C242 -236 324 -217 324 -139 C324 -75 274 -59 235 -59 C227 -59 220 -59 212 -61 L254 -6 C317 14 373 66 373 162 C373 259 307 301 245 320 C192 336 176 345 176 371 C176 399 197 416 222 416 C255 416 283 400 307 376 L383 475 Z " />
<glyph glyph-name="Scaron" unicode="&#x160;" horiz-adv-x="461" d="M439 656 C398 700 335 727 258 727 C155 727 40 660 40 503 C40 385 104 337 181 299 C242 269 275 246 275 200 C275 155 245 128 206 128 C165 128 122 149 92 181 L10 61 C52 18 126 -19 211 -19 C327 -19 431 58 431 211 C431 334 346 385 281 417 C224 446 194 465 194 509 C194 561 228 582 264 582 C298 582 332 566 356 538 L439 656 Z M82 908 L196 764 L315 764 L430 908 L323 908 L257 823 L190 908 L82 908 Z " />
<glyph glyph-name="scaron" unicode="&#x161;" horiz-adv-x="400" d="M383 475 C338 515 277 539 213 539 C129 539 35 484 35 366 C35 268 96 232 152 214 C205 197 232 186 232 153 C232 125 214 106 185 106 C147 106 114 127 86 156 L8 56 C54 11 123 -16 192 -16 C273 -16 373 34 373 162 C373 259 307 301 245 320 C192 336 176 345 176 371 C176 399 197 416 222 416 C255 416 283 400 307 376 L383 475 Z M41 723 L155 579 L274 579 L389 723 L282 723 L216 638 L149 723 L41 723 Z " />
<glyph glyph-name="Tcommaaccent" unicode="&#x162;" horiz-adv-x="415" d="M416 572 L416 708 L-1 708 L-1 572 L129 572 L129 0 L286 0 L286 572 L416 572 Z M275 -45 L158 -45 L108 -232 L213 -232 L275 -45 Z " />
<glyph glyph-name="tcommaaccent" unicode="&#x163;" horiz-adv-x="315" d="M305 4 L305 127 C297 123 283 120 270 120 C235 120 220 142 220 193 L220 401 L310 401 L310 523 L220 523 L220 649 L68 649 L68 523 L6 523 L6 401 L69 401 L69 157 C69 45 115 -13 220 -13 C252 -13 288 -5 305 4 L305 4 Z M252 -45 L135 -45 L85 -232 L190 -232 L252 -45 Z " />
<glyph glyph-name="Tcaron" unicode="&#x164;" horiz-adv-x="415" d="M416 572 L416 708 L-1 708 L-1 572 L129 572 L129 0 L286 0 L286 572 L416 572 Z M34 908 L148 764 L267 764 L382 908 L275 908 L209 823 L142 908 L34 908 Z " />
<glyph glyph-name="tcaron" unicode="&#x165;" horiz-adv-x="400" d="M305 4 L305 127 C297 123 283 120 270 120 C235 120 220 142 220 193 L220 401 L310 401 L310 523 L220 523 L220 649 L68 649 L68 523 L6 523 L6 401 L69 401 L69 157 C69 45 115 -13 220 -13 C252 -13 288 -5 305 4 L305 4 Z M424 741 L307 741 L257 554 L362 554 L424 741 Z " />
<glyph glyph-name="Tbar" unicode="&#x166;" horiz-adv-x="415" d="M353 393 L353 470 L286 470 L286 572 L416 572 L416 708 L-1 708 L-1 572 L129 572 L129 470 L59 470 L59 393 L129 393 L129 0 L286 0 L286 393 L353 393 Z " />
<glyph glyph-name="tbar" unicode="&#x167;" horiz-adv-x="315" d="M281 255 L281 332 L220 332 L220 401 L310 401 L310 523 L220 523 L220 649 L68 649 L68 523 L6 523 L6 401 L69 401 L69 332 L21 332 L21 255 L69 255 L69 157 C69 45 115 -13 220 -13 C252 -13 288 -5 305 4 L304 127 C296 123 283 120 270 120 C235 120 220 142 220 193 L220 255 L281 255 Z " />
<glyph glyph-name="Utilde" unicode="&#x168;" horiz-adv-x="581" d="M530 262 L530 708 L370 708 L370 276 C370 196 354 135 291 135 C228 135 212 196 212 276 L212 708 L51 708 L51 262 C51 105 115 -19 288 -19 C461 -19 530 106 530 262 L530 262 Z M444 896 L387 896 C383 864 375 851 355 851 C338 851 327 856 298 873 C272 889 253 897 228 897 C175 897 143 844 139 771 L197 771 C200 799 211 815 230 815 C247 815 257 811 286 793 C312 777 332 770 355 770 C408 770 441 819 444 896 L444 896 Z " />
<glyph glyph-name="utilde" unicode="&#x169;" horiz-adv-x="540" d="M478 0 L478 523 L321 523 L321 216 C321 159 298 120 260 120 C222 120 213 159 213 203 L213 523 L56 523 L56 203 C56 88 76 -19 195 -19 C260 -19 306 24 323 74 L325 74 L325 0 L478 0 Z M420 711 L363 711 C359 679 351 666 331 666 C314 666 303 671 274 688 C248 704 229 712 204 712 C178 712 156 699 141 676 C126 654 117 623 115 586 L173 586 C176 614 187 630 206 630 C223 630 233 626 262 608 C288 592 308 585 331 585 C384 585 417 634 420 711 L420 711 Z " />
<glyph glyph-name="Umacron" unicode="&#x16a;" horiz-adv-x="581" d="M530 262 L530 708 L370 708 L370 276 C370 196 354 135 291 135 C228 135 212 196 212 276 L212 708 L51 708 L51 262 C51 105 115 -19 288 -19 C461 -19 530 106 530 262 L530 262 Z M439 798 L439 875 L145 875 L145 798 L439 798 Z " />
<glyph glyph-name="umacron" unicode="&#x16b;" horiz-adv-x="540" d="M478 0 L478 523 L321 523 L321 216 C321 159 298 120 260 120 C222 120 213 159 213 203 L213 523 L56 523 L56 203 C56 88 76 -19 195 -19 C260 -19 306 24 323 74 L325 74 L325 0 L478 0 Z M414 613 L414 690 L120 690 L120 613 L414 613 Z " />
<glyph glyph-name="Ubreve" unicode="&#x16c;" horiz-adv-x="581" d="M530 262 L530 708 L370 708 L370 276 C370 196 354 135 291 135 C228 135 212 196 212 276 L212 708 L51 708 L51 262 C51 105 115 -19 288 -19 C461 -19 530 106 530 262 L530 262 Z M439 905 L361 905 C355 862 322 849 289 849 C259 849 224 863 219 905 L141 905 C148 800 217 766 289 766 C364 766 431 800 439 905 L439 905 Z " />
<glyph glyph-name="ubreve" unicode="&#x16d;" horiz-adv-x="540" d="M478 0 L478 523 L321 523 L321 216 C321 159 298 120 260 120 C222 120 213 159 213 203 L213 523 L56 523 L56 203 C56 88 76 -19 195 -19 C260 -19 306 24 323 74 L325 74 L325 0 L478 0 Z M416 720 L338 720 C332 677 299 664 266 664 C236 664 201 678 196 720 L118 720 C125 615 194 581 266 581 C341 581 408 615 416 720 L416 720 Z " />
<glyph glyph-name="Uring" unicode="&#x16e;" horiz-adv-x="581" d="M530 262 L530 708 L370 708 L370 276 C370 196 354 135 291 135 C228 135 212 196 212 276 L212 708 L51 708 L51 262 C51 105 115 -19 288 -19 C461 -19 530 106 530 262 L530 262 Z M393 855 C393 917 352 964 291 964 C230 964 191 917 191 855 C191 793 230 746 291 746 C352 746 393 793 393 855 L393 855 Z M345 855 C345 820 326 790 291 790 C256 790 239 820 239 855 C239 890 256 920 291 920 C326 920 345 890 345 855 L345 855 Z " />
<glyph glyph-name="uring" unicode="&#x16f;" horiz-adv-x="540" d="M478 0 L478 523 L321 523 L321 216 C321 159 298 120 260 120 C222 120 213 159 213 203 L213 523 L56 523 L56 203 C56 88 76 -19 195 -19 C260 -19 306 24 323 74 L325 74 L325 0 L478 0 Z M369 670 C369 732 328 779 267 779 C206 779 167 732 167 670 C167 608 206 561 267 561 C328 561 369 608 369 670 L369 670 Z M321 670 C321 635 302 605 267 605 C232 605 215 635 215 670 C215 705 232 735 267 735 C302 735 321 705 321 670 L321 670 Z " />
<glyph glyph-name="Uhungarumlaut" unicode="&#x170;" horiz-adv-x="581" d="M530 262 L530 708 L370 708 L370 276 C370 196 354 135 291 135 C228 135 212 196 212 276 L212 708 L51 708 L51 262 C51 105 115 -19 288 -19 C461 -19 530 106 530 262 L530 262 Z M374 908 L249 908 L159 764 L262 764 L374 908 Z M527 908 L402 908 L312 764 L415 764 L527 908 Z " />
<glyph glyph-name="uhungarumlaut" unicode="&#x171;" horiz-adv-x="540" d="M478 0 L478 523 L321 523 L321 216 C321 159 298 120 260 120 C222 120 213 159 213 203 L213 523 L56 523 L56 203 C56 88 76 -19 195 -19 C260 -19 306 24 323 74 L325 74 L325 0 L478 0 Z M352 723 L227 723 L137 579 L240 579 L352 723 Z M505 723 L380 723 L290 579 L393 579 L505 723 Z " />
<glyph glyph-name="Uogonek" unicode="&#x172;" horiz-adv-x="581" d="M397 -196 L366 -130 C349 -144 332 -151 312 -151 C294 -151 283 -141 283 -120 C283 -91 306 -62 371 -6 C483 27 530 134 530 262 L530 708 L370 708 L370 276 C370 196 354 135 291 135 C228 135 212 196 212 276 L212 708 L51 708 L51 262 C51 113 108 -5 261 -17 C221 -51 182 -93 182 -145 C182 -214 239 -236 286 -236 C327 -236 368 -218 397 -196 L397 -196 Z " />
<glyph glyph-name="uogonek" unicode="&#x173;" horiz-adv-x="541" d="M478 0 L478 523 L321 523 L321 216 C321 159 298 120 260 120 C222 120 213 159 213 203 L213 523 L56 523 L56 203 C56 88 76 -19 195 -19 C260 -19 306 24 323 74 L325 74 L325 0 L327 0 C280 -38 227 -84 227 -145 C227 -214 284 -236 331 -236 C372 -236 413 -218 442 -196 L411 -130 C394 -144 377 -151 357 -151 C339 -151 328 -141 328 -120 C328 -90 353 -60 424 0 L478 0 Z " />
<glyph glyph-name="Wcircumflex" unicode="&#x174;" horiz-adv-x="799" d="M791 708 L636 708 L564 215 L561 215 L481 708 L326 708 L249 215 L245 215 L172 708 L9 708 L142 0 L312 0 L398 475 L400 475 L487 0 L657 0 L791 708 Z M577 764 L463 908 L344 908 L229 764 L336 764 L402 849 L469 764 L577 764 Z " />
<glyph glyph-name="wcircumflex" unicode="&#x175;" horiz-adv-x="692" d="M686 523 L528 523 L477 196 L475 196 L413 523 L279 523 L219 196 L217 196 L166 523 L6 523 L122 0 L276 0 L341 300 L343 300 L409 0 L568 0 L686 523 Z M520 579 L406 723 L287 723 L172 579 L279 579 L345 664 L412 579 L520 579 Z " />
<glyph glyph-name="Ycircumflex" unicode="&#x176;" horiz-adv-x="492" d="M504 708 L334 708 L248 415 L246 415 L161 708 L-12 708 L167 255 L167 0 L324 0 L324 255 L504 708 Z M421 764 L307 908 L188 908 L73 764 L180 764 L246 849 L313 764 L421 764 Z " />
<glyph glyph-name="ycircumflex" unicode="&#x177;" horiz-adv-x="476" d="M473 523 L314 523 L245 174 L243 174 L168 523 L3 523 L159 -13 L151 -42 C143 -71 128 -96 88 -96 C76 -96 58 -93 46 -88 L25 -230 C49 -235 83 -240 113 -240 C250 -240 292 -137 325 -18 L473 523 Z M418 579 L304 723 L185 723 L70 579 L177 579 L243 664 L310 579 L418 579 Z " />
<glyph glyph-name="Ydieresis" unicode="&#x178;" horiz-adv-x="492" d="M504 708 L334 708 L248 415 L246 415 L161 708 L-12 708 L167 255 L167 0 L324 0 L324 255 L504 708 Z M230 851 C230 896 199 933 156 933 C112 933 82 896 82 851 C82 805 112 769 156 769 C198 769 230 805 230 851 L230 851 Z M414 851 C414 896 383 933 340 933 C296 933 266 896 266 851 C266 805 296 769 340 769 C382 769 414 805 414 851 L414 851 Z " />
<glyph glyph-name="Zacute" unicode="&#x179;" horiz-adv-x="458" d="M424 0 L424 145 L208 145 L424 581 L424 708 L42 708 L42 567 L241 567 L24 130 L24 0 L424 0 Z M377 908 L247 908 L157 764 L265 764 L377 908 Z " />
<glyph glyph-name="zacute" unicode="&#x17a;" horiz-adv-x="399" d="M373 0 L373 132 L195 132 L371 399 L371 523 L37 523 L37 391 L202 391 L27 129 L27 0 L373 0 Z M357 723 L227 723 L137 579 L245 579 L357 723 Z " />
<glyph glyph-name="Zdotaccent" unicode="&#x17b;" horiz-adv-x="458" d="M424 0 L424 145 L208 145 L424 581 L424 708 L42 708 L42 567 L241 567 L24 130 L24 0 L424 0 Z M320 850 C320 900 285 942 234 942 C183 942 148 900 148 850 C148 799 183 759 234 759 C284 759 320 799 320 850 L320 850 Z " />
<glyph glyph-name="zdotaccent" unicode="&#x17c;" horiz-adv-x="399" d="M373 0 L373 132 L195 132 L371 399 L371 523 L37 523 L37 391 L202 391 L27 129 L27 0 L373 0 Z M291 665 C291 715 256 757 205 757 C154 757 119 715 119 665 C119 614 154 574 205 574 C255 574 291 614 291 665 L291 665 Z " />
<glyph glyph-name="Zcaron" unicode="&#x17d;" horiz-adv-x="458" d="M424 0 L424 145 L208 145 L424 581 L424 708 L42 708 L42 567 L241 567 L24 130 L24 0 L424 0 Z M63 908 L177 764 L296 764 L411 908 L304 908 L238 823 L171 908 L63 908 Z " />
<glyph glyph-name="zcaron" unicode="&#x17e;" horiz-adv-x="399" d="M373 0 L373 132 L195 132 L371 399 L371 523 L37 523 L37 391 L202 391 L27 129 L27 0 L373 0 Z M33 723 L147 579 L266 579 L381 723 L274 723 L208 638 L141 723 L33 723 Z " />
<glyph glyph-name="florin" unicode="&#x192;" horiz-adv-x="529" d="M507 699 C481 714 440 726 392 726 C253 726 210 630 190 505 L179 440 L76 440 L76 326 L167 326 L126 79 C118 29 106 -4 69 -4 C58 -4 48 -2 40 3 L10 -127 C33 -136 68 -140 99 -140 C206 -140 256 -69 274 32 L324 326 L444 326 L444 440 L342 440 L355 513 C364 565 382 587 418 587 C433 587 449 582 466 573 L507 699 Z " />
<glyph glyph-name="Scommaaccent" unicode="&#x218;" horiz-adv-x="461" d="M439 656 C398 700 335 727 258 727 C155 727 40 660 40 503 C40 385 104 337 181 299 C242 269 275 246 275 200 C275 155 245 128 206 128 C165 128 122 149 92 181 L10 61 C52 18 126 -19 211 -19 C327 -19 431 58 431 211 C431 334 346 385 281 417 C224 446 194 465 194 509 C194 561 228 582 264 582 C298 582 332 566 356 538 L439 656 Z M280 -45 L163 -45 L113 -232 L218 -232 L280 -45 Z " />
<glyph glyph-name="scommaaccent" unicode="&#x219;" horiz-adv-x="400" d="M383 475 C338 515 277 539 213 539 C129 539 35 484 35 366 C35 268 96 232 152 214 C205 197 232 186 232 153 C232 125 214 106 185 106 C147 106 114 127 86 156 L8 56 C54 11 123 -16 192 -16 C273 -16 373 34 373 162 C373 259 307 301 245 320 C192 336 176 345 176 371 C176 399 197 416 222 416 C255 416 283 400 307 376 L383 475 Z M257 -45 L140 -45 L90 -232 L195 -232 L257 -45 Z " />
<glyph glyph-name="uni021A" unicode="&#x21a;" horiz-adv-x="415" d="M416 572 L416 708 L-1 708 L-1 572 L129 572 L129 0 L286 0 L286 572 L416 572 Z M275 -45 L158 -45 L108 -232 L213 -232 L275 -45 Z " />
<glyph glyph-name="uni021B" unicode="&#x21b;" horiz-adv-x="315" d="M305 4 L305 127 C297 123 283 120 270 120 C235 120 220 142 220 193 L220 401 L310 401 L310 523 L220 523 L220 649 L68 649 L68 523 L6 523 L6 401 L69 401 L69 157 C69 45 115 -13 220 -13 C252 -13 288 -5 305 4 L305 4 Z M258 -45 L141 -45 L91 -232 L196 -232 L258 -45 Z " />
<glyph glyph-name="circumflex" unicode="&#x2c6;" horiz-adv-x="274" d="M311 579 L197 723 L78 723 L-37 579 L70 579 L136 664 L203 579 L311 579 Z " />
<glyph glyph-name="caron" unicode="&#x2c7;" horiz-adv-x="274" d="M-37 723 L77 579 L196 579 L311 723 L204 723 L138 638 L71 723 L-37 723 Z " />
<glyph glyph-name="uni02C9" unicode="&#x2c9;" horiz-adv-x="274" d="M284 798 L284 875 L-10 875 L-10 798 L284 798 Z " />
<glyph glyph-name="breve" unicode="&#x2d8;" horiz-adv-x="274" d="M286 720 L208 720 C202 677 169 664 136 664 C106 664 71 678 66 720 L-12 720 C-5 615 64 581 136 581 C211 581 278 615 286 720 L286 720 Z " />
<glyph glyph-name="dotaccent" unicode="&#x2d9;" horiz-adv-x="274" d="M223 665 C223 715 188 757 137 757 C86 757 51 715 51 665 C51 614 86 574 137 574 C187 574 223 614 223 665 L223 665 Z " />
<glyph glyph-name="ring" unicode="&#x2da;" horiz-adv-x="274" d="M239 670 C239 732 198 779 137 779 C76 779 37 732 37 670 C37 608 76 561 137 561 C198 561 239 608 239 670 L239 670 Z M191 670 C191 635 172 605 137 605 C102 605 85 635 85 670 C85 705 102 735 137 735 C172 735 191 705 191 670 L191 670 Z " />
<glyph glyph-name="ogonek" unicode="&#x2db;" horiz-adv-x="274" d="M236 -196 L205 -130 C188 -144 171 -151 151 -151 C133 -151 122 -141 122 -120 C122 -90 147 -60 218 0 L121 0 C74 -38 21 -84 21 -145 C21 -214 78 -236 125 -236 C166 -236 207 -218 236 -196 L236 -196 Z " />
<glyph glyph-name="tilde" unicode="&#x2dc;" horiz-adv-x="274" d="M290 711 L233 711 C229 679 221 666 201 666 C184 666 173 671 144 688 C118 704 99 712 74 712 C48 712 26 699 11 676 C-4 654 -13 623 -15 586 L43 586 C46 614 57 630 76 630 C93 630 103 626 132 608 C158 592 178 585 201 585 C254 585 287 634 290 711 L290 711 Z " />
<glyph glyph-name="hungarumlaut" unicode="&#x2dd;" horiz-adv-x="274" d="M184 723 L59 723 L-31 579 L72 579 L184 723 Z M337 723 L212 723 L122 579 L225 579 L337 723 Z " />
<glyph glyph-name="uni0394" unicode="&#x394;" horiz-adv-x="710" d="M701 0 L417 708 L277 708 L9 0 L701 0 Z M482 145 L214 145 L344 503 L482 145 Z " />
<glyph glyph-name="uni03A9" unicode="&#x3a9;" horiz-adv-x="771" d="M720 0 L720 144 L553 144 L553 155 C662 187 720 286 720 407 C720 597 569 721 385 721 C202 721 51 594 51 405 C51 345 67 291 96 247 C124 204 166 171 218 155 L218 144 L51 144 L51 0 L342 0 L342 219 C266 242 212 312 212 404 C212 513 295 580 387 580 C477 580 560 512 560 405 C560 360 549 319 527 286 C505 253 472 229 429 219 L429 0 L720 0 Z " />
<glyph glyph-name="uni03BC" unicode="&#x3bc;" horiz-adv-x="666" d="M89 498 L89 -226 L251 -226 L251 13 C265 0 290 -7 314 -7 C373 -7 405 22 425 57 L426 57 L426 0 L581 0 L581 498 L419 498 L419 237 C419 177 395 126 328 126 C261 126 251 205 251 250 L251 498 L89 498 Z " />
<glyph glyph-name="pi" unicode="&#x3c0;" horiz-adv-x="666" d="M627 18 L627 129 C609 121 594 117 582 117 C554 117 547 139 547 160 L547 361 L625 361 L625 498 L34 498 L34 361 L103 361 L103 0 L269 0 L269 361 L384 361 L384 131 C384 54 410 -7 508 -7 C553 -7 591 0 627 18 L627 18 Z " />
<glyph glyph-name="endash" unicode="&#x2013;" horiz-adv-x="360" d="M336 226 L336 328 L24 328 L24 226 L336 226 Z " />
<glyph glyph-name="emdash" unicode="&#x2014;" horiz-adv-x="460" d="M436 226 L436 328 L24 328 L24 226 L436 226 Z " />
<glyph glyph-name="quoteleft" unicode="&#x2018;" horiz-adv-x="229" d="M198 708 L94 708 L31 450 L148 450 L198 708 Z " />
<glyph glyph-name="quoteright" unicode="&#x2019;" horiz-adv-x="229" d="M31 450 L135 450 L198 708 L81 708 L31 450 Z " />
<glyph glyph-name="quotesinglbase" unicode="&#x201a;" horiz-adv-x="229" d="M198 143 L81 143 L31 -115 L136 -115 L198 143 Z " />
<glyph glyph-name="quotedblleft" unicode="&#x201c;" horiz-adv-x="398" d="M367 708 L262 708 L200 450 L317 450 L367 708 Z M198 708 L94 708 L31 450 L148 450 L198 708 Z " />
<glyph glyph-name="quotedblright" unicode="&#x201d;" horiz-adv-x="397" d="M31 450 L136 450 L198 708 L81 708 L31 450 Z M200 450 L304 450 L367 708 L250 708 L200 450 Z " />
<glyph glyph-name="quotedblbase" unicode="&#x201e;" horiz-adv-x="397" d="M31 -115 L136 -115 L198 143 L81 143 L31 -115 Z M200 -115 L304 -115 L367 143 L250 143 L200 -115 Z " />
<glyph glyph-name="dagger" unicode="&#x2020;" horiz-adv-x="443" d="M424 377 L424 508 L289 508 L289 708 L155 708 L155 508 L21 508 L21 377 L156 377 L156 -131 L289 -131 L289 377 L424 377 Z " />
<glyph glyph-name="daggerdbl" unicode="&#x2021;" horiz-adv-x="443" d="M424 48 L424 174 L289 174 L289 403 L424 403 L424 529 L289 529 L289 708 L155 708 L155 529 L21 529 L21 403 L156 403 L156 174 L21 174 L21 48 L156 48 L156 -131 L290 -131 L290 48 L424 48 Z " />
<glyph glyph-name="bullet" unicode="&#x2022;" horiz-adv-x="500" d="M427 354 C427 452 348 531 250 531 C152 531 73 452 73 354 C73 256 152 177 250 177 C348 177 427 256 427 354 L427 354 Z " />
<glyph glyph-name="ellipsis" unicode="&#x2026;" horiz-adv-x="900" d="M235 81 C235 130 199 172 150 172 C100 172 65 130 65 81 C65 31 100 -9 150 -9 C199 -9 235 31 235 81 L235 81 Z M835 81 C835 130 799 172 750 172 C700 172 665 130 665 81 C665 31 700 -9 750 -9 C799 -9 835 31 835 81 L835 81 Z M535 81 C535 130 499 172 450 172 C400 172 365 130 365 81 C365 31 400 -9 450 -9 C499 -9 535 31 535 81 L535 81 Z " />
<glyph glyph-name="perthousand" unicode="&#x2030;" horiz-adv-x="966" d="M304 539 C304 643 252 720 166 720 C81 720 29 643 29 539 C29 436 81 360 166 360 C252 360 304 436 304 539 L304 539 Z M212 540 C212 489 197 447 166 447 C136 447 122 489 122 540 C122 593 136 633 166 633 C197 633 212 593 212 540 L212 540 Z M631 167 C631 271 579 348 493 348 C408 348 356 271 356 167 C356 64 408 -12 493 -12 C579 -12 631 64 631 167 L631 167 Z M539 168 C539 117 524 75 493 75 C463 75 449 117 449 168 C449 221 463 261 493 261 C524 261 539 221 539 168 L539 168 Z M939 167 C939 271 887 348 801 348 C716 348 664 271 664 167 C664 64 716 -12 801 -12 C887 -12 939 64 939 167 L939 167 Z M847 168 C847 117 832 75 801 75 C771 75 757 117 757 168 C757 221 771 261 801 261 C832 261 847 221 847 168 L847 168 Z M520 709 L447 738 L145 6 L218 -21 L520 709 Z " />
<glyph glyph-name="guilsinglleft" unicode="&#x2039;" horiz-adv-x="261" d="M225 73 L137 262 L225 451 L145 493 L36 262 L145 31 L225 73 Z " />
<glyph glyph-name="guilsinglright" unicode="&#x203a;" horiz-adv-x="261" d="M36 73 L116 31 L225 262 L116 493 L36 451 L124 262 L36 73 Z " />
<glyph glyph-name="fraction" unicode="&#x2044;" horiz-adv-x="100" d="M229 711 L150 737 L-120 5 L-42 -19 L229 711 Z " />
<glyph glyph-name="Euro" unicode="&#x20ac;" horiz-adv-x="529" d="M475 580 L508 705 C479 717 428 727 385 727 C243 727 140 647 103 488 L49 488 L25 389 L92 389 C91 377 91 364 91 355 C91 345 91 333 92 322 L47 322 L23 223 L101 223 C128 75 225 -19 365 -19 C427 -19 473 -4 493 7 L475 140 C455 129 421 119 384 119 C325 119 274 157 260 223 L402 223 L425 322 L244 322 C243 333 243 345 243 355 C243 365 243 377 245 389 L435 389 L461 488 L267 488 C284 558 330 595 391 595 C420 595 454 589 475 580 L475 580 Z " />
<glyph glyph-name="afii61289" unicode="&#x2113;" horiz-adv-x="500" d="M462 55 L412 132 L410 132 C377 107 346 95 322 95 C293 95 263 112 263 160 L263 264 C395 372 458 465 458 568 C458 659 397 721 301 721 C191 721 113 634 113 522 L113 287 L5 201 L58 120 L60 120 L114 166 L114 136 C114 52 174 -14 284 -14 C350 -14 406 8 462 55 L462 55 Z M336 559 C336 503 316 444 263 389 L263 550 C263 592 279 622 300 622 C322 622 336 593 336 559 L336 559 Z " />
<glyph glyph-name="trademark" unicode="&#x2122;" horiz-adv-x="760" d="M114 296 L215 296 L215 611 L293 611 L293 708 L35 708 L35 611 L114 611 L114 296 Z M330 296 L420 296 L420 557 L422 557 L483 296 L561 296 L624 557 L626 557 L626 296 L719 296 L719 708 L583 708 L526 440 L465 708 L330 708 L330 296 Z " />
<glyph glyph-name="Omega" unicode="&#x2126;" horiz-adv-x="771" d="M720 0 L720 144 L553 144 L553 155 C662 187 720 286 720 407 C720 597 569 721 385 721 C202 721 51 594 51 405 C51 345 67 291 96 247 C124 204 166 171 218 155 L218 144 L51 144 L51 0 L342 0 L342 219 C266 242 212 312 212 404 C212 513 295 580 387 580 C477 580 560 512 560 405 C560 360 549 319 527 286 C505 253 472 229 429 219 L429 0 L720 0 Z " />
<glyph glyph-name="estimated" unicode="&#x212e;" horiz-adv-x="604" d="M561 259 C560 421 456 535 302 535 C145 535 44 414 44 259 C44 105 145 -17 302 -17 C407 -17 469 23 530 118 L495 139 C445 55 385 19 302 19 C244 19 196 39 157 78 L157 259 L561 259 Z M157 295 L157 440 C196 479 244 500 301 500 C357 500 406 480 448 440 L448 295 L157 295 Z " />
<glyph glyph-name="partialdiff" unicode="&#x2202;" horiz-adv-x="666" d="M427 428 C392 447 353 457 309 457 C158 457 69 361 69 229 C69 87 171 -13 316 -13 C545 -13 589 201 589 359 C589 527 522 721 299 721 C218 721 146 690 84 628 L161 516 C209 572 254 582 298 582 C388 582 426 499 427 428 L427 428 Z M420 292 L420 279 C420 202 392 120 319 120 C269 120 235 162 235 222 C235 284 267 328 328 328 C359 328 390 315 420 292 L420 292 Z " />
<glyph glyph-name="Delta" unicode="&#x2206;" horiz-adv-x="710" d="M701 0 L417 708 L277 708 L9 0 L701 0 Z M482 145 L214 145 L344 503 L482 145 Z " />
<glyph glyph-name="product" unicode="&#x220f;" horiz-adv-x="753" d="M695 -214 L695 786 L59 786 L59 -214 L210 -214 L210 653 L543 653 L543 -214 L695 -214 Z " />
<glyph glyph-name="summation" unicode="&#x2211;" horiz-adv-x="666" d="M644 -214 L644 -81 L213 -81 L486 293 L230 653 L632 653 L632 786 L38 786 L38 675 L318 292 L26 -103 L26 -214 L644 -214 Z " />
<glyph glyph-name="minus" unicode="&#x2212;" horiz-adv-x="666" d="M598 242 L598 365 L68 365 L68 242 L598 242 Z " />
<glyph glyph-name="uni2215" unicode="&#x2215;" horiz-adv-x="100" d="M229 711 L150 737 L-120 5 L-42 -19 L229 711 Z " />
<glyph glyph-name="uni2219" unicode="&#x2219;" horiz-adv-x="270" d="M220 269 C220 318 184 360 135 360 C85 360 50 318 50 269 C50 219 85 179 135 179 C184 179 220 219 220 269 L220 269 Z " />
<glyph glyph-name="radical" unicode="&#x221a;" horiz-adv-x="569" d="M579 786 L434 786 L276 16 L164 255 L-11 176 L43 62 L94 86 L239 -214 L365 -214 L579 786 Z " />
<glyph glyph-name="infinity" unicode="&#x221e;" horiz-adv-x="837" d="M792 266 C792 370 724 453 610 453 C524 453 467 400 419 343 C370 400 314 452 227 452 C113 452 45 369 45 265 C45 158 117 76 231 76 C316 76 368 124 419 178 C468 124 527 75 609 75 C725 75 792 161 792 266 L792 266 Z M674 263 C674 224 650 194 610 194 C564 194 524 228 493 262 C522 293 564 334 607 334 C649 334 674 304 674 263 L674 263 Z M344 262 C314 230 272 195 230 195 C189 195 163 222 163 263 C163 301 189 333 227 333 C268 333 313 293 344 262 L344 262 Z " />
<glyph glyph-name="integral" unicode="&#x222b;" horiz-adv-x="633" d="M519 696 C519 762 442 785 396 785 C231 785 226 625 226 507 L226 45 L226 11 C226 -15 229 -42 228 -69 C228 -83 229 -109 216 -116 C195 -109 197 -58 146 -58 C116 -58 91 -77 84 -104 C81 -109 79 -115 79 -122 C79 -190 153 -214 203 -214 C337 -214 365 -105 369 0 C371 37 371 76 371 113 L371 553 C371 581 369 608 369 636 C369 651 368 678 380 689 C402 681 401 629 453 629 C492 629 519 659 519 696 L519 696 Z " />
<glyph glyph-name="approxequal" unicode="&#x2248;" horiz-adv-x="666" d="M580 468 L483 468 C478 431 462 409 433 409 C354 409 270 468 188 468 C78 468 34 376 26 285 L122 285 C128 313 145 340 173 340 C234 340 339 276 419 276 C510 276 569 346 580 468 L580 468 Z M579 247 L482 247 C475 218 460 196 433 196 C351 196 265 257 182 257 C76 257 32 158 24 66 L120 66 C126 102 144 128 172 128 C232 128 339 63 420 63 C531 63 569 161 579 247 L579 247 Z " />
<glyph glyph-name="notequal" unicode="&#x2260;" horiz-adv-x="666" d="M569 110 L569 237 L362 237 L405 321 L569 321 L569 448 L470 448 L517 538 L402 593 L327 448 L52 448 L52 321 L262 321 L219 237 L52 237 L52 110 L154 110 L107 20 L222 -36 L296 110 L569 110 Z " />
<glyph glyph-name="lessequal" unicode="&#x2264;" horiz-adv-x="666" d="M587 18 L587 141 L79 141 L79 18 L587 18 Z M587 154 L587 291 L281 418 L587 549 L587 685 L79 471 L79 368 L587 154 Z " />
<glyph glyph-name="greaterequal" unicode="&#x2265;" horiz-adv-x="666" d="M79 18 L587 18 L587 141 L79 141 L79 18 Z M79 154 L587 368 L587 471 L79 685 L79 549 L385 418 L79 291 L79 154 Z " />
<glyph glyph-name="lozenge" unicode="&#x25ca;" horiz-adv-x="606" d="M546 356 L362 747 L243 747 L61 356 L242 -35 L362 -35 L546 356 Z M405 356 L302 115 L201 356 L302 597 L405 356 Z " />
<glyph glyph-name="uniF8FF" unicode="&#xf8ff;" horiz-adv-x="512" d="M222 117 L222 184 L278 184 L278 117 L222 117 Z M225 234 L223 251 C223 288 227 315 236 332 C245 349 260 369 282 391 C325 432 332 449 332 474 C332 522 297 559 256 559 C215 559 182 532 174 464 L124 472 C133 567 187 609 259 609 C330 609 383 557 383 478 C383 435 371 405 320 358 C295 336 281 319 277 306 C273 293 271 269 271 234 L225 234 Z M462 50 L462 667 L50 667 L50 50 L462 50 Z M512 718 L512 0 L0 0 L0 718 L512 718 Z " />
<glyph glyph-name="fi" unicode="&#xfb01;" horiz-adv-x="575" d="M316 773 C297 778 268 781 250 781 C112 781 68 681 68 567 L68 523 L6 523 L6 401 L68 401 L68 0 L221 0 L221 401 L300 401 L300 523 L220 523 L220 566 C220 611 232 651 276 651 C288 651 299 649 308 646 L316 773 Z M516 0 L516 523 L358 523 L358 0 L516 0 Z M523 665 C523 715 488 757 437 757 C386 757 351 715 351 665 C351 614 386 574 437 574 C487 574 523 614 523 665 L523 665 Z " />
<glyph glyph-name="fl" unicode="&#xfb02;" horiz-adv-x="583" d="M316 773 C297 778 268 781 250 781 C112 781 68 681 68 567 L68 523 L6 523 L6 401 L68 401 L68 0 L221 0 L221 401 L300 401 L300 523 L220 523 L220 566 C220 611 232 651 276 651 C288 651 299 649 308 646 L316 773 Z M521 0 L521 756 L361 756 L361 0 L521 0 Z " />
</font>
</svg>
