<?xml version="1.0" encoding="UTF-8" standalone="no"?>
<!DOCTYPE svg  PUBLIC '-//W3C//DTD SVG 1.1//EN'  'http://www.w3.org/Graphics/SVG/1.1/DTD/svg11.dtd'>
<svg xmlns="http://www.w3.org/2000/svg">
<defs>
<font id="LiberationSerif-Regular" horiz-adv-x="1024">
<font-face underline-position="-273" font-weight="400" descent="-410" panose-1="2 2 6 3 5 4 5 2 3 4" units-per-em="2048" unicode-range="U+0020-2666" bbox="-362 -442 2062 1759" x-height="940" underline-thickness="100" font-family="LiberationSerif" ascent="1638" cap-height="1341"/>
<missing-glyph horiz-adv-x="2048"/>
<glyph glyph-name=".notdef" horiz-adv-x="2048"/>
<glyph glyph-name=".null" horiz-adv-x="0"/>
<glyph glyph-name="nonmarkingreturn" horiz-adv-x="2048"/>
<glyph glyph-name="space" horiz-adv-x="512" unicode=" "/>
<glyph glyph-name="space" horiz-adv-x="512" unicode=" "/>
<glyph glyph-name="exclam" horiz-adv-x="682" unicode="!" d="M231 1341h218l-62 -952h-94zM461 92q0 -25 -9.5 -47t-25.5 -38.5t-38.5 -26t-47.5 -9.5q-26 0 -48 9.5t-38 26t-25.5 38.5t-9.5 47t9.5 47.5t25.5 38.5t38 25.5t48 9.5q25 0 47.5 -9.5t38.5 -25.5t25.5 -38.5t9.5 -47.5z"/>
<glyph glyph-name="quotedbl" horiz-adv-x="836" unicode='&quot;' d="M127 1341h197l-62 -481h-74zM512 1341h197l-62 -481h-74z"/>
<glyph glyph-name="numbersign" d="M334 524h309l57 307h-309zM987 524v-102h-260l-78 -422h-104l78 422h-310l-77 -422h-105l78 422h-172v102h192l58 307h-250v103h268l76 407h104l-75 -407h309l76 407h104l-76 -407h164v-103h-182l-57 -307h239z" unicode="#"/>
<glyph glyph-name="dollar" d="M274 1067q0 -55 16 -93t44 -65.5t65.5 -46.5t81.5 -37v443q-100 -13 -153.5 -66t-53.5 -135zM791 330q0 61 -18 103t-49 72t-72.5 51.5t-88.5 39.5v-530q110 17 169 83t59 181zM481 -20q-56 1 -113.5 7.5t-110 16.5t-96.5 22t-73 25v320h66l34 -191q17 -23 50 -43.5 t73.5 -37t85 -26.5t84.5 -12v566q-46 16 -91 32.5t-87 38t-78 49t-62.5 65.5t-41.5 87.5t-15 114.5q0 73 27 132.5t76 103t118.5 70.5t153.5 34v129h82v-127q81 -3 163 -15.5t144 -27.5v-279h-65l-29 164q-16 15 -40 27.5t-52 22t-59 16t-62 8.5v-477q47 -17 94.5 -34.5 t92 -40t83 -51.5t67 -69t45 -92t16.5 -121q0 -86 -27 -157t-78 -123t-125 -84t-168 -39v-140h-82v136z" unicode="$"/>
<glyph glyph-name="percent" horiz-adv-x="1706" unicode="%" d="M1481 346q0 70 -9 124.5t-29 92t-53.5 57t-82.5 19.5t-81 -19.5t-51 -57t-26.5 -92t-7.5 -124.5q0 -71 7.5 -126.5t26.5 -93.5t51 -58.5t81 -20.5t82.5 20.5t53.5 58.5t29 93.5t9 126.5zM1636 346q0 -180 -80 -276.5t-249 -96.5q-161 0 -241.5 95t-80.5 278 q0 178 81 272.5t247 94.5q159 0 241 -92t82 -275zM565 995q0 70 -9 124.5t-29 92t-53.5 57t-82.5 19.5t-81 -19.5t-51 -57t-26.5 -92t-7.5 -124.5q0 -71 7.5 -126.5t26.5 -93.5t51 -58.5t81 -20.5t82.5 20.5t53.5 58.5t29 93.5t9 126.5zM721 995q0 -179 -80.5 -275.5 t-249.5 -96.5q-161 0 -241 95t-80 277q0 178 80.5 272.5t246.5 94.5q159 0 241.5 -92t82.5 -275zM440 -20h-110l948 1382h111z"/>
<glyph glyph-name="ampersand" horiz-adv-x="1593" unicode="&amp;" d="M434 1090q0 -54 15 -97.5t37.5 -77.5t50 -60t51.5 -44q51 19 93 40.5t71 52.5t45 75.5t16 110.5q0 192 -182 192q-105 0 -151 -48t-46 -144zM602 66q64 0 118.5 12t99.5 33t82.5 48.5t69.5 59.5l-499 457q-37 -16 -72.5 -39.5t-63.5 -59.5t-45.5 -87t-17.5 -123 q0 -76 23 -132.5t65.5 -94t103 -56t136.5 -18.5zM989 1083q0 -74 -28.5 -126t-75 -90.5t-106.5 -66.5t-122 -52l422 -384q46 94 73 186.5t30 176.5l-142 27v53h457v-53l-139 -27q-12 -42 -29.5 -93.5t-41 -109t-54 -118.5t-70.5 -120l228 -208l165 -25v-53h-344l-171 155 q-39 -35 -85.5 -67t-103.5 -56t-125.5 -38t-151.5 -14q-248 0 -372.5 96.5t-124.5 279.5q0 93 31 157.5t79 108.5t106.5 72t113.5 49q-28 27 -55 60.5t-48.5 74t-34.5 88.5t-13 104q0 63 20.5 116.5t65.5 92.5t116 61t172 22q98 0 166.5 -21.5t111 -59t61.5 -88.5t19 -110z "/>
<glyph glyph-name="quotesingle" horiz-adv-x="369" unicode="&apos;" d="M86 1341h197l-62 -481h-74z"/>
<glyph glyph-name="parenleft" horiz-adv-x="682" unicode="(" d="M283 494q0 -84 4 -167.5t15.5 -163t34 -154t59.5 -140t91 -122t129 -99.5v-84q-134 71 -232.5 154.5t-164 193t-97.5 251.5t-32 331t32 330.5t97.5 250.5t164 192t232.5 154v-84q-113 -65 -179 -157.5t-100.5 -203t-44 -233.5t-9.5 -249z"/>
<glyph glyph-name="parenright" horiz-adv-x="682" unicode=")" d="M66 -436v84q75 43 129 99.5t91 122t59.5 140t34 154t15.5 163t4 167.5q0 126 -9.5 249t-44 233.5t-100.5 203t-179 157.5v84q133 -71 232 -154t164.5 -192t97.5 -250.5t32 -330.5t-32 -331t-97.5 -251.5t-164.5 -193t-232 -154.5z"/>
<glyph glyph-name="asterisk" d="M100 1065l64 143l315 -194l-43 327h156l-47 -327l317 190l64 -141l-332 -98l332 -97l-64 -141l-317 188l47 -325h-156l43 328l-315 -195l-64 143l328 99z" unicode="*"/>
<glyph glyph-name="plus" horiz-adv-x="1155" unicode="+" d="M629 629v-426h-103v426h-424v102h424v426h103v-426h426v-102h-426z"/>
<glyph glyph-name="comma" horiz-adv-x="512" unicode="," d="M383 49q0 -59 -16.5 -114.5t-53 -102.5t-94.5 -85t-141 -62v77q91 29 133.5 71t42.5 97q0 18 -10 30.5t-25 22t-32.5 18.5t-32.5 21.5t-25 31t-10 46.5q0 54 34 82.5t87 28.5q28 0 54 -10.5t45.5 -31t31.5 -51t12 -69.5z"/>
<glyph glyph-name="hyphen" horiz-adv-x="682" unicode="-" d="M76 406v153h532v-153h-532z"/>
<glyph glyph-name="hyphen" horiz-adv-x="682" unicode="­" d="M76 406v153h532v-153h-532z"/>
<glyph glyph-name="period" horiz-adv-x="512" unicode="." d="M377 92q0 -25 -9.5 -47t-25.5 -38.5t-38.5 -26t-47.5 -9.5q-26 0 -48 9.5t-38 26t-25.5 38.5t-9.5 47t9.5 47.5t25.5 38.5t38 25.5t48 9.5q25 0 47.5 -9.5t38.5 -25.5t25.5 -38.5t9.5 -47.5z"/>
<glyph glyph-name="slash" horiz-adv-x="569" unicode="/" d="M100 -20h-100l471 1370h98z"/>
<glyph glyph-name="zero" d="M762 676q0 144 -12.5 257t-42 190.5t-79 118t-122.5 40.5q-74 0 -121.5 -40.5t-74.5 -118t-37.5 -190.5t-10.5 -257t10.5 -258.5t37.5 -194t74.5 -122t121.5 -42.5q73 0 122.5 42.5t79 122t42 194t12.5 258.5zM946 676q0 -168 -26.5 -298t-80.5 -218.5t-137 -134 t-196 -45.5q-212 0 -320 178t-108 518q0 333 108 509.5t328 176.5q212 0 322 -174.5t110 -511.5z" unicode="0"/>
<glyph glyph-name="one" d="M627 80l274 -27v-53h-721v53l275 27v1094l-271 -97v53l391 222h52v-1272z" unicode="1"/>
<glyph glyph-name="two" d="M911 0h-821v147q101 94 185.5 168.5t152 139t118 123.5t84 123t50 138t16.5 167q0 130 -59 198t-193 68q-30 0 -59.5 -4.5t-56.5 -12t-50.5 -17t-41.5 -19.5l-35 -164h-66v258q76 18 149.5 30.5t159.5 12.5q220 0 330.5 -91.5t110.5 -258.5q0 -82 -21.5 -152 t-61.5 -134.5t-98 -127t-132 -129.5t-162.5 -142.5t-188.5 -166.5h690v-154z" unicode="2"/>
<glyph glyph-name="three" d="M944 365q0 -91 -32 -162.5t-92.5 -121t-149 -75.5t-201.5 -26q-99 0 -192 12t-168 31l-11 282h66l45 -188q18 -10 47 -20t62.5 -17.5t69 -12t65.5 -4.5q93 0 152.5 23t94 64.5t47.5 99t13 125.5q0 78 -22 129.5t-60.5 83t-90 46t-110.5 17.5l-143 8v82l143 9 q113 6 167 70t54 194q0 65 -13.5 113.5t-42.5 80.5t-75.5 48t-113.5 16q-30 0 -60.5 -4.5t-58.5 -12t-52 -17t-42 -19.5l-35 -164h-66v258q35 9 70 17t73 13.5t80 9t91 3.5q211 0 320.5 -81t109.5 -249q0 -63 -17 -117.5t-53 -96.5t-91.5 -70.5t-131.5 -39.5 q182 -21 268 -104.5t86 -232.5z" unicode="3"/>
<glyph glyph-name="four" d="M638 1113h-5l-480 -675h485v675zM810 295v-295h-172v295h-598v133l655 920h115v-910h182v-143h-182z" unicode="4"/>
<glyph glyph-name="five" d="M485 784q112 0 198 -22.5t144 -69.5t87.5 -119.5t29.5 -173.5q0 -95 -28.5 -172t-87.5 -132t-148.5 -85t-210.5 -30q-94 0 -178.5 10.5t-160.5 32.5l-11 282h66l45 -188q18 -10 43.5 -20t55.5 -17.5t62 -12t62 -4.5q93 0 152.5 23.5t94 66.5t47.5 103t13 133 q0 78 -13.5 136t-49.5 97t-98.5 58.5t-160.5 19.5q-59 0 -104 -8t-74 -16h-96v665h680v-153h-590v-428q18 4 40.5 8t50 7.5t62 6t78.5 2.5z" unicode="5"/>
<glyph glyph-name="six" d="M549 59q64 0 108 21t71 63.5t38.5 106t11.5 147.5q0 164 -51.5 237t-163.5 73q-68 0 -142.5 -13t-148.5 -37q0 -144 15.5 -255t49.5 -187.5t86 -116t126 -39.5zM963 416q0 -104 -26.5 -185t-78.5 -137t-128.5 -85t-176.5 -29q-110 0 -196.5 43t-146 128.5t-91 213 t-31.5 297.5q0 182 41.5 313t111 216t160.5 125t189 40q75 0 152 -10t139 -25v-231h-66l-35 137q-18 10 -41.5 18t-49 14t-51 9.5t-48.5 3.5q-71 0 -127.5 -34t-97.5 -103t-64.5 -173t-27.5 -245q72 38 157.5 62t169.5 24t151.5 -23.5t114.5 -71.5t72 -121t25 -171z" unicode="6"/>
<glyph glyph-name="seven" d="M201 1024h-66v317h830v-77l-598 -1264h-129l587 1188h-589z" unicode="7"/>
<glyph glyph-name="eight" d="M725 1014q0 59 -10.5 108t-35.5 84.5t-67 55.5t-104 20t-102.5 -20t-64 -55.5t-33 -84.5t-9.5 -108q0 -60 9.5 -108t33 -82t64 -52t102.5 -18t104 18t67 52t35.5 82t10.5 108zM766 362q0 73 -13 129.5t-43.5 95.5t-80.5 59t-123 20q-74 0 -122 -20t-76 -59t-39 -95.5 t-11 -129.5q0 -74 11 -130.5t39 -94.5t76 -58t122 -20q73 0 123 20t80.5 58t43.5 94.5t13 130.5zM905 1014q0 -110 -53.5 -186.5t-144.5 -116.5q54 -20 98 -52t75.5 -75.5t48.5 -99t17 -122.5q0 -190 -107 -286t-333 -96q-214 0 -321 94.5t-107 287.5q0 133 64 220.5 t173 128.5q-87 40 -141.5 116t-54.5 187q0 79 24.5 143.5t73.5 110t123 70t174 24.5q96 0 169 -24t122.5 -69t74.5 -109.5t25 -145.5z" unicode="8"/>
<glyph glyph-name="nine" d="M500 1276q-129 0 -189.5 -89.5t-60.5 -258.5q0 -82 16.5 -139t48 -92.5t77 -51.5t104.5 -16q66 0 132 14t128 39q0 147 -14 258.5t-44 186t-79 112t-119 37.5zM66 932q0 103 30 182.5t86 133t136 81t180 27.5q114 0 197 -40t137.5 -123.5t81 -212.5t26.5 -306 q0 -129 -19.5 -230.5t-54.5 -178.5t-83.5 -131.5t-106.5 -88.5t-123.5 -49.5t-134.5 -15.5q-88 0 -159.5 8.5t-139.5 25.5v232h65l35 -144q19 -9 42.5 -16t49 -12.5t52 -8t51.5 -2.5q70 0 130.5 29.5t105.5 95.5t72.5 171.5t32.5 257.5q-66 -37 -143 -61t-166 -24 q-84 0 -154 25.5t-120.5 76t-78 125.5t-27.5 173z" unicode="9"/>
<glyph glyph-name="colon" horiz-adv-x="569" unicode=":" d="M403 840q0 -26 -9.5 -48t-25.5 -38t-38 -25.5t-47 -9.5q-26 0 -48 9.5t-38 25.5t-25.5 38t-9.5 48q0 25 9.5 47t25.5 38.5t38 26t48 9.5q25 0 47 -9.5t38 -26t25.5 -38.5t9.5 -47zM403 92q0 -25 -9.5 -47t-25.5 -38.5t-38 -26t-47 -9.5q-26 0 -48 9.5t-38 26t-25.5 38.5 t-9.5 47t9.5 47.5t25.5 38.5t38 25.5t48 9.5q25 0 47 -9.5t38 -25.5t25.5 -38.5t9.5 -47.5z"/>
<glyph glyph-name="less" horiz-adv-x="1155" unicode="&lt;" d="M102 655v50l953 469v-103l-809 -391l809 -391v-103z"/>
<glyph glyph-name="equal" horiz-adv-x="1155" unicode="=" d="M1055 936v-102h-953v102h953zM1055 526v-102h-953v102h953z"/>
<glyph glyph-name="greater" horiz-adv-x="1155" unicode="&gt;" d="M104 186v103l809 391l-809 391v103l953 -469v-50z"/>
<glyph glyph-name="question" horiz-adv-x="909" unicode="?" d="M530 92q0 -25 -9.5 -47t-25.5 -38.5t-38 -26t-47 -9.5q-26 0 -48 9.5t-38 26t-25.5 38.5t-9.5 47t9.5 47.5t25.5 38.5t38 25.5t48 9.5q25 0 47 -9.5t38 -25.5t25.5 -38.5t9.5 -47.5zM440 350h-80l-26 334l143 29q36 7 66 24.5t52 51t34 86t12 129.5q0 73 -12.5 124 t-40.5 83t-74 46.5t-113 14.5q-60 0 -109.5 -14t-84.5 -35l-35 -164h-66v254q70 19 140.5 31t154.5 12q212 0 318 -86t106 -254q0 -70 -16.5 -133.5t-54 -115t-97.5 -89t-147 -55.5l-57 -13z"/>
<glyph glyph-name="at" horiz-adv-x="1886" unicode="@" d="M1139 807q-10 1 -19 2q-8 1 -16 1.5t-14 0.5q-29 0 -63.5 -3t-70 -11.5t-70.5 -23.5t-63 -40q-29 -26 -55 -69.5t-45.5 -99.5t-31 -121t-11.5 -134q0 -71 20 -110t60 -39q36 0 73.5 11t73 27.5t66 37t51.5 38.5zM1458 -184q-54 -42 -114.5 -79t-133 -65t-158 -44.5 t-188.5 -16.5q-181 0 -321.5 58.5t-237 160.5t-146.5 239t-50 293q0 143 32.5 273t93 241t147 201.5t193.5 154t232.5 98t265.5 34.5q175 0 307 -43.5t220.5 -123.5t133 -193t44.5 -252q0 -103 -28 -197t-77 -174.5t-116 -146.5t-145 -112.5t-164 -71.5t-173 -25 q-12 0 -23.5 2t-20.5 8t-15 16t-6 25q0 28 2.5 62.5t5.5 62.5q-27 -27 -63.5 -58t-78.5 -57t-88 -43.5t-92 -17.5q-72 0 -111.5 54.5t-39.5 145.5q0 83 15 164.5t44 155.5t73 137t101 109q48 38 92 62.5t90.5 38t98.5 18.5t115 5h35.5t29.5 -0.5t27.5 -2t29.5 -3.5 l-114 -530q-5 -21 -9 -46t-7 -48.5t-5 -44.5t-2 -35q0 -12 2 -23.5t9.5 -20t22 -13.5t40.5 -5q65 0 122 25t103.5 68.5t83 102.5t61 126.5t37.5 140t13 144.5q0 129 -41 228t-117.5 166.5t-185 102.5t-242.5 35q-128 0 -238.5 -33.5t-202 -93.5t-162 -144.5t-119 -186 t-74 -218t-25.5 -241.5q0 -132 39 -253t119.5 -213.5t202.5 -148t288 -55.5q95 0 171.5 14t139.5 37.5t116.5 54.5t102.5 66z"/>
<glyph glyph-name="A" horiz-adv-x="1479" unicode="A" d="M676 1208l-230 -651h467zM461 53v-53h-441v53l152 27l457 1272h190l475 -1272l170 -27v-53h-567v53l180 27l-133 387h-528l-135 -387z"/>
<glyph glyph-name="B" horiz-adv-x="1366" unicode="B" d="M59 0v53l172 27v1182l-172 26v53h613q141 0 235 -21.5t151 -62.5t81 -99.5t24 -131.5q0 -63 -20.5 -115t-57 -91.5t-87.5 -66t-111 -39.5q87 -9 157.5 -35t119.5 -67.5t75.5 -98.5t26.5 -127q0 -87 -29.5 -159.5t-92.5 -124t-162 -80t-239 -28.5q-112 0 -223 3t-205 3 h-256zM1059 382q0 70 -22.5 121t-70 84.5t-122.5 50t-180 16.5h-240v-564q46 -2 96 -3q43 -2 95 -2.5t103 -0.5q94 0 159 21t105.5 59.5t58.5 93.5t18 124zM958 1016q0 59 -17.5 103t-56.5 73.5t-101 44t-152 14.5h-207v-507h219q93 0 154 19.5t96.5 55t50 85.5t14.5 112z "/>
<glyph glyph-name="C" horiz-adv-x="1366" unicode="C" d="M774 -20q-164 0 -292.5 46t-217 133t-134.5 212.5t-46 283.5q0 180 46.5 312t135 218.5t217.5 128.5t295 42q69 0 130 -4.5t116.5 -11.5t105.5 -16t97 -19l6 -293h-66l-30 174q-70 43 -162.5 66.5t-188.5 23.5q-117 0 -208.5 -32t-154.5 -104.5t-96.5 -191t-33.5 -291.5 q0 -152 33 -264.5t95 -187t151.5 -111.5t203.5 -37q62 0 118.5 8t105 22t87 32.5t64.5 38.5l37 200h65l-6 -315q-42 -12 -96 -23.5t-115 -20.5t-128 -14t-134 -5z"/>
<glyph glyph-name="D" horiz-adv-x="1479" unicode="D" d="M668 1341q167 0 301.5 -35t229.5 -114t146.5 -205t51.5 -309q0 -164 -42 -291t-127 -214t-214.5 -132t-304.5 -45q-57 0 -124.5 0.5t-132.5 1.5t-123.5 1.5t-97.5 0.5h-172v53l172 27v1182l-172 26v53h609zM1188 680q0 148 -41 255.5t-117.5 177.5t-184.5 104t-241 34 h-180v-1157q30 -2 65 -3t72 -2.5t74.5 -2t73.5 -0.5q127 0 217.5 37.5t148.5 112t85.5 185.5t27.5 259z"/>
<glyph glyph-name="E" horiz-adv-x="1251" unicode="E" d="M59 53l172 27v1182l-172 26v53h1006v-321h-66l-32 217q-32 4 -77.5 7t-92.5 4.5t-89 2t-65 0.5h-219v-524h362l31 160h64v-412h-64l-31 162h-362v-547h264q62 0 117 1.5t99 3.5t75.5 5t46.5 6l57 248h66l-19 -354h-1071v53z"/>
<glyph glyph-name="F" horiz-adv-x="1139" unicode="F" d="M424 602v-522l223 -27v-53h-575v53l159 27v1182l-172 26v53h1006v-321h-66l-32 217q-32 4 -77.5 7t-92.5 4.5t-89 2t-65 0.5h-219v-559h395l31 160h61v-412h-61l-31 162h-395z"/>
<glyph glyph-name="G" horiz-adv-x="1479" unicode="G" d="M1284 70q-116 -38 -241 -64t-269 -26q-159 0 -286.5 43.5t-217.5 129t-138 211.5t-48 291q0 352 176.5 526.5t517.5 174.5q130 0 247.5 -16t223.5 -44v-288h-67l-27 166q-69 49 -165.5 75.5t-203.5 26.5q-117 0 -208.5 -32.5t-154.5 -105.5t-96.5 -191.5t-33.5 -289.5 q0 -173 39 -288.5t105.5 -184.5t154 -98t184.5 -29q49 0 97.5 6.5t91 16.5t75.5 22t52 23v381l-172 26v54h495v-54l-131 -26v-436z"/>
<glyph glyph-name="H" horiz-adv-x="1479" unicode="H" d="M59 0v53l172 27v1182l-172 26v53h537v-53l-172 -26v-527h631v527l-172 26v53h536v-53l-172 -26v-1182l172 -27v-53h-536v53l172 27v565h-631v-565l172 -27v-53h-537z"/>
<glyph glyph-name="I" horiz-adv-x="682" unicode="I" d="M438 80l172 -27v-53h-536v53l172 27v1182l-172 26v53h536v-53l-172 -26v-1182z"/>
<glyph glyph-name="J" horiz-adv-x="797" unicode="J" d="M410 1262l-172 26v53h516v-53l-152 -26v-830q0 -91 -17 -160t-45 -119t-64.5 -83.5t-75.5 -53.5t-78 -28t-72 -8q-65 0 -117.5 8t-89.5 22v244h66l30 -139q19 -23 54 -36t77 -13q140 0 140 190v1006z"/>
<glyph glyph-name="K" horiz-adv-x="1479" unicode="K" d="M1353 1341v-53l-155 -26l-458 -448l573 -734l145 -27v-53h-328l-525 678l-181 -145v-453l192 -27v-53h-557v53l172 27v1182l-172 26v53h537v-53l-172 -26v-632l642 632l-133 26v53h420z"/>
<glyph glyph-name="L" horiz-adv-x="1251" unicode="L" d="M631 1288l-207 -26v-1176h264q125 0 204 7t109 13l62 279h65l-18 -385h-1051v53l172 27v1182l-172 26v53h572v-53z"/>
<glyph glyph-name="M" horiz-adv-x="1821" unicode="M" d="M862 0h-35l-491 1153v-1073l180 -27v-53h-457v53l172 27v1182l-172 26v53h406l436 -1020l476 1020h384v-53l-172 -26v-1182l172 -27v-53h-544v53l180 27v1073z"/>
<glyph glyph-name="N" horiz-adv-x="1479" unicode="N" d="M1155 1262l-180 26v53h457v-53l-172 -26v-1262h-97l-827 1206v-1126l180 -27v-53h-457v53l172 27v1182l-172 26v53h406l690 -993v914z"/>
<glyph glyph-name="O" horiz-adv-x="1479" unicode="O" d="M84 672q0 178 43.5 307t126.5 213t205 124t280 40q153 0 274.5 -40t206.5 -124t130 -213t45 -307t-45 -308.5t-130 -215.5t-206.5 -126.5t-274.5 -41.5t-274 41.5t-206 126.5t-130 215.5t-45 308.5zM293 672q0 -140 21 -253t72 -193t137 -123.5t216 -43.5t216 43.5 t137.5 123.5t72.5 193t21 253q0 139 -21 251t-72.5 190.5t-137.5 120.5t-216 42t-216 -42t-137 -120.5t-72 -190.5t-21 -251z"/>
<glyph glyph-name="P" horiz-adv-x="1139" unicode="P" d="M424 526v-446l213 -27v-53h-565v53l159 27v1182l-172 26v53h506q141 0 235.5 -30.5t151.5 -84t81 -125.5t24 -155q0 -82 -23.5 -158t-79 -134t-148.5 -93t-231 -35h-151zM858 944q0 80 -17.5 138t-57 95.5t-103.5 55.5t-158 18h-98v-635h104q94 0 157.5 22.5t102 64.5 t54.5 103t16 138z"/>
<glyph glyph-name="Q" horiz-adv-x="1479" unicode="Q" d="M84 670q0 178 44 308t126 213q83 85 205 125t280 40q153 0 275 -40t206 -125q85 -83 130 -213t45 -308q1 -128 -23 -230t-70 -182q-46 -78 -111 -134q-66 -56 -151 -91l50 -62q43 -54 80 -93q38 -40 70 -64t62 -36t60 -11q7 0 19 1h24q12 2 23 2t16 1v-66q-11 -5 -33 -11 q-21 -6 -49 -12t-58 -10t-57 -4q-57 0 -103 14t-88 46q-44 32 -90 82t-102 122l-41 52q-19 -2 -39 -3t-45 -1q-153 0 -274 41t-206 126t-130 215t-45 308zM293 670q0 -140 21 -253t72 -193t137 -122q86 -43 216 -43t216 43q85 42 137 122t73 193t21 253t-21 252t-73 190 t-137 122q-86 42 -216 42t-216 -42t-137 -122q-51 -78 -72 -190t-21 -252z"/>
<glyph glyph-name="R" horiz-adv-x="1366" unicode="R" d="M931 969q0 80 -19 134t-59.5 87t-104 47t-153.5 14h-171v-573h177q92 0 155 16.5t102 52t56 90.5t17 132zM424 588v-508l203 -27v-53h-555v53l159 27v1182l-172 26v53h579q141 0 235.5 -25t151.5 -71.5t81 -112.5t24 -149q0 -77 -22.5 -137.5t-60.5 -106.5t-88 -76.5 t-104 -46.5l363 -536l145 -27v-53h-321l-377 588h-241z"/>
<glyph glyph-name="S" horiz-adv-x="1139" unicode="S" d="M139 361h65l35 -181q19 -24 53 -45.5t75.5 -38t87.5 -26t90 -9.5q76 0 132 20.5t92.5 56.5t54.5 85t18 107q0 72 -30.5 119t-80 79.5t-112.5 55t-129.5 45.5t-129.5 51t-112.5 71t-80 106.5t-30.5 156.5q0 78 30 141.5t88 108t142.5 68.5t192.5 24q99 0 188 -13t164 -30 v-279h-65l-35 164q-44 32 -108 53t-144 21q-74 0 -127.5 -16t-88.5 -43.5t-52 -65t-17 -80.5q0 -65 30.5 -108t80 -73.5t113 -52.5t130 -45.5t130 -53t113 -75t80 -111t30.5 -161.5q0 -93 -28.5 -168t-86 -128.5t-144 -82t-203.5 -28.5q-62 0 -122 6t-113 16t-98 23t-78 26 v310z"/>
<glyph glyph-name="T" horiz-adv-x="1251" unicode="T" d="M315 0v53l213 27v1175h-51q-131 0 -220 -6t-126 -14l-27 -209h-67v315h1180v-315h-68l-27 209q-18 4 -53.5 7t-82.5 5.5t-102.5 4t-113.5 1.5h-49v-1173l213 -27v-53h-619z"/>
<glyph glyph-name="U" horiz-adv-x="1479" unicode="U" d="M1159 1262l-180 26v53h457v-53l-172 -26v-801q0 -92 -23 -178.5t-81 -153.5t-158.5 -108t-254.5 -41q-267 0 -399.5 120.5t-132.5 341.5v820l-172 26v53h536v-53l-172 -26v-805q0 -82 19.5 -149.5t62 -115.5t110 -74t163.5 -26q105 0 180 26t123.5 73t71 114t22.5 148 v809z"/>
<glyph glyph-name="V" horiz-adv-x="1479" unicode="V" d="M1456 1341v-53l-147 -26l-539 -1293h-51l-545 1293l-151 26v53h542v-53l-180 -26l406 -987l405 987l-176 26v53h436z"/>
<glyph glyph-name="W" horiz-adv-x="1933" unicode="W" d="M1812 1262l-438 -1293h-53l-348 924l-357 -924h-53l-444 1293l-117 26v53h512v-53l-197 -26l319 -945l361 930h45l348 -930l304 945l-209 26v53h444v-53z"/>
<glyph glyph-name="X" horiz-adv-x="1479" unicode="X" d="M317 80l166 -27v-53h-438v53l148 27l456 606l-389 576l-151 26v53h553v-53l-170 -26l278 -414l311 414l-166 26v53h439v-53l-148 -26l-377 -502l461 -680l152 -27v-53h-553v53l170 27l-352 520z"/>
<glyph glyph-name="Y" horiz-adv-x="1479" unicode="Y" d="M838 528v-448l213 -27v-53h-619v53l213 27v442l-471 740l-151 26v53h567v-53l-180 -26l385 -619l366 619l-170 26v53h436v-53l-147 -26z"/>
<glyph glyph-name="Z" horiz-adv-x="1251" unicode="Z" d="M98 94l752 1161h-250q-131 0 -217 -6t-123 -14l-31 -211h-69v317h913v-86l-757 -1171h290q65 0 129.5 3.5t119.5 9t96 11t59 9.5l59 256h70l-27 -373h-1014v94z"/>
<glyph glyph-name="bracketleft" horiz-adv-x="682" unicode="[" d="M152 -274v1695h456v-47l-297 -41v-1519l297 -41v-47h-456z"/>
<glyph glyph-name="backslash" horiz-adv-x="569" unicode="\" d="M0 1350h98l471 -1370h-100z"/>
<glyph glyph-name="bracketright" horiz-adv-x="682" unicode="]" d="M74 -274v47l297 41v1519l-297 41v47h456v-1695h-456z"/>
<glyph glyph-name="asciicircum" horiz-adv-x="961" unicode="^" d="M457 1341h49l428 -952h-103l-350 809l-350 -809h-102z"/>
<glyph glyph-name="underscore" d="M-16 -264v102h1056v-102h-1056z" unicode="_"/>
<glyph glyph-name="grave" horiz-adv-x="682" unicode="`" d="M473 1119l-354 268v37h213l196 -272v-33h-55z"/>
<glyph glyph-name="a" horiz-adv-x="909" unicode="a" d="M598 479l-131 -4q-59 -2 -102 -11.5t-71 -32.5t-42 -63t-14 -102q0 -176 143 -176q68 0 117.5 15.5t99.5 39.5v334zM465 961q64 0 119 -12t95 -41t62.5 -78.5t22.5 -124.5v-635l117 -25v-45h-258l-19 94q-15 -15 -40.5 -35t-61.5 -37.5t-83.5 -29.5t-105.5 -12 q-68 0 -114.5 21t-74.5 58.5t-40 89t-12 111.5q0 62 15 107.5t42 76.5t63.5 50.5t79 30.5t90 15t95.5 5l141 4v147q0 42 -7 76.5t-23.5 59.5t-44.5 39t-70 14q-48 0 -97 -13t-86 -34l-34 -117h-56v205q65 14 134.5 24.5t150.5 10.5z"/>
<glyph glyph-name="b" d="M137 1352l-137 24v45h303v-336q0 -19 -0.5 -43.5t-1 -51t-2 -53t-2.5 -50.5q45 35 109.5 56.5t142.5 21.5q192 0 294.5 -116.5t102.5 -352.5q0 -119 -26 -214.5t-80 -162.5t-136.5 -103t-195.5 -36q-48 0 -97.5 5.5t-97.5 14.5t-93 21.5t-83 27.5v1303zM766 496 q0 102 -18.5 171.5t-53 112.5t-83 61.5t-107.5 18.5q-24 0 -51.5 -2t-54.5 -6.5t-52 -10.5t-43 -14v-745q42 -8 96 -12t105 -4q138 0 200 108t62 322z" unicode="b"/>
<glyph glyph-name="c" horiz-adv-x="909" unicode="c" d="M846 57q-26 -19 -62 -33.5t-77 -24t-85.5 -14.5t-86.5 -5q-122 0 -208.5 33.5t-141.5 97.5t-81 156.5t-26 209.5q0 128 33.5 220.5t93.5 152t142.5 87.5t180.5 28q81 0 157 -9.5t138 -21.5v-262h-55l-43 166q-37 21 -89.5 34t-109.5 13q-65 0 -114.5 -23.5t-84 -73.5 t-52 -127t-17.5 -184q0 -90 15 -162.5t53 -123.5t102.5 -79t163.5 -28q34 0 69.5 2.5t69 7t63 10.5t52.5 13v-60z"/>
<glyph glyph-name="d" d="M254 461q0 -105 18.5 -177t52.5 -116.5t82 -64t107 -19.5q60 0 113 11.5t90 27.5v743q-42 8 -97 12.5t-106 4.5q-133 0 -196.5 -107t-63.5 -315zM723 70q-44 -35 -109.5 -62.5t-154.5 -27.5q-385 0 -385 481q0 117 25.5 210.5t78.5 159t134 100t192 34.5q51 0 108.5 -6 t110.5 -17q-2 11 -3 32.5t-1.5 46t-1 48.5t-0.5 39v244l-158 24v45h324v-1351l116 -25v-45h-264z" unicode="d"/>
<glyph glyph-name="e" horiz-adv-x="909" unicode="e" d="M477 885q-56 0 -96.5 -23.5t-67 -66.5t-39 -104.5t-12.5 -137.5h402q0 76 -8.5 137.5t-30 104.5t-57.5 66.5t-91 23.5zM260 473v-18q0 -73 10.5 -140t42 -118.5t88.5 -82t150 -30.5q30 0 63 2.5t66 6.5t64 9t57 11v-56q-23 -15 -55.5 -28.5t-71.5 -24.5t-83 -17.5 t-89 -6.5q-117 0 -197.5 32t-130.5 95t-72 156t-22 214q0 246 103 367t294 121q75 0 140.5 -20t114.5 -67t77.5 -126t28.5 -197v-82h-578z"/>
<glyph glyph-name="f" horiz-adv-x="682" unicode="f" d="M225 856h-162v49l162 39v66q0 106 21.5 186.5t62 135t99 82.5t131.5 28q45 0 80 -5.5t63 -13.5v-205h-49l-45 123q-16 10 -35 15.5t-47 5.5q-35 0 -57 -15.5t-35 -48t-18 -82.5t-5 -120v-156h250v-84h-250v-778l203 -33v-45h-508v45l139 33v778z"/>
<glyph glyph-name="g" d="M496 391q109 0 154.5 62.5t45.5 189.5q0 63 -10.5 109.5t-34 76.5t-61.5 45t-92 15q-55 0 -93.5 -15t-63 -45t-35.5 -76.5t-11 -109.5t11 -110.5t35 -79t62 -47t93 -15.5zM829 -127q0 57 -35 89t-106 32h-364q-21 -18 -38.5 -41.5t-30 -49.5t-19.5 -52.5t-7 -51.5 q0 -36 11.5 -65.5t40 -50.5t77.5 -33t123 -12q90 0 155.5 17.5t108.5 49t63.5 74.5t20.5 94zM870 643q0 -162 -97 -245t-279 -83q-41 0 -82.5 4.5t-69.5 10.5l-63 -131q3 -17 39 -32t90 -15h278q152 0 225.5 -66t73.5 -182q0 -65 -26.5 -127.5t-86 -111t-155.5 -78 t-236 -29.5q-107 0 -182 17.5t-122 48.5t-68 72t-21 89q0 33 12.5 62.5t35 57t53.5 53.5t67 52q-18 6 -41.5 19.5t-44.5 34.5t-35 48.5t-14 61.5l158 178q-158 74 -158 291q0 79 26 139.5t74.5 101t119.5 61t161 20.5q28 0 57 -3t54.5 -6.5t44.5 -8t28 -7.5l221 111l35 -43 l-139 -144q34 -38 50.5 -95.5t16.5 -125.5z" unicode="g"/>
<glyph glyph-name="h" d="M326 1014q0 -14 -0.5 -34t-1 -41.5t-2 -41.5t-3.5 -33q28 16 68 34t83.5 33t87 24.5t79.5 9.5q54 0 99 -15t77.5 -48t51 -86t18.5 -128v-618l114 -25v-45h-405v45l125 25v606q0 83 -40.5 127.5t-125.5 44.5q-28 0 -59.5 -3t-62.5 -7t-58 -9.5t-45 -9.5v-749l127 -25v-45 h-412v45l119 25v1282l-140 24v45h306v-407z" unicode="h"/>
<glyph glyph-name="i" horiz-adv-x="569" unicode="i" d="M369 70l161 -25v-45h-487v45l160 25v800l-133 25v45h299v-870zM379 1247q0 -22 -8.5 -41.5t-23.5 -34.5t-35 -23.5t-42 -8.5t-41.5 8.5t-34.5 23.5t-23.5 34.5t-8.5 41.5t8.5 42t23.5 35t34.5 23.5t41.5 8.5t42 -8.5t35 -23.5t23.5 -35t8.5 -42z"/>
<glyph glyph-name="j" horiz-adv-x="569" unicode="j" d="M383 -39q0 -106 -21.5 -181.5t-61 -123.5t-94 -70t-120.5 -22q-44 0 -76 5t-69 13v199h47l27 -109q33 -28 83 -28q59 0 89 63t30 203v960l-141 25v45h307v-979zM393 1247q0 -22 -8.5 -41.5t-23.5 -34.5t-34.5 -23.5t-41.5 -8.5q-23 0 -42.5 8.5t-34.5 23.5t-23.5 34.5 t-8.5 41.5t8.5 42t23.5 35t34.5 23.5t42.5 8.5q22 0 41.5 -8.5t34.5 -23.5t23.5 -35t8.5 -42z"/>
<glyph glyph-name="k" d="M344 453l385 415l-98 27v45h332v-45l-117 -23l-268 -274l344 -530l102 -23v-45h-385v45l86 25l-258 405l-123 -135v-270l100 -25v-45h-385v45l119 25v1282l-139 24v45h305v-968z" unicode="k"/>
<glyph glyph-name="l" horiz-adv-x="569" unicode="l" d="M367 70l161 -25v-45h-487v45l160 25v1282l-160 24v45h326v-1351z"/>
<glyph glyph-name="m" horiz-adv-x="1593" unicode="m" d="M326 864q28 16 66.5 34t79.5 33t83 24.5t78 9.5q69 0 127.5 -26t87.5 -83q32 18 77 37.5t93.5 35.5t96 26t85.5 10q54 0 98 -15t75.5 -48t49 -86t17.5 -128v-618l121 -25v-45h-427v45l140 25v600q0 83 -37.5 127.5t-122.5 44.5q-26 0 -60.5 -4t-69 -9t-66 -11.5 t-52.5 -10.5q17 -54 17 -119v-618l141 -25v-45h-446v45l139 25v600q0 83 -42.5 127.5t-127.5 44.5q-28 0 -58.5 -3t-60 -7t-56 -9.5t-44.5 -9.5v-743l141 -25v-45h-426v45l119 25v800l-119 25v45h275z"/>
<glyph glyph-name="n" d="M324 864q28 16 66.5 34t80.5 33t84 24.5t78 9.5q54 0 99 -15t77.5 -48t51 -86t18.5 -128v-618l114 -25v-45h-405v45l125 25v600q0 83 -40.5 130.5t-125.5 47.5q-28 0 -59 -3t-61 -7t-56.5 -9.5t-44.5 -9.5v-749l127 -25v-45h-406v45l113 25v800l-113 25v45h268z" unicode="n"/>
<glyph glyph-name="o" d="M766 475q0 97 -13 173.5t-43.5 129t-80.5 80t-123 27.5q-74 0 -122 -27.5t-76 -80t-39 -129t-11 -173.5q0 -98 11 -175t39 -130.5t76 -82t122 -28.5q73 0 123 28.5t80.5 82t43.5 130.5t13 175zM946 475q0 -239 -107 -367t-333 -128q-212 0 -320 127t-108 368 q0 238 108 364t328 126q214 0 323 -123.5t109 -366.5z" unicode="o"/>
<glyph glyph-name="p" d="M764 481q0 102 -17 174t-49.5 117.5t-79.5 66.5t-106 21q-48 0 -102.5 -8.5t-92.5 -24.5v-751q42 -8 93 -12.5t102 -4.5q132 0 192 109.5t60 312.5zM152 870l-107 25v45h264l2 -55q21 18 49.5 32.5t61.5 25t70 16.5t75 6q88 0 158 -31t119 -92.5t74.5 -152t25.5 -208.5 q0 -115 -26 -207.5t-78 -158t-130.5 -100.5t-183.5 -35q-51 0 -107.5 5.5t-107.5 16.5q1 -12 2.5 -27.5t2 -32t1 -30.5t0.5 -23v-254l164 -24v-47h-448v47l119 24v1235z" unicode="p"/>
<glyph glyph-name="q" d="M254 467q0 -102 17.5 -174.5t50.5 -119t81.5 -68t110.5 -21.5q24 0 52 2t55.5 6.5t52.5 10.5t43 14v749q-42 8 -97 12.5t-106 4.5q-132 0 -196 -107t-64 -309zM813 985h70v-1350l104 -24v-47h-399v47l129 24v261q0 38 2 81.5t8 85.5q-45 -35 -111.5 -59t-156.5 -24 q-197 0 -291 125.5t-94 361.5q0 115 26 207.5t78.5 157t133 99t188.5 34.5q51 0 110.5 -6t112.5 -17z" unicode="q"/>
<glyph glyph-name="r" horiz-adv-x="682" unicode="r" d="M664 965v-254h-43l-58 110q-28 0 -60 -4t-64 -10.5t-61.5 -15.5t-51.5 -19v-702l161 -25v-45h-446v45l119 25v800l-119 25v45h274l9 -117q23 19 63 43.5t86.5 46.5t93 37t82.5 15h15z"/>
<glyph glyph-name="s" horiz-adv-x="797" unicode="s" d="M723 264q0 -63 -19.5 -115.5t-61.5 -90t-108.5 -58t-160.5 -20.5q-47 0 -92.5 5.5t-84.5 13t-68 15.5t-42 13v231h45l49 -131q31 -28 80 -48t115 -20q93 0 143.5 40.5t50.5 125.5q0 50 -21 82.5t-55 54.5t-77.5 36.5t-89 29.5t-89 34t-77.5 49t-55 75t-21 112 q0 64 23 114t64.5 84t99 51.5t126.5 17.5q68 0 133 -9.5t125 -21.5v-205h-47l-42 109q-26 23 -71 35t-96 12q-81 0 -123.5 -40t-42.5 -108q0 -46 21 -75.5t55.5 -50t78.5 -35.5t90 -31t90 -36.5t78.5 -52.5t55.5 -78t21 -114z"/>
<glyph glyph-name="t" horiz-adv-x="569" unicode="t" d="M334 -20q-96 0 -143.5 57t-47.5 160v659h-123v45l125 39l101 213h63v-213h215v-84h-215v-641q0 -65 29.5 -98t77.5 -33q37 0 73.5 5t67.5 11v-65q-15 -10 -39.5 -20t-54 -17.5t-62.5 -12.5t-67 -5z"/>
<glyph glyph-name="u" d="M313 268q0 -83 37.5 -127.5t122.5 -44.5q56 0 116 7.5t116 23.5v743l-142 25v45h307v-870l119 -25v-45h-274l-8 76q-29 -16 -69 -33t-83.5 -31t-87.5 -23t-80 -9q-54 0 -98 15t-75.5 48t-49 85.5t-17.5 127.5v614l-120 25v45h286v-672z" unicode="u"/>
<glyph glyph-name="v" d="M934 874l-377 -894h-74l-387 890l-96 25v45h438v-45l-149 -27l274 -649l262 651l-149 25v45h348v-45z" unicode="v"/>
<glyph glyph-name="w" horiz-adv-x="1479" unicode="w" d="M1366 874l-315 -894h-78l-232 620l-229 -620h-74l-325 890l-111 25v45h447v-45l-156 -27l223 -635l227 613h84l226 -617l213 641l-154 25v45h358v-45z"/>
<glyph glyph-name="x" d="M889 66l110 -21v-45h-426v45l125 23l-217 333l-254 -335l129 -21v-45h-338v45l109 16l309 408l-272 401l-111 25v45h426v-45l-125 -27l181 -270l208 272l-129 25v45h338v-45l-108 -21l-264 -342z" unicode="x"/>
<glyph glyph-name="y" d="M918 874l-367 -933q-32 -81 -65 -151t-73.5 -121.5t-92.5 -81t-121 -29.5q-26 0 -45.5 1t-36.5 3.5t-34 5.5t-38 8v203h47l33 -96q31 -23 86 -23q43 0 78 19t64.5 53.5t53.5 81.5t46 104l26 72l-358 880l-96 25v45h436v-45l-148 -27l254 -657l246 659l-147 25v45h350v-45 z" unicode="y"/>
<glyph glyph-name="z" horiz-adv-x="909" unicode="z" d="M55 0v45l516 815h-221q-28 0 -55.5 -2.5t-52 -7t-43.5 -11t-29 -14.5l-31 -135h-47v250h694v-49l-516 -811h275q27 0 57.5 3.5t59 9.5t53 14.5t39.5 19.5l51 197h47l-25 -324h-772z"/>
<glyph glyph-name="braceleft" horiz-adv-x="983" unicode="{" d="M662 -274q-65 0 -114 20.5t-81.5 59t-49 92.5t-16.5 122v295q0 63 -14.5 107t-42 72.5t-67.5 42.5t-91 16v45q51 1 91 15t67.5 42.5t42 72.5t14.5 106v294q0 141 65 217t196 76h135v-47h-62q-91 0 -129.5 -54.5t-38.5 -160.5v-330q0 -50 -14.5 -92t-40 -74.5t-61 -54 t-76.5 -30.5v-3q43 -10 78 -31.5t60.5 -54t39.5 -74.5t14 -93v-334q0 -106 38.5 -160.5t129.5 -54.5h62v-47h-135z"/>
<glyph glyph-name="bar" horiz-adv-x="410" unicode="|" d="M154 -442v1863h102v-1863h-102z"/>
<glyph glyph-name="braceright" horiz-adv-x="983" unicode="}" d="M186 -274v47h62q91 0 129.5 54.5t38.5 160.5v334q0 51 14 93t39.5 74.5t60.5 54t78 31.5v3q-41 9 -76.5 30.5t-61 54t-40 74.5t-14.5 92v330q0 106 -38.5 160.5t-129.5 54.5h-62v47h136q130 0 195 -76t65 -217v-294q0 -62 14.5 -106t42.5 -72.5t67.5 -42.5t90.5 -15v-45 q-51 -2 -90.5 -16t-67.5 -42.5t-42.5 -72.5t-14.5 -107v-295q0 -68 -16.5 -122t-49 -92.5t-81.5 -59t-113 -20.5h-136z"/>
<glyph glyph-name="asciitilde" horiz-adv-x="1108" unicode="~" d="M780 502q-46 0 -88 18t-81.5 44.5t-76 58t-71.5 58t-69 44.5t-68 18q-41 0 -70 -14.5t-49 -44.5t-31.5 -75.5t-17.5 -106.5h-101q6 61 19.5 122.5t42.5 111t78.5 80t128.5 30.5q48 0 91 -18t82.5 -45t76.5 -58t71.5 -58t67.5 -45t65 -18q40 0 68 16t47.5 47t31 76 t19.5 103h103q-8 -61 -22.5 -122t-44 -110.5t-78 -80.5t-124.5 -31z"/>
<glyph glyph-name="exclamdown" horiz-adv-x="682" unicode="¡" d="M449 -410h-218l62 953h94zM219 840q0 25 9.5 47t25.5 38.5t38 26t48 9.5q25 0 47.5 -9.5t38.5 -26t25.5 -38.5t9.5 -47q0 -26 -9.5 -48t-25.5 -38t-38.5 -25.5t-47.5 -9.5q-26 0 -48 9.5t-38 25.5t-25.5 38t-9.5 48z"/>
<glyph glyph-name="cent" d="M307 684q0 -77 10.5 -141t36.5 -113.5t70 -82t112 -46.5v789q-110 -14 -169.5 -112t-59.5 -294zM536 186q-109 7 -186.5 43.5t-127 100.5t-72.5 153t-23 201q0 121 30.5 210t84.5 148.5t129 90.5t165 36v172h82v-170q70 -3 135 -11t119 -19v-262h-55l-43 165 q-31 17 -71 29t-85 17v-799h23q34 0 69.5 2.5t69 7t63 10.5t52.5 13v-60q-23 -18 -55 -31t-68.5 -23t-75.5 -15.5t-78 -8.5v-186h-82v186z" unicode="¢"/>
<glyph glyph-name="sterling" d="M961 154v-154h-838v117q34 31 71.5 63.5t69.5 70t53 81.5t21 98q0 47 -16.5 96t-38.5 103h-162v82h127q-28 65 -47.5 137.5t-19.5 157.5q0 168 104.5 259t312.5 91q43 0 80 -3.5t72 -9t69 -13.5t72 -17v-258h-65l-35 164q-35 20 -84 36.5t-109 16.5q-115 0 -172 -67.5 t-57 -198.5q0 -95 9 -165t20 -130h278v-82h-262q6 -41 11 -82.5t5 -87.5q0 -54 -12 -97.5t-33.5 -80t-50.5 -67.5t-63 -60h690z" unicode="£"/>
<glyph glyph-name="currency" d="M219 676q0 -60 23.5 -113.5t63 -93t93 -63t113.5 -23.5q61 0 114.5 23.5t93.5 63t63.5 93t23.5 113.5q0 61 -23.5 114.5t-63.5 93.5t-93.5 63.5t-114.5 23.5q-60 0 -113.5 -23.5t-93 -63.5t-63 -93.5t-23.5 -114.5zM123 676q0 68 21 128t59 109l-107 107l74 74l104 -109 q50 38 110 60t128 22q66 0 127 -22t111 -60l108 109l72 -72l-109 -109q38 -51 60 -111t22 -126q0 -68 -22 -128t-60 -110l109 -106l-72 -72l-108 107q-50 -39 -111 -59.5t-127 -20.5q-68 0 -128 21t-110 59l-106 -107l-72 72l107 106q-38 50 -59 110t-21 128z" unicode="¤"/>
<glyph glyph-name="yen" d="M885 393v-82h-279v-231l172 -27v-53h-536v53l172 27v231h-279v82h279v129l-15 35h-264v82h230l-263 623l-100 26v53h453v-53l-131 -26l239 -619l246 619l-123 26v53h336v-53l-104 -26l-265 -623h232v-82h-267l-12 -29v-135h279z" unicode="¥"/>
<glyph glyph-name="brokenbar" horiz-adv-x="410" unicode="¦" d="M154 -442v622h102v-622h-102zM154 801v620h102v-620h-102z"/>
<glyph glyph-name="section" d="M719 580q0 40 -17.5 70t-47 54.5t-68 44.5t-80.5 39q-39 -2 -74.5 -14.5t-62.5 -35t-42.5 -53t-15.5 -67.5q0 -45 17 -77t46.5 -57t67.5 -46.5t80 -44.5q40 5 76 19t63 37.5t42.5 56t15.5 74.5zM842 29q0 -63 -21 -115.5t-65 -90t-112.5 -58.5t-162.5 -21 q-47 0 -94.5 5.5t-88 13.5t-71 15.5t-43.5 12.5v232h45l39 -132q15 -14 38.5 -26t51.5 -21t60 -14.5t65 -5.5q46 0 84 10t65 30.5t41.5 52t14.5 73.5q0 50 -22.5 88t-59.5 68t-84.5 56t-96.5 52.5t-96.5 56t-84.5 68t-59.5 88t-22.5 115.5q0 51 18.5 93.5t50.5 75t75 55 t93 32.5q-41 21 -78.5 47.5t-66 61t-45 78t-16.5 97.5q0 64 23 114t64.5 84t99 51.5t126.5 17.5q68 0 131.5 -7t126.5 -18v-211h-47l-33 109q-13 11 -33 20t-43 15t-49 9t-51 3q-82 0 -124 -40t-42 -108q0 -47 23 -81t60 -60.5t84.5 -49t97.5 -45.5t97.5 -49.5t84.5 -62 t60 -81.5t23 -109q0 -56 -19 -102.5t-53.5 -82.5t-82 -60t-103.5 -36q45 -26 86 -55t72.5 -66.5t50.5 -84.5t19 -107z" unicode="§"/>
<glyph glyph-name="dieresis" horiz-adv-x="682" unicode="¨" d="M262 1194q0 -42 -28 -71.5t-70 -29.5q-21 0 -39 8t-32 22t-22 32t-8 39t8 39t22 31.5t32 21.5t39 8q42 0 70 -29t28 -71zM618 1194q0 -42 -28 -71.5t-70 -29.5q-21 0 -39 8t-31.5 22t-21.5 32t-8 39q0 42 29 71t71 29t70 -29t28 -71z"/>
<glyph glyph-name="copyright" horiz-adv-x="1556" unicode="©" d="M795 258q-99 0 -176.5 28t-131 80.5t-81 127.5t-27.5 170q0 108 28 187.5t81 131t131 77t178 25.5q81 0 146.5 -9.5t121.5 -20.5l4 -187h-49l-19 105q-42 26 -92.5 38.5t-107.5 12.5q-66 0 -117 -17t-86.5 -58.5t-53.5 -110.5t-18 -172q0 -183 70 -266t199 -83 q75 0 129.5 17.5t85.5 42.5l22 119h49l-4 -199q-51 -16 -126.5 -27.5t-155.5 -11.5zM158 670q0 -129 48.5 -242t132.5 -197.5t197 -133t242 -48.5t242.5 48.5t198 133t133.5 197.5t49 242q0 86 -22.5 165.5t-63 148.5t-97 126t-126 97.5t-149 62.5t-165.5 22 q-129 0 -242 -49t-197 -133t-132.5 -197.5t-48.5 -242.5zM88 670q0 96 24.5 184.5t69.5 165.5t107.5 140t139.5 108t165 69.5t184 24.5t184.5 -24.5t165.5 -69.5t140 -108t108 -140t69.5 -165.5t24.5 -184.5t-24.5 -184t-69.5 -165t-108 -139.5t-140 -107.5t-165.5 -69.5 t-184.5 -24.5q-144 0 -269.5 54t-219 147.5t-147.5 219t-54 269.5z"/>
<glyph glyph-name="ordfeminine" horiz-adv-x="565" unicode="ª" d="M371 1063l-78 -2q-33 -1 -58.5 -4.5t-43 -15.5t-26.5 -34.5t-9 -60.5q0 -54 21 -75t65 -21q40 0 70 11.5t59 27.5v174zM281 1362q47 0 86 -8.5t66.5 -29t43 -53.5t15.5 -81v-352l69 -15v-37h-174l-12 62q-9 -9 -27 -22t-42.5 -24.5t-55 -19.5t-66.5 -8q-41 0 -69 12.5 t-46 35t-26 53.5t-8 67q0 56 23 89.5t59.5 51.5t81.5 24t88 7l84 2v80q0 50 -23 80.5t-74 30.5q-29 0 -58 -7.5t-52 -21.5l-21 -59h-43v122q39 10 86 15.5t95 5.5z"/>
<glyph glyph-name="guillemotleft" d="M526 496l335 356h81l-228 -389l228 -389h-81l-335 356v66zM117 496l334 356h81l-227 -389l227 -389h-81l-334 356v66z" unicode="«"/>
<glyph glyph-name="logicalnot" horiz-adv-x="1155" unicode="¬" d="M1055 731v-528h-103v426h-850v102h953z"/>
<glyph glyph-name="registered" horiz-adv-x="1556" unicode="®" d="M932 858q0 48 -11.5 79t-35.5 49.5t-62 26t-92 7.5h-63v-332h67q55 0 93 9.5t61 29.5t33 52.5t10 78.5zM668 625v-289l114 -17v-43h-346v43l96 17v688l-104 16v41h330q84 0 143.5 -16t97.5 -45.5t56 -70t18 -89.5q0 -77 -45 -133t-133 -84l213 -307l84 -17v-43h-205 l-229 349h-90zM158 670q0 -129 48.5 -242t132.5 -197.5t197 -133t242 -48.5t242.5 48.5t198 133t133.5 197.5t49 242q0 86 -22.5 165.5t-63 148.5t-97 126t-126 97.5t-149 62.5t-165.5 22q-129 0 -242 -49t-197 -133t-132.5 -197.5t-48.5 -242.5zM88 670q0 96 24.5 184.5 t69.5 165.5t107.5 140t139.5 108t165 69.5t184 24.5t184.5 -24.5t165.5 -69.5t140 -108t108 -140t69.5 -165.5t24.5 -184.5t-24.5 -184t-69.5 -165t-108 -139.5t-140 -107.5t-165.5 -69.5t-184.5 -24.5q-144 0 -269.5 54t-219 147.5t-147.5 219t-54 269.5z"/>
<glyph glyph-name="macron" d="M1042 1452h-1059v94h1059v-94z" unicode="¯"/>
<glyph glyph-name="degree" horiz-adv-x="819" unicode="°" d="M200 1051q0 -44 16 -82t44.5 -66.5t66 -45t81.5 -16.5t82.5 16.5t66.5 45t44 66.5t16 82t-16 82.5t-44 67t-66.5 45t-82.5 16.5t-81.5 -16.5t-66 -45t-44.5 -67t-16 -82.5zM98 1051q0 64 24 121t66 99t98.5 66.5t121.5 24.5q64 0 121 -24.5t99 -66.5t66.5 -99t24.5 -121 q0 -65 -24.5 -121.5t-66.5 -98.5t-99 -66t-121 -24q-65 0 -121.5 24t-98.5 66t-66 98.5t-24 121.5z"/>
<glyph glyph-name="plusminus" horiz-adv-x="1124" unicode="±" d="M1038 102v-102h-953v102h953zM612 629v-426h-103v426h-424v102h424v426h103v-426h426v-102h-426z"/>
<glyph glyph-name="uni00B2" horiz-adv-x="614" unicode="²" d="M567 535h-499v96q61 56 109.5 100t86.5 82t65 72.5t44.5 72t26 81.5t8.5 100q0 74 -33.5 108.5t-98.5 34.5q-35 0 -64 -10t-50 -23l-21 -98h-55v172q45 11 92 19t98 8q134 0 204.5 -55.5t70.5 -155.5q0 -75 -24 -131t-71.5 -109.5t-116.5 -113.5t-159 -142h387v-108z"/>
<glyph glyph-name="uni00B3" horiz-adv-x="614" unicode="³" d="M575 754q0 -55 -23 -98t-64.5 -73t-98.5 -45.5t-125 -15.5q-59 0 -114.5 8t-100.5 19l-6 186h55l27 -112q22 -13 58 -23t73 -10q55 0 89.5 11t53.5 33t26 53.5t7 72.5q0 47 -12 77t-33.5 47t-51 24.5t-65.5 9.5l-86 6v65l86 4q68 3 96.5 37.5t28.5 112.5q0 39 -7 65.5 t-23 43t-42.5 23.5t-66.5 7q-32 0 -61.5 -8t-51.5 -21l-20 -102h-55v172q41 10 84.5 18.5t103.5 8.5q63 0 115 -12.5t89.5 -37t58 -62t20.5 -87.5q0 -75 -49 -128t-140 -67q110 -12 167.5 -62.5t57.5 -139.5z"/>
<glyph glyph-name="acute" horiz-adv-x="682" unicode="´" d="M156 1119v33l196 272h213v-37l-354 -268h-55z"/>
<glyph glyph-name="u00B5" horiz-adv-x="1180" unicode="µ" d="M816 121q-22 -20 -50.5 -44.5t-62.5 -46t-73.5 -36t-83.5 -14.5q-65 0 -110 23t-70 55q0 -133 -8.5 -262t-25.5 -232h-178v45q6 19 15 62t17 103.5t14 135.5t6 159v801l-140 25v45h306v-652q0 -45 15 -80.5t42 -60.5t65 -38t85 -13q31 0 63 8t62.5 20.5t58 28t48.5 30.5 v687l-142 25v45h307v-870l137 -25v-45h-278z"/>
<glyph glyph-name="paragraph" horiz-adv-x="928" unicode="¶" d="M811 1266v-1524h-94v1524h-170v-1524h-94l2 823q-92 0 -173 23t-142 72t-96.5 124t-35.5 179q0 90 27.5 160t82 118.5t136 74t188.5 25.5h463v-53z"/>
<glyph glyph-name="cedilla" horiz-adv-x="682" unicode="¸" d="M528 -234q0 -46 -18 -83t-51 -63.5t-78.5 -41t-99.5 -14.5q-32 0 -69.5 5.5t-68.5 16.5v74q9 -3 23.5 -6t31 -5t34 -3.5t31.5 -1.5q60 0 87 29.5t27 74.5q0 32 -15 53.5t-37.5 35t-49 20t-50.5 8.5l41 153h86l-18 -82q91 -9 142.5 -53t51.5 -117z"/>
<glyph glyph-name="uni00B9" horiz-adv-x="614" unicode="¹" d="M375 598l166 -14v-49h-475v49l165 14v625l-161 -58v47l233 134h72v-748z"/>
<glyph glyph-name="ordmasculine" horiz-adv-x="635" unicode="º" d="M469 1069q0 58 -7.5 102.5t-25.5 74t-48 44.5t-75 15q-44 0 -72 -15t-45 -44.5t-23.5 -74t-6.5 -102.5q0 -59 6.5 -104t23.5 -75t45 -45.5t72 -15.5q45 0 75 15.5t48 45.5t25.5 75t7.5 104zM598 1069q0 -145 -74 -222t-211 -77q-64 0 -115 19.5t-87 57t-55 93.5t-19 129 q0 144 74.5 218.5t207.5 74.5q63 0 114.5 -18.5t88 -55.5t56.5 -92t20 -127z"/>
<glyph glyph-name="guillemotright" d="M498 430l-335 -356h-81l228 389l-228 389h81l335 -356v-66zM907 430l-334 -356h-81l227 389l-227 389h81l334 -356v-66z" unicode="»"/>
<glyph glyph-name="onequarter" horiz-adv-x="1536" unicode="¼" d="M336 0h-102l964 1341h100zM375 598l166 -14v-49h-475v49l165 14v625l-161 -58v47l233 134h72v-748zM1156 652h-2l-277 -389h279v389zM1293 160v-159h-137v159h-361v97l391 550h107v-544h101v-103h-101z"/>
<glyph glyph-name="onehalf" horiz-adv-x="1536" unicode="½" d="M336 0h-102l964 1341h100zM375 598l166 -14v-49h-475v49l165 14v625l-161 -58v47l233 134h72v-748zM1458 1h-499v96q61 56 109.5 100t86.5 82t65 72.5t44.5 72t26 81.5t8.5 100q0 74 -33.5 108.5t-98.5 34.5q-35 0 -64 -10t-50 -23l-21 -98h-55v172q45 11 92 19t98 8 q134 0 204.5 -55.5t70.5 -155.5q0 -75 -24 -131t-71.5 -109.5t-116.5 -113.5t-159 -142h387v-108z"/>
<glyph glyph-name="threequarters" horiz-adv-x="1536" unicode="¾" d="M336 0h-102l964 1341h100zM606 754q0 -55 -23 -98t-64.5 -73t-98.5 -45.5t-125 -15.5q-59 0 -114.5 8t-100.5 19l-6 186h55l27 -112q22 -13 58 -23t73 -10q55 0 89.5 11t53.5 33t26 53.5t7 72.5q0 47 -12 77t-33.5 47t-51 24.5t-65.5 9.5l-86 6v65l86 4q68 3 96.5 37.5 t28.5 112.5q0 39 -7 65.5t-23 43t-42.5 23.5t-66.5 7q-32 0 -61.5 -8t-51.5 -21l-20 -102h-55v172q41 10 84.5 18.5t103.5 8.5q63 0 115 -12.5t89.5 -37t58 -62t20.5 -87.5q0 -75 -49 -128t-140 -67q110 -12 167.5 -62.5t57.5 -139.5zM1127 652h-2l-277 -389h279v389z M1264 160v-159h-137v159h-361v97l391 550h107v-544h101v-103h-101z"/>
<glyph glyph-name="questiondown" horiz-adv-x="909" unicode="¿" d="M379 840q0 25 9.5 47t25.5 38.5t38 26t48 9.5q25 0 47 -9.5t38.5 -26t26 -38.5t9.5 -47q0 -26 -9.5 -48t-26 -38t-38.5 -25.5t-47 -9.5q-26 0 -48 9.5t-38 25.5t-25.5 38t-9.5 48zM469 582h80l26 -334l-143 -29q-36 -7 -66 -24.5t-52 -51t-34 -86t-12 -129.5 q0 -73 12.5 -124t41 -83t74 -46.5t112.5 -14.5q60 0 109.5 14t84.5 35l35 164h66v-254q-69 -20 -139.5 -31.5t-155.5 -11.5q-212 0 -318 86t-106 254q0 70 16.5 133t54 115t97.5 89.5t147 55.5l58 13z"/>
<glyph glyph-name="Agrave" horiz-adv-x="1479" unicode="À" d="M676 1208l-230 -651h467zM461 53v-53h-441v53l152 27l457 1272h190l475 -1272l170 -27v-53h-567v53l180 27l-133 387h-528l-135 -387zM797 1453l-354 268v37h213l196 -272v-33h-55z"/>
<glyph glyph-name="Aacute" horiz-adv-x="1479" unicode="Á" d="M676 1208l-230 -651h467zM461 53v-53h-441v53l152 27l457 1272h190l475 -1272l170 -27v-53h-567v53l180 27l-133 387h-528l-135 -387zM611 1453v33l196 272h213v-37l-354 -268h-55z"/>
<glyph glyph-name="Acircumflex" horiz-adv-x="1479" unicode="Â" d="M676 1208l-230 -651h467zM461 53v-53h-441v53l152 27l457 1272h190l475 -1272l170 -27v-53h-567v53l180 27l-133 387h-528l-135 -387zM395 1453v33l218 273h213l217 -273v-33h-56l-268 183l-268 -183h-56z"/>
<glyph glyph-name="Atilde" horiz-adv-x="1479" unicode="Ã" d="M676 1208l-230 -651h467zM461 53v-53h-441v53l152 27l457 1272h190l475 -1272l170 -27v-53h-567v53l180 27l-133 387h-528l-135 -387zM846 1452q-48 0 -88.5 21.5t-76.5 48t-69.5 48t-66.5 21.5q-31 0 -49 -10.5t-28.5 -28t-15 -38.5t-7.5 -42h-52q3 47 13.5 90.5 t33 77.5t58.5 54t90 20q48 0 88.5 -21.5t77 -48t70 -48t65.5 -21.5q30 0 48 10.5t28.5 27.5t15.5 38t8 42h52q-3 -47 -13.5 -90t-33 -77t-58.5 -54t-90 -20z"/>
<glyph glyph-name="Adieresis" horiz-adv-x="1479" unicode="Ä" d="M676 1208l-230 -651h467zM461 53v-53h-441v53l152 27l457 1272h190l475 -1272l170 -27v-53h-567v53l180 27l-133 387h-528l-135 -387zM647 1559q0 -42 -28 -71.5t-70 -29.5q-21 0 -39 8t-32 22t-22 32t-8 39t8 39t22 31.5t32 21.5t39 8q42 0 70 -29t28 -71zM1003 1559 q0 -42 -28 -71.5t-70 -29.5q-21 0 -39 8t-31.5 22t-21.5 32t-8 39q0 42 29 71t71 29t70 -29t28 -71z"/>
<glyph glyph-name="Aring" horiz-adv-x="1479" unicode="Å" d="M676 1208l-230 -651h467zM461 53v-53h-441v53l152 27l457 1272h190l475 -1272l170 -27v-53h-567v53l180 27l-133 387h-528l-135 -387zM845 1476q0 25 -9.5 47.5t-26.5 39.5t-39.5 26.5t-47.5 9.5q-26 0 -48 -9.5t-39 -26.5t-26.5 -39.5t-9.5 -47.5t9.5 -47.5t26.5 -39 t39 -26.5t48 -10q25 0 47.5 10t39.5 26.5t26.5 39t9.5 47.5zM925 1476q0 -42 -16 -79t-43.5 -64.5t-64.5 -43.5t-79 -16t-79 16t-64.5 43.5t-43.5 64.5t-16 79t16 79t43.5 64.5t64.5 43.5t79 16t79 -16t64.5 -43.5t43.5 -64.5t16 -79z"/>
<glyph glyph-name="AE" horiz-adv-x="1821" unicode="Æ" d="M883 557v674l-363 -674h363zM731 53l152 27v387h-412l-207 -387l158 -27v-53h-402v53l136 27l647 1190l-164 18v53h995v-321h-65l-33 217q-32 4 -77.5 7t-92.5 4.5t-89 2t-65 0.5h-137v-524h281l30 160h64v-412h-64l-30 162h-281v-547h182q62 0 117 1.5t99 3.5t75.5 5 t46.5 6l58 248h65l-18 -354h-969v53z"/>
<glyph glyph-name="Ccedilla" horiz-adv-x="1366" unicode="Ç" d="M774 -20q-164 0 -292.5 46t-217 133t-134.5 212.5t-46 283.5q0 180 46.5 312t135 218.5t217.5 128.5t295 42q69 0 130 -4.5t116.5 -11.5t105.5 -16t97 -19l6 -293h-66l-30 174q-70 43 -162.5 66.5t-188.5 23.5q-117 0 -208.5 -32t-154.5 -104.5t-96.5 -191t-33.5 -291.5 q0 -152 33 -264.5t95 -187t151.5 -111.5t203.5 -37q62 0 118.5 8t105 22t87 32.5t64.5 38.5l37 200h65l-6 -315q-42 -12 -96 -23.5t-115 -20.5t-128 -14t-134 -5zM957 -234q0 -46 -18 -83t-51 -63.5t-78.5 -41t-99.5 -14.5q-32 0 -69.5 5.5t-68.5 16.5v74q9 -3 23.5 -6 t31 -5t34 -3.5t31.5 -1.5q60 0 87 29.5t27 74.5q0 32 -15 53.5t-37.5 35t-49 20t-50.5 8.5l41 153h86l-18 -82q91 -9 142.5 -53t51.5 -117z"/>
<glyph glyph-name="Egrave" horiz-adv-x="1251" unicode="È" d="M59 53l172 27v1182l-172 26v53h1006v-321h-66l-32 217q-32 4 -77.5 7t-92.5 4.5t-89 2t-65 0.5h-219v-524h362l31 160h64v-412h-64l-31 162h-362v-547h264q62 0 117 1.5t99 3.5t75.5 5t46.5 6l57 248h66l-19 -354h-1071v53zM758 1453l-354 268v37h213l196 -272v-33h-55z "/>
<glyph glyph-name="Eacute" horiz-adv-x="1251" unicode="É" d="M59 53l172 27v1182l-172 26v53h1006v-321h-66l-32 217q-32 4 -77.5 7t-92.5 4.5t-89 2t-65 0.5h-219v-524h362l31 160h64v-412h-64l-31 162h-362v-547h264q62 0 117 1.5t99 3.5t75.5 5t46.5 6l57 248h66l-19 -354h-1071v53zM470 1453v33l196 272h213v-37l-354 -268h-55z "/>
<glyph glyph-name="Ecircumflex" horiz-adv-x="1251" unicode="Ê" d="M59 53l172 27v1182l-172 26v53h1006v-321h-66l-32 217q-32 4 -77.5 7t-92.5 4.5t-89 2t-65 0.5h-219v-524h362l31 160h64v-412h-64l-31 162h-362v-547h264q62 0 117 1.5t99 3.5t75.5 5t46.5 6l57 248h66l-19 -354h-1071v53zM303 1453v33l218 273h213l217 -273v-33h-56 l-268 183l-268 -183h-56z"/>
<glyph glyph-name="Edieresis" horiz-adv-x="1251" unicode="Ë" d="M59 53l172 27v1182l-172 26v53h1006v-321h-66l-32 217q-32 4 -77.5 7t-92.5 4.5t-89 2t-65 0.5h-219v-524h362l31 160h64v-412h-64l-31 162h-362v-547h264q62 0 117 1.5t99 3.5t75.5 5t46.5 6l57 248h66l-19 -354h-1071v53zM557 1559q0 -42 -28 -71.5t-70 -29.5 q-21 0 -39 8t-32 22t-22 32t-8 39t8 39t22 31.5t32 21.5t39 8q42 0 70 -29t28 -71zM913 1559q0 -42 -28 -71.5t-70 -29.5q-21 0 -39 8t-31.5 22t-21.5 32t-8 39q0 42 29 71t71 29t70 -29t28 -71z"/>
<glyph glyph-name="Igrave" horiz-adv-x="682" unicode="Ì" d="M438 80l172 -27v-53h-536v53l172 27v1182l-172 26v53h536v-53l-172 -26v-1182zM408 1453l-354 268v37h213l196 -272v-33h-55z"/>
<glyph glyph-name="Iacute" horiz-adv-x="682" unicode="Í" d="M438 80l172 -27v-53h-536v53l172 27v1182l-172 26v53h536v-53l-172 -26v-1182zM209 1453v33l196 272h213v-37l-354 -268h-55z"/>
<glyph glyph-name="Icircumflex" horiz-adv-x="682" unicode="Î" d="M438 80l172 -27v-53h-536v53l172 27v1182l-172 26v53h536v-53l-172 -26v-1182zM18 1453v33l218 273h213l217 -273v-33h-56l-268 183l-268 -183h-56z"/>
<glyph glyph-name="Idieresis" horiz-adv-x="682" unicode="Ï" d="M438 80l172 -27v-53h-536v53l172 27v1182l-172 26v53h536v-53l-172 -26v-1182zM262 1559q0 -42 -28 -71.5t-70 -29.5q-21 0 -39 8t-32 22t-22 32t-8 39t8 39t22 31.5t32 21.5t39 8q42 0 70 -29t28 -71zM618 1559q0 -42 -28 -71.5t-70 -29.5q-21 0 -39 8t-31.5 22 t-21.5 32t-8 39q0 42 29 71t71 29t70 -29t28 -71z"/>
<glyph glyph-name="Eth" horiz-adv-x="1479" unicode="Ð" d="M801 711v-82h-377v-535q30 -2 65 -3t72 -2.5t74.5 -2t73.5 -0.5q127 0 217.5 36t148.5 108.5t85.5 182t27.5 257.5q0 157 -42 267.5t-120 180.5t-189.5 101.5t-250.5 31.5h-162v-540h377zM631 1341q162 0 302 -34.5t243 -112.5t162 -204.5t59 -311.5q0 -164 -38 -291 t-119 -214t-206.5 -132t-300.5 -45q-57 0 -128 0.5t-141 1.5t-132 1.5t-101 0.5h-172v53l172 27v549h-178v82h178v551l-172 26v53h572z"/>
<glyph glyph-name="Ntilde" horiz-adv-x="1479" unicode="Ñ" d="M1155 1262l-180 26v53h457v-53l-172 -26v-1262h-97l-827 1206v-1126l180 -27v-53h-457v53l172 27v1182l-172 26v53h406l690 -993v914zM879 1452q-48 0 -88.5 21.5t-76.5 48t-69.5 48t-66.5 21.5q-31 0 -49 -10.5t-28.5 -28t-15 -38.5t-7.5 -42h-52q3 47 13.5 90.5 t33 77.5t58.5 54t90 20q48 0 88.5 -21.5t77 -48t70 -48t65.5 -21.5q30 0 48 10.5t28.5 27.5t15.5 38t8 42h52q-3 -47 -13.5 -90t-33 -77t-58.5 -54t-90 -20z"/>
<glyph glyph-name="Ograve" horiz-adv-x="1479" unicode="Ò" d="M84 672q0 178 43.5 307t126.5 213t205 124t280 40q153 0 274.5 -40t206.5 -124t130 -213t45 -307t-45 -308.5t-130 -215.5t-206.5 -126.5t-274.5 -41.5t-274 41.5t-206 126.5t-130 215.5t-45 308.5zM293 672q0 -140 21 -253t72 -193t137 -123.5t216 -43.5t216 43.5 t137.5 123.5t72.5 193t21 253q0 139 -21 251t-72.5 190.5t-137.5 120.5t-216 42t-216 -42t-137 -120.5t-72 -190.5t-21 -251zM840 1453l-354 268v37h213l196 -272v-33h-55z"/>
<glyph glyph-name="Oacute" horiz-adv-x="1479" unicode="Ó" d="M84 672q0 178 43.5 307t126.5 213t205 124t280 40q153 0 274.5 -40t206.5 -124t130 -213t45 -307t-45 -308.5t-130 -215.5t-206.5 -126.5t-274.5 -41.5t-274 41.5t-206 126.5t-130 215.5t-45 308.5zM293 672q0 -140 21 -253t72 -193t137 -123.5t216 -43.5t216 43.5 t137.5 123.5t72.5 193t21 253q0 139 -21 251t-72.5 190.5t-137.5 120.5t-216 42t-216 -42t-137 -120.5t-72 -190.5t-21 -251zM627 1453v33l196 272h213v-37l-354 -268h-55z"/>
<glyph glyph-name="Ocircumflex" horiz-adv-x="1479" unicode="Ô" d="M84 672q0 178 43.5 307t126.5 213t205 124t280 40q153 0 274.5 -40t206.5 -124t130 -213t45 -307t-45 -308.5t-130 -215.5t-206.5 -126.5t-274.5 -41.5t-274 41.5t-206 126.5t-130 215.5t-45 308.5zM293 672q0 -140 21 -253t72 -193t137 -123.5t216 -43.5t216 43.5 t137.5 123.5t72.5 193t21 253q0 139 -21 251t-72.5 190.5t-137.5 120.5t-216 42t-216 -42t-137 -120.5t-72 -190.5t-21 -251zM417 1453v33l218 273h213l217 -273v-33h-56l-268 183l-268 -183h-56z"/>
<glyph glyph-name="Otilde" horiz-adv-x="1479" unicode="Õ" d="M84 672q0 178 43.5 307t126.5 213t205 124t280 40q153 0 274.5 -40t206.5 -124t130 -213t45 -307t-45 -308.5t-130 -215.5t-206.5 -126.5t-274.5 -41.5t-274 41.5t-206 126.5t-130 215.5t-45 308.5zM293 672q0 -140 21 -253t72 -193t137 -123.5t216 -43.5t216 43.5 t137.5 123.5t72.5 193t21 253q0 139 -21 251t-72.5 190.5t-137.5 120.5t-216 42t-216 -42t-137 -120.5t-72 -190.5t-21 -251zM867 1452q-48 0 -88.5 21.5t-76.5 48t-69.5 48t-66.5 21.5q-31 0 -49 -10.5t-28.5 -28t-15 -38.5t-7.5 -42h-52q3 47 13.5 90.5t33 77.5t58.5 54 t90 20q48 0 88.5 -21.5t77 -48t70 -48t65.5 -21.5q30 0 48 10.5t28.5 27.5t15.5 38t8 42h52q-3 -47 -13.5 -90t-33 -77t-58.5 -54t-90 -20z"/>
<glyph glyph-name="Odieresis" horiz-adv-x="1479" unicode="Ö" d="M84 672q0 178 43.5 307t126.5 213t205 124t280 40q153 0 274.5 -40t206.5 -124t130 -213t45 -307t-45 -308.5t-130 -215.5t-206.5 -126.5t-274.5 -41.5t-274 41.5t-206 126.5t-130 215.5t-45 308.5zM293 672q0 -140 21 -253t72 -193t137 -123.5t216 -43.5t216 43.5 t137.5 123.5t72.5 193t21 253q0 139 -21 251t-72.5 190.5t-137.5 120.5t-216 42t-216 -42t-137 -120.5t-72 -190.5t-21 -251zM657 1559q0 -42 -28 -71.5t-70 -29.5q-21 0 -39 8t-32 22t-22 32t-8 39t8 39t22 31.5t32 21.5t39 8q42 0 70 -29t28 -71zM1013 1559 q0 -42 -28 -71.5t-70 -29.5q-21 0 -39 8t-31.5 22t-21.5 32t-8 39q0 42 29 71t71 29t70 -29t28 -71z"/>
<glyph glyph-name="multiply" horiz-adv-x="1155" unicode="×" d="M578 608l-345 -344l-71 72l344 346l-344 342l74 74l342 -344l346 344l71 -72l-344 -344l344 -346l-71 -72z"/>
<glyph glyph-name="Oslash" horiz-adv-x="1479" unicode="Ø" d="M1186 672q0 117 -15 214t-49 173l-712 -866q52 -66 132 -100t197 -34q130 0 216 43.5t137.5 123.5t72.5 193t21 253zM293 672q0 -121 15 -220.5t50 -177.5l715 865q-52 66 -133.5 101.5t-200.5 35.5q-130 0 -216 -42t-137 -120.5t-72 -190.5t-21 -251zM84 672 q0 178 43.5 307t126.5 213t205 124t280 40q127 0 232.5 -28t185.5 -85l123 148h115l-170 -205q81 -85 125.5 -211.5t44.5 -302.5q0 -178 -45 -308.5t-130 -215.5t-206.5 -126.5t-274.5 -41.5q-127 0 -230 26.5t-183 83.5l-121 -145h-119l170 205q-84 86 -128 215t-44 307z "/>
<glyph glyph-name="Ugrave" horiz-adv-x="1479" unicode="Ù" d="M1159 1262l-180 26v53h457v-53l-172 -26v-801q0 -92 -23 -178.5t-81 -153.5t-158.5 -108t-254.5 -41q-267 0 -399.5 120.5t-132.5 341.5v820l-172 26v53h536v-53l-172 -26v-805q0 -82 19.5 -149.5t62 -115.5t110 -74t163.5 -26q105 0 180 26t123.5 73t71 114t22.5 148 v809zM844 1453l-354 268v37h213l196 -272v-33h-55z"/>
<glyph glyph-name="Uacute" horiz-adv-x="1479" unicode="Ú" d="M1159 1262l-180 26v53h457v-53l-172 -26v-801q0 -92 -23 -178.5t-81 -153.5t-158.5 -108t-254.5 -41q-267 0 -399.5 120.5t-132.5 341.5v820l-172 26v53h536v-53l-172 -26v-805q0 -82 19.5 -149.5t62 -115.5t110 -74t163.5 -26q105 0 180 26t123.5 73t71 114t22.5 148 v809zM652 1453v33l196 272h213v-37l-354 -268h-55z"/>
<glyph glyph-name="Ucircumflex" horiz-adv-x="1479" unicode="Û" d="M1159 1262l-180 26v53h457v-53l-172 -26v-801q0 -92 -23 -178.5t-81 -153.5t-158.5 -108t-254.5 -41q-267 0 -399.5 120.5t-132.5 341.5v820l-172 26v53h536v-53l-172 -26v-805q0 -82 19.5 -149.5t62 -115.5t110 -74t163.5 -26q105 0 180 26t123.5 73t71 114t22.5 148 v809zM444 1453v33l218 273h213l217 -273v-33h-56l-268 183l-268 -183h-56z"/>
<glyph glyph-name="Udieresis" horiz-adv-x="1479" unicode="Ü" d="M1159 1262l-180 26v53h457v-53l-172 -26v-801q0 -92 -23 -178.5t-81 -153.5t-158.5 -108t-254.5 -41q-267 0 -399.5 120.5t-132.5 341.5v820l-172 26v53h536v-53l-172 -26v-805q0 -82 19.5 -149.5t62 -115.5t110 -74t163.5 -26q105 0 180 26t123.5 73t71 114t22.5 148 v809zM661 1559q0 -42 -28 -71.5t-70 -29.5q-21 0 -39 8t-32 22t-22 32t-8 39t8 39t22 31.5t32 21.5t39 8q42 0 70 -29t28 -71zM1017 1559q0 -42 -28 -71.5t-70 -29.5q-21 0 -39 8t-31.5 22t-21.5 32t-8 39q0 42 29 71t71 29t70 -29t28 -71z"/>
<glyph glyph-name="Yacute" horiz-adv-x="1479" unicode="Ý" d="M838 528v-448l213 -27v-53h-619v53l213 27v442l-471 740l-151 26v53h567v-53l-180 -26l385 -619l366 619l-170 26v53h436v-53l-147 -26zM641 1453v33l196 272h213v-37l-354 -268h-55z"/>
<glyph glyph-name="Thorn" horiz-adv-x="1139" unicode="Þ" d="M565 1083q141 0 235.5 -30.5t151.5 -84t81 -125.5t24 -155q0 -82 -23.5 -158t-79 -134t-148.5 -93t-231 -35h-151v-188l172 -27v-53h-524v53l159 27v1182l-159 26v53h524v-53l-172 -26v-179h141zM858 686q0 80 -17.5 140t-57 100t-103.5 60t-158 20h-98v-660h104 q94 0 157.5 24.5t102 69t54.5 107t16 139.5z"/>
<glyph glyph-name="germandbls" d="M877 997q-45 -5 -92.5 -11.5t-85.5 -24.5t-62.5 -51t-24.5 -91q0 -64 25 -106.5t63 -76.5t82 -65t82 -72t63 -99t25 -144q0 -63 -17 -114t-53.5 -87t-93.5 -55.5t-137 -19.5q-32 0 -65.5 3.5t-65 9.5t-58 14.5t-44.5 19.5v192h45l33 -94q23 -28 62.5 -47t90.5 -19 q71 0 110.5 40.5t39.5 125.5q0 70 -25 115.5t-62 80t-81 64.5t-81 69t-62 93t-25 137q0 62 19.5 107.5t53 77t79 50.5t98.5 28q0 90 -11.5 150t-35 97t-60 52.5t-86.5 15.5q-43 0 -78.5 -13t-61 -43t-40 -78t-14.5 -118v-1110h-306v45l140 25v991q0 106 27 178.5t75 117.5 t114 65t144 20q87 0 153.5 -23t112 -75.5t68.5 -137.5t23 -209z" unicode="ß"/>
<glyph glyph-name="agrave" horiz-adv-x="909" unicode="à" d="M598 479l-131 -4q-59 -2 -102 -11.5t-71 -32.5t-42 -63t-14 -102q0 -176 143 -176q68 0 117.5 15.5t99.5 39.5v334zM465 961q64 0 119 -12t95 -41t62.5 -78.5t22.5 -124.5v-635l117 -25v-45h-258l-19 94q-15 -15 -40.5 -35t-61.5 -37.5t-83.5 -29.5t-105.5 -12 q-68 0 -114.5 21t-74.5 58.5t-40 89t-12 111.5q0 62 15 107.5t42 76.5t63.5 50.5t79 30.5t90 15t95.5 5l141 4v147q0 42 -7 76.5t-23.5 59.5t-44.5 39t-70 14q-48 0 -97 -13t-86 -34l-34 -117h-56v205q65 14 134.5 24.5t150.5 10.5zM544 1119l-354 268v37h213l196 -272v-33 h-55z"/>
<glyph glyph-name="aacute" horiz-adv-x="909" unicode="á" d="M598 479l-131 -4q-59 -2 -102 -11.5t-71 -32.5t-42 -63t-14 -102q0 -176 143 -176q68 0 117.5 15.5t99.5 39.5v334zM465 961q64 0 119 -12t95 -41t62.5 -78.5t22.5 -124.5v-635l117 -25v-45h-258l-19 94q-15 -15 -40.5 -35t-61.5 -37.5t-83.5 -29.5t-105.5 -12 q-68 0 -114.5 21t-74.5 58.5t-40 89t-12 111.5q0 62 15 107.5t42 76.5t63.5 50.5t79 30.5t90 15t95.5 5l141 4v147q0 42 -7 76.5t-23.5 59.5t-44.5 39t-70 14q-48 0 -97 -13t-86 -34l-34 -117h-56v205q65 14 134.5 24.5t150.5 10.5zM342 1119v33l196 272h213v-37l-354 -268 h-55z"/>
<glyph glyph-name="acircumflex" horiz-adv-x="909" unicode="â" d="M598 479l-131 -4q-59 -2 -102 -11.5t-71 -32.5t-42 -63t-14 -102q0 -176 143 -176q68 0 117.5 15.5t99.5 39.5v334zM465 961q64 0 119 -12t95 -41t62.5 -78.5t22.5 -124.5v-635l117 -25v-45h-258l-19 94q-15 -15 -40.5 -35t-61.5 -37.5t-83.5 -29.5t-105.5 -12 q-68 0 -114.5 21t-74.5 58.5t-40 89t-12 111.5q0 62 15 107.5t42 76.5t63.5 50.5t79 30.5t90 15t95.5 5l141 4v147q0 42 -7 76.5t-23.5 59.5t-44.5 39t-70 14q-48 0 -97 -13t-86 -34l-34 -117h-56v205q65 14 134.5 24.5t150.5 10.5zM143 1119v33l218 273h213l217 -273v-33 h-56l-268 183l-268 -183h-56z"/>
<glyph glyph-name="atilde" horiz-adv-x="909" unicode="ã" d="M598 479l-131 -4q-59 -2 -102 -11.5t-71 -32.5t-42 -63t-14 -102q0 -176 143 -176q68 0 117.5 15.5t99.5 39.5v334zM465 961q64 0 119 -12t95 -41t62.5 -78.5t22.5 -124.5v-635l117 -25v-45h-258l-19 94q-15 -15 -40.5 -35t-61.5 -37.5t-83.5 -29.5t-105.5 -12 q-68 0 -114.5 21t-74.5 58.5t-40 89t-12 111.5q0 62 15 107.5t42 76.5t63.5 50.5t79 30.5t90 15t95.5 5l141 4v147q0 42 -7 76.5t-23.5 59.5t-44.5 39t-70 14q-48 0 -97 -13t-86 -34l-34 -117h-56v205q65 14 134.5 24.5t150.5 10.5zM586 1118q-48 0 -88.5 21.5t-76.5 48 t-69.5 48t-66.5 21.5q-31 0 -49 -10.5t-28.5 -28t-15 -38.5t-7.5 -42h-52q3 47 13.5 90.5t33 77.5t58.5 54t90 20q48 0 88.5 -21.5t77 -48t70 -48t65.5 -21.5q30 0 48 10.5t28.5 27.5t15.5 38t8 42h52q-3 -47 -13.5 -90t-33 -77t-58.5 -54t-90 -20z"/>
<glyph glyph-name="adieresis" horiz-adv-x="909" unicode="ä" d="M598 479l-131 -4q-59 -2 -102 -11.5t-71 -32.5t-42 -63t-14 -102q0 -176 143 -176q68 0 117.5 15.5t99.5 39.5v334zM465 961q64 0 119 -12t95 -41t62.5 -78.5t22.5 -124.5v-635l117 -25v-45h-258l-19 94q-15 -15 -40.5 -35t-61.5 -37.5t-83.5 -29.5t-105.5 -12 q-68 0 -114.5 21t-74.5 58.5t-40 89t-12 111.5q0 62 15 107.5t42 76.5t63.5 50.5t79 30.5t90 15t95.5 5l141 4v147q0 42 -7 76.5t-23.5 59.5t-44.5 39t-70 14q-48 0 -97 -13t-86 -34l-34 -117h-56v205q65 14 134.5 24.5t150.5 10.5zM377 1194q0 -42 -28 -71.5t-70 -29.5 q-21 0 -39 8t-32 22t-22 32t-8 39t8 39t22 31.5t32 21.5t39 8q42 0 70 -29t28 -71zM733 1194q0 -42 -28 -71.5t-70 -29.5q-21 0 -39 8t-31.5 22t-21.5 32t-8 39q0 42 29 71t71 29t70 -29t28 -71z"/>
<glyph glyph-name="aring" horiz-adv-x="909" unicode="å" d="M598 479l-131 -4q-59 -2 -102 -11.5t-71 -32.5t-42 -63t-14 -102q0 -176 143 -176q68 0 117.5 15.5t99.5 39.5v334zM465 961q64 0 119 -12t95 -41t62.5 -78.5t22.5 -124.5v-635l117 -25v-45h-258l-19 94q-15 -15 -40.5 -35t-61.5 -37.5t-83.5 -29.5t-105.5 -12 q-68 0 -114.5 21t-74.5 58.5t-40 89t-12 111.5q0 62 15 107.5t42 76.5t63.5 50.5t79 30.5t90 15t95.5 5l141 4v147q0 42 -7 76.5t-23.5 59.5t-44.5 39t-70 14q-48 0 -97 -13t-86 -34l-34 -117h-56v205q65 14 134.5 24.5t150.5 10.5zM594 1280q0 25 -9.5 47.5t-26.5 39.5 t-39.5 26.5t-47.5 9.5q-26 0 -48 -9.5t-39 -26.5t-26.5 -39.5t-9.5 -47.5t9.5 -47.5t26.5 -39t39 -26.5t48 -10q25 0 47.5 10t39.5 26.5t26.5 39t9.5 47.5zM674 1280q0 -42 -16 -79t-43.5 -64.5t-64.5 -43.5t-79 -16t-79 16t-64.5 43.5t-43.5 64.5t-16 79t16 79t43.5 64.5 t64.5 43.5t79 16t79 -16t64.5 -43.5t43.5 -64.5t16 -79z"/>
<glyph glyph-name="ae" horiz-adv-x="1366" unicode="æ" d="M946 885q-56 0 -91.5 -23.5t-55.5 -66.5t-27.5 -104.5t-7.5 -137.5h360q0 76 -9 137.5t-29.5 104.5t-54.5 66.5t-85 23.5zM381 90q68 0 129.5 20t114.5 48q-6 11 -10.5 29t-8.5 40t-6 45.5t-2 46.5v160l-131 -4q-59 -2 -102 -11.5t-71 -32.5t-42 -63t-14 -102 q0 -176 143 -176zM764 473v-90q1 -62 9 -116t34 -95t75 -64.5t130 -23.5q30 0 63 2.5t66 6.5t64 9t57 11v-56q-23 -15 -54 -28.5t-68 -24.5t-79.5 -17.5t-87.5 -6.5q-115 0 -196 33t-126 96q-27 -24 -61.5 -47t-76.5 -41.5t-92 -29.5t-108 -11q-68 0 -114.5 21t-74.5 58.5 t-40 89t-12 111.5q0 62 15 107.5t42 76.5t63.5 50.5t79 30.5t90 15t95.5 5l141 4v147q0 42 -7 76.5t-23.5 59.5t-44.5 39t-70 14q-48 0 -97 -13t-86 -34l-34 -117h-56v205q65 14 134.5 24.5t150.5 10.5q75 0 136 -16t101 -58q45 40 106 59t138 19q72 0 136 -20t112 -67 t76 -126t28 -197v-82h-534z"/>
<glyph glyph-name="ccedilla" horiz-adv-x="909" unicode="ç" d="M846 57q-26 -19 -62 -33.5t-77 -24t-85.5 -14.5t-86.5 -5q-122 0 -208.5 33.5t-141.5 97.5t-81 156.5t-26 209.5q0 128 33.5 220.5t93.5 152t142.5 87.5t180.5 28q81 0 157 -9.5t138 -21.5v-262h-55l-43 166q-37 21 -89.5 34t-109.5 13q-65 0 -114.5 -23.5t-84 -73.5 t-52 -127t-17.5 -184q0 -90 15 -162.5t53 -123.5t102.5 -79t163.5 -28q34 0 69.5 2.5t69 7t63 10.5t52.5 13v-60zM706 -234q0 -46 -18 -83t-51 -63.5t-78.5 -41t-99.5 -14.5q-32 0 -69.5 5.5t-68.5 16.5v74q9 -3 23.5 -6t31 -5t34 -3.5t31.5 -1.5q60 0 87 29.5t27 74.5 q0 32 -15 53.5t-37.5 35t-49 20t-50.5 8.5l41 153h86l-18 -82q91 -9 142.5 -53t51.5 -117z"/>
<glyph glyph-name="egrave" horiz-adv-x="909" unicode="è" d="M477 885q-56 0 -96.5 -23.5t-67 -66.5t-39 -104.5t-12.5 -137.5h402q0 76 -8.5 137.5t-30 104.5t-57.5 66.5t-91 23.5zM260 473v-18q0 -73 10.5 -140t42 -118.5t88.5 -82t150 -30.5q30 0 63 2.5t66 6.5t64 9t57 11v-56q-23 -15 -55.5 -28.5t-71.5 -24.5t-83 -17.5 t-89 -6.5q-117 0 -197.5 32t-130.5 95t-72 156t-22 214q0 246 103 367t294 121q75 0 140.5 -20t114.5 -67t77.5 -126t28.5 -197v-82h-578zM594 1119l-354 268v37h213l196 -272v-33h-55z"/>
<glyph glyph-name="eacute" horiz-adv-x="909" unicode="é" d="M477 885q-56 0 -96.5 -23.5t-67 -66.5t-39 -104.5t-12.5 -137.5h402q0 76 -8.5 137.5t-30 104.5t-57.5 66.5t-91 23.5zM260 473v-18q0 -73 10.5 -140t42 -118.5t88.5 -82t150 -30.5q30 0 63 2.5t66 6.5t64 9t57 11v-56q-23 -15 -55.5 -28.5t-71.5 -24.5t-83 -17.5 t-89 -6.5q-117 0 -197.5 32t-130.5 95t-72 156t-22 214q0 246 103 367t294 121q75 0 140.5 -20t114.5 -67t77.5 -126t28.5 -197v-82h-578zM382 1119v33l196 272h213v-37l-354 -268h-55z"/>
<glyph glyph-name="ecircumflex" horiz-adv-x="909" unicode="ê" d="M477 885q-56 0 -96.5 -23.5t-67 -66.5t-39 -104.5t-12.5 -137.5h402q0 76 -8.5 137.5t-30 104.5t-57.5 66.5t-91 23.5zM260 473v-18q0 -73 10.5 -140t42 -118.5t88.5 -82t150 -30.5q30 0 63 2.5t66 6.5t64 9t57 11v-56q-23 -15 -55.5 -28.5t-71.5 -24.5t-83 -17.5 t-89 -6.5q-117 0 -197.5 32t-130.5 95t-72 156t-22 214q0 246 103 367t294 121q75 0 140.5 -20t114.5 -67t77.5 -126t28.5 -197v-82h-578zM151 1119v33l218 273h213l217 -273v-33h-56l-268 183l-268 -183h-56z"/>
<glyph glyph-name="edieresis" horiz-adv-x="909" unicode="ë" d="M477 885q-56 0 -96.5 -23.5t-67 -66.5t-39 -104.5t-12.5 -137.5h402q0 76 -8.5 137.5t-30 104.5t-57.5 66.5t-91 23.5zM260 473v-18q0 -73 10.5 -140t42 -118.5t88.5 -82t150 -30.5q30 0 63 2.5t66 6.5t64 9t57 11v-56q-23 -15 -55.5 -28.5t-71.5 -24.5t-83 -17.5 t-89 -6.5q-117 0 -197.5 32t-130.5 95t-72 156t-22 214q0 246 103 367t294 121q75 0 140.5 -20t114.5 -67t77.5 -126t28.5 -197v-82h-578zM387 1194q0 -42 -28 -71.5t-70 -29.5q-21 0 -39 8t-32 22t-22 32t-8 39t8 39t22 31.5t32 21.5t39 8q42 0 70 -29t28 -71zM743 1194 q0 -42 -28 -71.5t-70 -29.5q-21 0 -39 8t-31.5 22t-21.5 32t-8 39q0 42 29 71t71 29t70 -29t28 -71z"/>
<glyph glyph-name="igrave" horiz-adv-x="569" unicode="ì" d="M369 70l161 -25v-45h-487v45l160 25v800l-133 25v45h299v-870zM376 1119l-354 268v37h213l196 -272v-33h-55z"/>
<glyph glyph-name="iacute" horiz-adv-x="569" unicode="í" d="M369 70l161 -25v-45h-487v45l160 25v800l-133 25v45h299v-870zM138 1119v33l196 272h213v-37l-354 -268h-55z"/>
<glyph glyph-name="icircumflex" horiz-adv-x="569" unicode="î" d="M369 70l161 -25v-45h-487v45l160 25v800l-133 25v45h299v-870zM-40 1119v33l218 273h213l217 -273v-33h-56l-268 183l-268 -183h-56z"/>
<glyph glyph-name="idieresis" horiz-adv-x="569" unicode="ï" d="M369 70l161 -25v-45h-487v45l160 25v800l-133 25v45h299v-870zM193 1194q0 -42 -28 -71.5t-70 -29.5q-21 0 -39 8t-32 22t-22 32t-8 39t8 39t22 31.5t32 21.5t39 8q42 0 70 -29t28 -71zM549 1194q0 -42 -28 -71.5t-70 -29.5q-21 0 -39 8t-31.5 22t-21.5 32t-8 39 q0 42 29 71t71 29t70 -29t28 -71z"/>
<glyph glyph-name="eth" d="M766 444q0 90 -13 160.5t-43.5 119t-80.5 74t-123 25.5q-74 0 -122 -25.5t-76 -74t-39 -119t-11 -160.5t11 -161.5t39 -121t76 -76t122 -26.5q73 0 123 26.5t80.5 76t43.5 121t13 161.5zM229 1102l228 131q-47 34 -100.5 62t-118.5 48v78q86 -21 165 -53.5t150 -79.5 l266 156v-94l-194 -115q73 -59 131 -135.5t99.5 -170.5t64 -206.5t24.5 -243.5q0 -8 1 -16.5t1 -18.5q0 -224 -107 -344t-333 -120q-212 0 -320 119t-108 345q0 223 108 341t328 118q109 0 197 -35q-20 74 -65 155.5t-122 154.5l-295 -172v96z" unicode="ð"/>
<glyph glyph-name="ntilde" d="M324 864q28 16 66.5 34t80.5 33t84 24.5t78 9.5q54 0 99 -15t77.5 -48t51 -86t18.5 -128v-618l114 -25v-45h-405v45l125 25v600q0 83 -40.5 130.5t-125.5 47.5q-28 0 -59 -3t-61 -7t-56.5 -9.5t-44.5 -9.5v-749l127 -25v-45h-406v45l113 25v800l-113 25v45h268zM645 1118 q-48 0 -88.5 21.5t-76.5 48t-69.5 48t-66.5 21.5q-31 0 -49 -10.5t-28.5 -28t-15 -38.5t-7.5 -42h-52q3 47 13.5 90.5t33 77.5t58.5 54t90 20q48 0 88.5 -21.5t77 -48t70 -48t65.5 -21.5q30 0 48 10.5t28.5 27.5t15.5 38t8 42h52q-3 -47 -13.5 -90t-33 -77t-58.5 -54 t-90 -20z" unicode="ñ"/>
<glyph glyph-name="ograve" d="M766 475q0 97 -13 173.5t-43.5 129t-80.5 80t-123 27.5q-74 0 -122 -27.5t-76 -80t-39 -129t-11 -173.5q0 -98 11 -175t39 -130.5t76 -82t122 -28.5q73 0 123 28.5t80.5 82t43.5 130.5t13 175zM946 475q0 -239 -107 -367t-333 -128q-212 0 -320 127t-108 368 q0 238 108 364t328 126q214 0 323 -123.5t109 -366.5zM603 1119l-354 268v37h213l196 -272v-33h-55z" unicode="ò"/>
<glyph glyph-name="oacute" d="M766 475q0 97 -13 173.5t-43.5 129t-80.5 80t-123 27.5q-74 0 -122 -27.5t-76 -80t-39 -129t-11 -173.5q0 -98 11 -175t39 -130.5t76 -82t122 -28.5q73 0 123 28.5t80.5 82t43.5 130.5t13 175zM946 475q0 -239 -107 -367t-333 -128q-212 0 -320 127t-108 368 q0 238 108 364t328 126q214 0 323 -123.5t109 -366.5zM404 1119v33l196 272h213v-37l-354 -268h-55z" unicode="ó"/>
<glyph glyph-name="ocircumflex" d="M766 475q0 97 -13 173.5t-43.5 129t-80.5 80t-123 27.5q-74 0 -122 -27.5t-76 -80t-39 -129t-11 -173.5q0 -98 11 -175t39 -130.5t76 -82t122 -28.5q73 0 123 28.5t80.5 82t43.5 130.5t13 175zM946 475q0 -239 -107 -367t-333 -128q-212 0 -320 127t-108 368 q0 238 108 364t328 126q214 0 323 -123.5t109 -366.5zM187 1119v33l218 273h213l217 -273v-33h-56l-268 183l-268 -183h-56z" unicode="ô"/>
<glyph glyph-name="otilde" d="M766 475q0 97 -13 173.5t-43.5 129t-80.5 80t-123 27.5q-74 0 -122 -27.5t-76 -80t-39 -129t-11 -173.5q0 -98 11 -175t39 -130.5t76 -82t122 -28.5q73 0 123 28.5t80.5 82t43.5 130.5t13 175zM946 475q0 -239 -107 -367t-333 -128q-212 0 -320 127t-108 368 q0 238 108 364t328 126q214 0 323 -123.5t109 -366.5zM633 1118q-48 0 -88.5 21.5t-76.5 48t-69.5 48t-66.5 21.5q-31 0 -49 -10.5t-28.5 -28t-15 -38.5t-7.5 -42h-52q3 47 13.5 90.5t33 77.5t58.5 54t90 20q48 0 88.5 -21.5t77 -48t70 -48t65.5 -21.5q30 0 48 10.5 t28.5 27.5t15.5 38t8 42h52q-3 -47 -13.5 -90t-33 -77t-58.5 -54t-90 -20z" unicode="õ"/>
<glyph glyph-name="odieresis" d="M766 475q0 97 -13 173.5t-43.5 129t-80.5 80t-123 27.5q-74 0 -122 -27.5t-76 -80t-39 -129t-11 -173.5q0 -98 11 -175t39 -130.5t76 -82t122 -28.5q73 0 123 28.5t80.5 82t43.5 130.5t13 175zM946 475q0 -239 -107 -367t-333 -128q-212 0 -320 127t-108 368 q0 238 108 364t328 126q214 0 323 -123.5t109 -366.5zM430 1194q0 -42 -28 -71.5t-70 -29.5q-21 0 -39 8t-32 22t-22 32t-8 39t8 39t22 31.5t32 21.5t39 8q42 0 70 -29t28 -71zM786 1194q0 -42 -28 -71.5t-70 -29.5q-21 0 -39 8t-31.5 22t-21.5 32t-8 39q0 42 29 71t71 29 t70 -29t28 -71z" unicode="ö"/>
<glyph glyph-name="divide" horiz-adv-x="1124" unicode="÷" d="M1038 731v-102h-953v102h953zM657 297q0 -40 -28 -68t-68 -28q-41 0 -69 28t-28 68t28 68t69 28q40 0 68 -28t28 -68zM657 1063q0 -40 -28 -68t-68 -28q-41 0 -69 28t-28 68t28 68t69 28q40 0 68 -28t28 -68z"/>
<glyph glyph-name="oslash" d="M766 475q0 71 -7.5 131.5t-23.5 108.5l-405 -580q29 -37 71.5 -56.5t104.5 -19.5q73 0 123 28.5t80.5 82t43.5 130.5t13 175zM258 475q0 -75 6.5 -138.5t22.5 -113.5l405 578q-31 42 -76 63t-110 21q-74 0 -122 -27.5t-76 -80t-39 -129t-11 -173.5zM952 1022l-123 -174 q57 -62 87 -155t30 -218q0 -239 -107 -367t-333 -128q-145 0 -242 59l-86 -123h-108l127 178q-60 63 -89.5 158.5t-29.5 222.5q0 238 108 364t328 126q149 0 250 -64l84 121h104z" unicode="ø"/>
<glyph glyph-name="ugrave" d="M313 268q0 -83 37.5 -127.5t122.5 -44.5q56 0 116 7.5t116 23.5v743l-142 25v45h307v-870l119 -25v-45h-274l-8 76q-29 -16 -69 -33t-83.5 -31t-87.5 -23t-80 -9q-54 0 -98 15t-75.5 48t-49 85.5t-17.5 127.5v614l-120 25v45h286v-672zM559 1119l-354 268v37h213 l196 -272v-33h-55z" unicode="ù"/>
<glyph glyph-name="uacute" d="M313 268q0 -83 37.5 -127.5t122.5 -44.5q56 0 116 7.5t116 23.5v743l-142 25v45h307v-870l119 -25v-45h-274l-8 76q-29 -16 -69 -33t-83.5 -31t-87.5 -23t-80 -9q-54 0 -98 15t-75.5 48t-49 85.5t-17.5 127.5v614l-120 25v45h286v-672zM420 1119v33l196 272h213v-37 l-354 -268h-55z" unicode="ú"/>
<glyph glyph-name="ucircumflex" d="M313 268q0 -83 37.5 -127.5t122.5 -44.5q56 0 116 7.5t116 23.5v743l-142 25v45h307v-870l119 -25v-45h-274l-8 76q-29 -16 -69 -33t-83.5 -31t-87.5 -23t-80 -9q-54 0 -98 15t-75.5 48t-49 85.5t-17.5 127.5v614l-120 25v45h286v-672zM185 1119v33l218 273h213l217 -273 v-33h-56l-268 183l-268 -183h-56z" unicode="û"/>
<glyph glyph-name="udieresis" d="M313 268q0 -83 37.5 -127.5t122.5 -44.5q56 0 116 7.5t116 23.5v743l-142 25v45h307v-870l119 -25v-45h-274l-8 76q-29 -16 -69 -33t-83.5 -31t-87.5 -23t-80 -9q-54 0 -98 15t-75.5 48t-49 85.5t-17.5 127.5v614l-120 25v45h286v-672zM434 1194q0 -42 -28 -71.5 t-70 -29.5q-21 0 -39 8t-32 22t-22 32t-8 39t8 39t22 31.5t32 21.5t39 8q42 0 70 -29t28 -71zM790 1194q0 -42 -28 -71.5t-70 -29.5q-21 0 -39 8t-31.5 22t-21.5 32t-8 39q0 42 29 71t71 29t70 -29t28 -71z" unicode="ü"/>
<glyph glyph-name="yacute" d="M918 874l-367 -933q-32 -81 -65 -151t-73.5 -121.5t-92.5 -81t-121 -29.5q-26 0 -45.5 1t-36.5 3.5t-34 5.5t-38 8v203h47l33 -96q31 -23 86 -23q43 0 78 19t64.5 53.5t53.5 81.5t46 104l26 72l-358 880l-96 25v45h436v-45l-148 -27l254 -657l246 659l-147 25v45h350v-45 zM404 1119v33l196 272h213v-37l-354 -268h-55z" unicode="ý"/>
<glyph glyph-name="thorn" d="M152 1352l-138 24v45h303v-336q0 -19 -0.5 -44t-1 -51.5t-2 -53.5t-2.5 -51q21 18 49.5 32.5t61.5 25t70 16.5t75 6q88 0 158 -31t119 -92.5t74.5 -152t25.5 -208.5q0 -115 -26 -207.5t-78 -158t-130.5 -100.5t-183.5 -35q-51 0 -107.5 5.5t-107.5 16.5q1 -12 2.5 -27.5 t2 -32t1 -30.5t0.5 -23v-254l164 -24v-47h-448v47l119 24v1717zM758 481q0 102 -16 174t-47.5 117.5t-77.5 66.5t-105 21q-48 0 -102.5 -8.5t-92.5 -24.5v-751q42 -8 93 -12.5t102 -4.5q66 0 112.5 28t76.5 82t43.5 132.5t13.5 179.5z" unicode="þ"/>
<glyph glyph-name="dotlessi" horiz-adv-x="569" unicode="ı" d="M369 70l161 -25v-45h-487v45l160 25v800l-133 25v45h299v-870z"/>
<glyph glyph-name="OE" horiz-adv-x="1821" unicode="Œ" d="M739 74q29 0 69.5 2.5t72.5 7.5v1173q-32 7 -65 9t-77 2q-130 0 -216 -41t-137 -117.5t-72 -187.5t-21 -250q0 -140 21 -251t72 -188t137 -118t216 -41zM1016 0q-48 0 -87.5 -1t-72.5 -2t-61.5 -2t-55.5 -1q-153 0 -274 39t-206 121.5t-130 211t-45 306.5t43.5 306 t126.5 210t205 121t280 39q40 0 75 -1t68 -2.5t64.5 -2.5t65.5 -1h622v-321h-65l-33 217q-32 4 -77.5 7t-92.5 4.5t-89 2t-65 0.5h-137v-524h281l30 160h64v-412h-64l-30 162h-281v-547h182q62 0 117 1.5t99 3.5t75.5 5t46.5 6l58 248h65l-18 -354h-684z"/>
<glyph glyph-name="oe" horiz-adv-x="1479" unicode="œ" d="M1063 885q-51 0 -88.5 -23.5t-61.5 -66.5t-35.5 -104.5t-11.5 -137.5h367q0 76 -8 137.5t-27.5 104.5t-52 66.5t-82.5 23.5zM465 885q-62 0 -102 -27.5t-63 -80t-32.5 -129t-9.5 -173.5q0 -98 9.5 -175t32.5 -130.5t63 -82t102 -28.5t104 28.5t67.5 82t36.5 130.5t11 175 v27q-2 91 -13.5 162.5t-37.5 120.5t-67 74.5t-101 25.5zM864 473v-18q0 -73 10 -140t39.5 -118.5t83 -82t140.5 -30.5q27 0 58 2.5t61.5 6.5t60 9t53.5 11v-56q-22 -15 -53 -28.5t-68.5 -24.5t-79 -17.5t-84.5 -6.5q-114 0 -190.5 33t-124.5 98q-99 -131 -305 -131 q-193 0 -290 126.5t-97 368.5q0 238 97.5 364t297.5 126q100 0 175 -34.5t124 -101.5q48 69 121.5 102.5t169.5 33.5q71 0 134 -20t109.5 -67t73.5 -126t27 -197v-82h-543z"/>
<glyph glyph-name="Scaron" horiz-adv-x="1139" unicode="Š" d="M139 361h65l35 -181q19 -24 53 -45.5t75.5 -38t87.5 -26t90 -9.5q76 0 132 20.5t92.5 56.5t54.5 85t18 107q0 72 -30.5 119t-80 79.5t-112.5 55t-129.5 45.5t-129.5 51t-112.5 71t-80 106.5t-30.5 156.5q0 78 30 141.5t88 108t142.5 68.5t192.5 24q99 0 188 -13t164 -30 v-279h-65l-35 164q-44 32 -108 53t-144 21q-74 0 -127.5 -16t-88.5 -43.5t-52 -65t-17 -80.5q0 -65 30.5 -108t80 -73.5t113 -52.5t130 -45.5t130 -53t113 -75t80 -111t30.5 -161.5q0 -93 -28.5 -168t-86 -128.5t-144 -82t-203.5 -28.5q-62 0 -122 6t-113 16t-98 23t-78 26 v310zM331 1759l268 -183l268 183h56v-33l-217 -273h-213l-218 273v33h56z"/>
<glyph glyph-name="scaron" horiz-adv-x="797" unicode="š" d="M723 264q0 -63 -19.5 -115.5t-61.5 -90t-108.5 -58t-160.5 -20.5q-47 0 -92.5 5.5t-84.5 13t-68 15.5t-42 13v231h45l49 -131q31 -28 80 -48t115 -20q93 0 143.5 40.5t50.5 125.5q0 50 -21 82.5t-55 54.5t-77.5 36.5t-89 29.5t-89 34t-77.5 49t-55 75t-21 112 q0 64 23 114t64.5 84t99 51.5t126.5 17.5q68 0 133 -9.5t125 -21.5v-205h-47l-42 109q-26 23 -71 35t-96 12q-81 0 -123.5 -40t-42.5 -108q0 -46 21 -75.5t55.5 -50t78.5 -35.5t90 -31t90 -36.5t78.5 -52.5t55.5 -78t21 -114zM148 1425l268 -183l268 183h56v-33l-217 -273 h-213l-218 273v33h56z"/>
<glyph glyph-name="Ydieresis" horiz-adv-x="1479" unicode="Ÿ" d="M838 528v-448l213 -27v-53h-619v53l213 27v442l-471 740l-151 26v53h567v-53l-180 -26l385 -619l366 619l-170 26v53h436v-53l-147 -26zM672 1559q0 -42 -28 -71.5t-70 -29.5q-21 0 -39 8t-32 22t-22 32t-8 39t8 39t22 31.5t32 21.5t39 8q42 0 70 -29t28 -71zM1028 1559 q0 -42 -28 -71.5t-70 -29.5q-21 0 -39 8t-31.5 22t-21.5 32t-8 39q0 42 29 71t71 29t70 -29t28 -71z"/>
<glyph glyph-name="circumflex" horiz-adv-x="682" unicode="ˆ" d="M18 1119v33l218 273h213l217 -273v-33h-56l-268 183l-268 -183h-56z"/>
<glyph glyph-name="caron" horiz-adv-x="682" unicode="ˇ" d="M74 1425l268 -183l268 183h56v-33l-217 -273h-213l-218 273v33h56z"/>
<glyph glyph-name="ring" horiz-adv-x="682" unicode="˚" d="M463 1280q0 25 -9.5 47.5t-26.5 39.5t-39.5 26.5t-47.5 9.5q-26 0 -48 -9.5t-39 -26.5t-26.5 -39.5t-9.5 -47.5t9.5 -47.5t26.5 -39t39 -26.5t48 -10q25 0 47.5 10t39.5 26.5t26.5 39t9.5 47.5zM543 1280q0 -42 -16 -79t-43.5 -64.5t-64.5 -43.5t-79 -16t-79 16 t-64.5 43.5t-43.5 64.5t-16 79t16 79t43.5 64.5t64.5 43.5t79 16t79 -16t64.5 -43.5t43.5 -64.5t16 -79z"/>
<glyph glyph-name="tilde" horiz-adv-x="682" unicode="˜" d="M471 1118q-48 0 -88.5 21.5t-76.5 48t-69.5 48t-66.5 21.5q-31 0 -49 -10.5t-28.5 -28t-15 -38.5t-7.5 -42h-52q3 47 13.5 90.5t33 77.5t58.5 54t90 20q48 0 88.5 -21.5t77 -48t70 -48t65.5 -21.5q30 0 48 10.5t28.5 27.5t15.5 38t8 42h52q-3 -47 -13.5 -90t-33 -77 t-58.5 -54t-90 -20z"/>
<glyph glyph-name="Alpha" horiz-adv-x="1479" unicode="Α" d="M676 1208l-230 -651h467zM461 53v-53h-441v53l152 27l457 1272h190l475 -1272l170 -27v-53h-567v53l180 27l-133 387h-528l-135 -387z"/>
<glyph glyph-name="Beta" horiz-adv-x="1366" unicode="Β" d="M59 0v53l172 27v1182l-172 26v53h613q141 0 235 -21.5t151 -62.5t81 -99.5t24 -131.5q0 -63 -20.5 -115t-57 -91.5t-87.5 -66t-111 -39.5q87 -9 157.5 -35t119.5 -67.5t75.5 -98.5t26.5 -127q0 -87 -29.5 -159.5t-92.5 -124t-162 -80t-239 -28.5q-112 0 -223 3t-205 3 h-256zM1059 382q0 70 -22.5 121t-70 84.5t-122.5 50t-180 16.5h-240v-564q46 -2 96 -3q43 -2 95 -2.5t103 -0.5q94 0 159 21t105.5 59.5t58.5 93.5t18 124zM958 1016q0 59 -17.5 103t-56.5 73.5t-101 44t-152 14.5h-207v-507h219q93 0 154 19.5t96.5 55t50 85.5t14.5 112z "/>
<glyph glyph-name="Gamma" horiz-adv-x="1184" unicode="Γ" d="M631 0h-572v53l172 26v1182l-172 27v53h1041l18 -385h-65l-62 279q-30 6 -109 13t-204 7h-254v-1176l207 -26v-53z"/>
<glyph glyph-name="Delta" horiz-adv-x="1317" unicode="Δ" d="M606 1196l-400 -1087h806zM1240 0h-1161l-1 80l477 1272h190l495 -1272v-80z"/>
<glyph glyph-name="Epsilon" horiz-adv-x="1251" unicode="Ε" d="M59 53l172 27v1182l-172 26v53h1006v-321h-66l-32 217q-32 4 -77.5 7t-92.5 4.5t-89 2t-65 0.5h-219v-524h362l31 160h64v-412h-64l-31 162h-362v-547h264q62 0 117 1.5t99 3.5t75.5 5t46.5 6l57 248h66l-19 -354h-1071v53z"/>
<glyph glyph-name="Zeta" horiz-adv-x="1251" unicode="Ζ" d="M98 94l752 1161h-250q-131 0 -217 -6t-123 -14l-31 -211h-69v317h913v-86l-757 -1171h290q65 0 129.5 3.5t119.5 9t96 11t59 9.5l59 256h70l-27 -373h-1014v94z"/>
<glyph glyph-name="Eta" horiz-adv-x="1479" unicode="Η" d="M59 0v53l172 27v1182l-172 26v53h537v-53l-172 -26v-527h631v527l-172 26v53h536v-53l-172 -26v-1182l172 -27v-53h-536v53l172 27v565h-631v-565l172 -27v-53h-537z"/>
<glyph glyph-name="Theta" horiz-adv-x="1479" unicode="Θ" d="M558 610l-31 -142h-64v412h64l31 -140h362l31 140h64v-412h-64l-31 142h-362zM84 672q0 178 43.5 307t126.5 213t205 124t280 40q153 0 274.5 -40t206.5 -124t130 -213t45 -307t-45 -308.5t-130 -215.5t-206.5 -126.5t-274.5 -41.5t-274 41.5t-206 126.5t-130 215.5 t-45 308.5zM293 672q0 -140 21 -253t72 -193t137 -123.5t216 -43.5t216 43.5t137.5 123.5t72.5 193t21 253q0 139 -21 251t-72.5 190.5t-137.5 120.5t-216 42t-216 -42t-137 -120.5t-72 -190.5t-21 -251z"/>
<glyph glyph-name="Iota" horiz-adv-x="682" unicode="Ι" d="M438 80l172 -27v-53h-536v53l172 27v1182l-172 26v53h536v-53l-172 -26v-1182z"/>
<glyph glyph-name="Kappa" horiz-adv-x="1479" unicode="Κ" d="M1353 1341v-53l-155 -26l-458 -448l573 -734l145 -27v-53h-328l-525 678l-181 -145v-453l192 -27v-53h-557v53l172 27v1182l-172 26v53h537v-53l-172 -26v-632l642 632l-133 26v53h420z"/>
<glyph glyph-name="Lambda" horiz-adv-x="1485" unicode="Λ" d="M281 80l180 -27v-53h-441v53l145 27l464 1272h190l475 -1272l170 -27v-53h-567v53l180 27l-395 1117z"/>
<glyph glyph-name="Mu" horiz-adv-x="1821" unicode="Μ" d="M862 0h-35l-491 1153v-1073l180 -27v-53h-457v53l172 27v1182l-172 26v53h406l436 -1020l476 1020h384v-53l-172 -26v-1182l172 -27v-53h-544v53l180 27v1073z"/>
<glyph glyph-name="Nu" horiz-adv-x="1479" unicode="Ν" d="M1155 1262l-180 26v53h457v-53l-172 -26v-1262h-97l-827 1206v-1126l180 -27v-53h-457v53l172 27v1182l-172 26v53h406l690 -993v914z"/>
<glyph glyph-name="Xi" horiz-adv-x="1317" unicode="Ξ" d="M450 610l-31 -142h-64v412h64l31 -140h416l31 140h64v-412h-64l-31 142h-416zM602 1181q-23 0 -65 -0.5t-89 -2t-93 -4.5t-77 -7l-52 -157h-66l20 331h957l20 -331h-66l-52 157q-32 4 -77.5 7t-92.5 4.5t-89 2t-65 0.5h-113zM745 170q62 0 117 1.5t99 3.5t75.5 5t46.5 6 l57 188h66l-19 -374h-1058l-19 374h66l57 -188q15 -3 51 -6t85 -5t108 -3.5t121 -1.5h147z"/>
<glyph glyph-name="Omicron" horiz-adv-x="1479" unicode="Ο" d="M84 672q0 178 43.5 307t126.5 213t205 124t280 40q153 0 274.5 -40t206.5 -124t130 -213t45 -307t-45 -308.5t-130 -215.5t-206.5 -126.5t-274.5 -41.5t-274 41.5t-206 126.5t-130 215.5t-45 308.5zM293 672q0 -140 21 -253t72 -193t137 -123.5t216 -43.5t216 43.5 t137.5 123.5t72.5 193t21 253q0 139 -21 251t-72.5 190.5t-137.5 120.5t-216 42t-216 -42t-137 -120.5t-72 -190.5t-21 -251z"/>
<glyph glyph-name="Pi" horiz-adv-x="1479" unicode="Π" d="M59 0v53l172 27v1182l-172 26v53h1360v-53l-172 -26v-1182l172 -27v-53h-536v53l172 27v1171h-631v-1171l172 -27v-53h-537z"/>
<glyph glyph-name="Rho" horiz-adv-x="1139" unicode="Ρ" d="M424 526v-446l213 -27v-53h-565v53l159 27v1182l-172 26v53h506q141 0 235.5 -30.5t151.5 -84t81 -125.5t24 -155q0 -82 -23.5 -158t-79 -134t-148.5 -93t-231 -35h-151zM858 944q0 80 -17.5 138t-57 95.5t-103.5 55.5t-158 18h-98v-635h104q94 0 157.5 22.5t102 64.5 t54.5 103t16 138z"/>
<glyph glyph-name="Sigma" horiz-adv-x="1192" unicode="Σ" d="M678 748v-51l-403 -527h261q62 0 131.5 1.5t130.5 3.5t107 5t61 6l57 188h66l-19 -374h-990v74l438 572l-430 616v79h921v-321h-66l-42 217q-32 4 -75 7t-86.5 4.5t-82.5 2t-62 0.5h-266z"/>
<glyph glyph-name="Tau" horiz-adv-x="1251" unicode="Τ" d="M315 0v53l213 27v1175h-51q-131 0 -220 -6t-126 -14l-27 -209h-67v315h1180v-315h-68l-27 209q-18 4 -53.5 7t-82.5 5.5t-102.5 4t-113.5 1.5h-49v-1173l213 -27v-53h-619z"/>
<glyph glyph-name="Upsilon" horiz-adv-x="1479" unicode="Υ" d="M838 528v-448l213 -27v-53h-619v53l213 27v442l-471 740l-151 26v53h567v-53l-180 -26l385 -619l366 619l-170 26v53h436v-53l-147 -26z"/>
<glyph glyph-name="Phi" horiz-adv-x="1497" unicode="Φ" d="M261 690q0 -77 16 -147.5t54.5 -124.5t101.5 -86t158 -32h66v760h-60q-94 0 -158 -28t-103.5 -77.5t-57 -117t-17.5 -147.5zM906 300q94 0 157.5 32t102 86t54.5 124.5t16 147.5q0 80 -17.5 147.5t-57 117t-103.5 77.5t-158 28h-61v-760h67zM839 80l172 -27v-53h-526v53 l172 27v142h-113q-92 0 -163.5 19.5t-125.5 53.5t-90.5 80t-59.5 98t-33 108t-10 111q0 83 24 163t81 142.5t151.5 101t235.5 38.5h103v125l-172 26v53h526v-53l-172 -26v-125h104q141 0 235.5 -38.5t151.5 -101t81 -142.5t24 -163q0 -55 -10 -111t-33 -108t-59.5 -98 t-90.5 -80t-125.5 -53.5t-163.5 -19.5h-114v-142z"/>
<glyph glyph-name="Chi" horiz-adv-x="1479" unicode="Χ" d="M317 80l166 -27v-53h-438v53l148 27l456 606l-389 576l-151 26v53h553v-53l-170 -26l278 -414l311 414l-166 26v53h439v-53l-148 -26l-377 -502l461 -680l152 -27v-53h-553v53l170 27l-352 520z"/>
<glyph glyph-name="Psi" horiz-adv-x="1511" unicode="Ψ" d="M846 80l182 -27v-53h-546v53l182 27v426q-145 0 -246.5 25.5t-166 77.5t-94 132t-29.5 190v331l-122 26v53h314v-415q0 -171 82 -255.5t262 -85.5v677l-182 26v53h546v-53l-182 -26v-677q181 1 263.5 85t82.5 256v415h314v-53l-122 -26v-331q0 -110 -29.5 -190t-94 -132 t-167 -77.5t-247.5 -25.5v-426z"/>
<glyph glyph-name="alpha" horiz-adv-x="1073" unicode="α" d="M724 463q-13 112 -33 192t-49.5 131.5t-68.5 75.5t-89 24q-115 0 -170 -112.5t-55 -320.5q0 -184 47 -279.5t125 -95.5q57 0 100 32t77.5 85.5t62 123t53.5 144.5zM1024 45v-45h-212q-11 35 -21 72t-18.5 73t-15 69t-11.5 60h-6q-35 -66 -68 -120t-72 -92.5t-89.5 -60 t-119.5 -21.5q-73 0 -131 30t-98.5 89.5t-62 148t-21.5 205.5q0 127 28 223t79 160.5t123 97t161 32.5q64 0 114.5 -15.5t89.5 -49t68.5 -86t52.5 -125.5h6l70 250h157v-40q-18 -29 -39 -74.5t-43.5 -101t-46 -118t-46.5 -123.5q29 -126 60.5 -232.5t63.5 -190.5z"/>
<glyph glyph-name="beta" horiz-adv-x="1042" unicode="β" d="M735 1096q0 60 -11.5 109t-35 84t-60.5 54t-88 19q-56 0 -101 -19.5t-76.5 -68t-48 -130.5t-16.5 -207v-831q53 -17 117.5 -27.5t136.5 -10.5q109 0 168.5 78t59.5 243q0 75 -16.5 133.5t-53 99.5t-94.5 64t-141 26v78q71 2 120.5 22t80.5 58t45 94.5t14 131.5zM298 -436 h-166v1377q0 141 30 237t84 154.5t129.5 84t166.5 25.5q86 0 153.5 -24t114 -68t71 -108t24.5 -143q0 -75 -20 -133t-53.5 -99.5t-77 -67.5t-90.5 -36v-10q67 -14 121 -41t92 -70.5t58 -105t20 -144.5q0 -100 -27 -177t-77 -129t-123 -79t-164 -27q-89 0 -154.5 16.5 t-111.5 36.5v-469z"/>
<glyph glyph-name="gamma" horiz-adv-x="905" unicode="γ" d="M-3 895v45h218q35 -78 72 -174t73 -198t68.5 -203.5t58.5 -190.5h8l170 408q13 30 23.5 60.5t18.5 59t12.5 53.5t4.5 44q0 41 -23 65t-47 31v45h193q7 -11 9 -33t2 -43q0 -51 -23.5 -123t-63.5 -160l-248 -563q6 -36 11.5 -93.5t9 -121t6 -124.5t2.5 -104l-159 -11 l-46 29q0 40 2.5 89.5t7.5 102.5t12 106t16 101q-39 114 -82 240t-87 245t-86 222.5t-78 173.5z"/>
<glyph glyph-name="delta" horiz-adv-x="965" unicode="δ" d="M249 391q1 -76 15 -137q14 -60 44 -104t74 -68t105 -23q109 -1 168 89t59 274q0 60 -11 112t-34 98t-58 88t-82 81q-7 5 -13 10l-12 10q-49 -17 -95 -45q-45 -28 -81 -77t-58 -123t-21 -185zM251 1188q0 58 23 103q22 45 64 76t100 47t126 17q68 0 130 -10t116 -21v-205 h-47l-42 109q-53 47 -155 47q-82 0 -124 -40t-42 -108q0 -37 16 -71t47 -67q31 -35 73 -71t95 -79q65 -53 113 -105t80 -108t48 -117q16 -62 16 -135q0 -110 -26 -197t-78 -148q-51 -61 -126 -93t-172 -32q-95 0 -171 26t-129 80q-53 52 -81 130t-28 183t29 185t79 136 q51 58 117 96t142 57q-44 39 -80 76t-60 75q-26 38 -40 78t-13 86z"/>
<glyph glyph-name="epsilon" horiz-adv-x="860" unicode="ε" d="M801 70q-58 -38 -145 -64t-199 -26q-98 0 -169 21t-117.5 59.5t-69 91.5t-22.5 117q0 52 18.5 92t49.5 69t71.5 48t84.5 28v7q-39 13 -72.5 31.5t-58 44t-39 59t-14.5 77.5q0 65 33.5 111t88 74.5t123.5 41.5t140 13q65 0 137 -9.5t132 -26.5l-1 -196h-48l-57 113 q-12 7 -31.5 14.5t-42 13.5t-47.5 9.5t-49 3.5q-35 0 -72 -7.5t-67.5 -26.5t-50 -52t-19.5 -83q0 -42 11.5 -72.5t29.5 -51.5t39.5 -34t42.5 -19q21 2 55 4t68.5 3.5t63 2.5t38.5 1h32v-96h-32q-10 0 -39 1t-65.5 3t-74 4.5t-64.5 4.5q-24 -7 -49 -20.5t-45.5 -36.5 t-33.5 -56t-13 -78q0 -35 13 -70t43 -62.5t78.5 -44.5t119.5 -17q50 0 92 4.5t78 11.5t67 16.5t58 18.5v-65z"/>
<glyph glyph-name="zeta" horiz-adv-x="848" unicode="ζ" d="M802 -82q0 -53 -18 -94t-54 -74.5t-90.5 -60.5t-127.5 -51v65q33 13 61 28.5t48.5 35t31.5 43.5t11 55q0 58 -52 87t-154 49q-101 20 -171.5 51.5t-114.5 76.5t-63.5 105.5t-19.5 138.5q0 84 24.5 170t67 171.5t99 169t119.5 163t129.5 153.5t129.5 140v4l-505 -78v114 q93 6 182 13t170 14.5t151 15t124 15.5v-68q-104 -124 -195.5 -242t-159.5 -237t-107 -242t-39 -256q0 -66 20 -109.5t56 -72t86.5 -45.5t112.5 -32q123 -29 185.5 -78.5t62.5 -137.5z"/>
<glyph glyph-name="eta" horiz-adv-x="1071" unicode="η" d="M32 940h288l9 -95q36 21 78 42.5t86 38.5t87.5 28t82.5 11q58 0 106 -16t82 -50t52.5 -86t18.5 -125v-618q0 -84 4.5 -159t10.5 -135.5t13.5 -104t13.5 -62.5v-45h-175q-9 49 -15 107.5t-10 122.5t-6 131t-2 133v612q0 88 -41 133t-134 45q-31 0 -65 -6.5t-67.5 -16.5 t-64 -22t-53.5 -22v-781h-166v870l-133 25v45z"/>
<glyph glyph-name="theta" horiz-adv-x="981" unicode="θ" d="M484 59q65 0 108.5 41t69.5 118.5t37.5 189.5t13.5 254h-437q1 -142 9.5 -254t31 -189.5t62.5 -118.5t105 -41zM484 1352q-66 0 -106 -40.5t-62.5 -117.5t-30.5 -189t-9 -255h438q-2 143 -13.5 255t-37.5 189t-69.5 117.5t-109.5 40.5zM894 710q0 -177 -23.5 -313 t-73.5 -228.5t-127.5 -140.5t-185.5 -48q-101 0 -174.5 47.5t-121 140t-70 228.5t-22.5 314q0 175 22.5 310t70.5 226.5t123 138.5t180 47q202 0 302 -183.5t100 -538.5z"/>
<glyph glyph-name="iota" horiz-adv-x="551" unicode="ι" d="M344 214q0 -65 23.5 -97.5t61.5 -32.5q30 0 59 5t54 11v-65q-14 -10 -35 -20t-47 -17.5t-55 -12.5t-59 -5q-85 0 -126.5 57t-41.5 160v673l-133 25v45h299v-726z"/>
<glyph glyph-name="kappa" horiz-adv-x="1032" unicode="κ" d="M324 453l434 487h185v-45l-117 -23l-264 -278l340 -526l102 -23v-45h-256l-292 474l-132 -110v-364h-166v871l-119 24v45h285v-487z"/>
<glyph glyph-name="lambda" horiz-adv-x="993" unicode="λ" d="M549 764q-9 -25 -26 -67.5t-36.5 -89.5t-38.5 -92t-31 -74l-189 -441h-174v33l430 953l-45 138q-33 102 -75.5 163t-98.5 61q-16 0 -30.5 -3.5t-26.5 -8.5l-40 -83h-49v170q29 8 68 13.5t80 5.5q52 0 90.5 -17.5t69 -53.5t55.5 -90.5t50 -128.5l334 -1005q16 -48 49 -70 t67 -32v-45h-196z"/>
<glyph glyph-name="mu" horiz-adv-x="1098" unicode="μ" d="M895 940v-870l119 -25v-45h-274l-8 86q-29 -20 -60.5 -39t-65 -34t-69.5 -24t-72 -9q-48 0 -79 13.5t-54 33.5v-465h-166v1378h166v-672q0 -83 40.5 -127.5t125.5 -44.5q56 0 116 12.5t116 32.5v799h165z"/>
<glyph glyph-name="nu" horiz-adv-x="926" unicode="ν" d="M670 550q34 76 51.5 141t17.5 103q0 44 -24.5 68t-53.5 33v45h198q7 -12 13 -32.5t6 -46.5q0 -38 -15 -90.5t-44 -113.5l-322 -677h-71l-350 890l-71 25v45h233l276 -736z"/>
<glyph glyph-name="xi" horiz-adv-x="913" unicode="ξ" d="M584 802q18 2 40 4t43.5 3.5t39.5 2.5t28 1h32v-106h-32q-10 0 -26.5 1.5t-37 3.5t-42.5 4t-43 4q-158 -51 -235.5 -130.5t-77.5 -200.5q0 -66 24.5 -107.5t69 -68.5t107.5 -44t140 -34q124 -27 188.5 -78t64.5 -139q0 -53 -18 -94t-54 -74.5t-90.5 -60.5t-127.5 -51v65 q33 13 61 28.5t48.5 35t31.5 43.5t11 55q0 29 -13 50.5t-39 37.5t-64.5 27.5t-89.5 20.5q-109 20 -190.5 47.5t-135.5 69t-80.5 99.5t-26.5 139q0 78 35 139.5t91.5 109.5t128 83t144.5 59v11q-43 12 -90.5 36t-87 58.5t-65.5 80.5t-26 103q0 51 23.5 97.5t73 86.5t127 72.5 t184.5 56.5v3l-488 -26v97q35 0 71.5 -0.5t63.5 -0.5q26 0 68.5 0.5t103.5 1t120.5 1.5t114.5 2.5t100 3.5v-86q-37 -7 -80.5 -18.5t-87.5 -28.5t-85.5 -41t-73.5 -56.5t-51.5 -74.5t-19.5 -95q0 -50 18.5 -90t48 -69t65 -46.5t68.5 -23.5z"/>
<glyph glyph-name="omicron" d="M766 475q0 97 -13 173.5t-43.5 129t-80.5 80t-123 27.5q-74 0 -122 -27.5t-76 -80t-39 -129t-11 -173.5q0 -98 11 -175t39 -130.5t76 -82t122 -28.5q73 0 123 28.5t80.5 82t43.5 130.5t13 175zM946 475q0 -239 -107 -367t-333 -128q-212 0 -320 127t-108 368 q0 238 108 364t328 126q214 0 323 -123.5t109 -366.5z" unicode="ο"/>
<glyph glyph-name="pi" horiz-adv-x="1034" unicode="π" d="M363 856l-37 -458q-13 -162 -23.5 -257t-22.5 -141h-183v45q29 30 50 57.5t36 64t25 88t17 129.5l42 472h-134l-48 -128h-57l21 212h954v-84h-188v-642q0 -65 24 -97.5t62 -32.5q24 0 43 5t39 11v-65q-24 -20 -66 -37.5t-90 -17.5q-178 0 -178 217v659h-286z"/>
<glyph glyph-name="rho" horiz-adv-x="1022" unicode="ρ" d="M514 60q124 0 187 92.5t63 266.5q0 125 -24.5 209.5t-63.5 136t-87.5 73.5t-96.5 22q-92 0 -143.5 -67.5t-51.5 -217.5v-472q50 -20 100 -31.5t117 -11.5zM132 561q0 105 26 180.5t73 124t112 72t143 23.5q88 0 170 -32.5t145 -98t100.5 -165t37.5 -233.5 q0 -120 -34 -205.5t-90 -140t-128.5 -80.5t-148.5 -26q-77 0 -134 12.5t-107 29.5v-458h-165v997z"/>
<glyph glyph-name="sigma1" horiz-adv-x="811" unicode="ς" d="M508 892q-57 0 -103.5 -39.5t-79 -107.5t-50 -159.5t-17.5 -195.5q0 -66 22.5 -108t63.5 -69t98 -44t126 -34q111 -27 167 -77.5t56 -138.5q0 -53 -18 -94t-54 -74.5t-90.5 -60.5t-127.5 -52v66q33 13 61 28.5t48.5 35t31.5 44t11 56.5q0 57 -46.5 86t-139.5 48 q-99 20 -172.5 47.5t-122.5 69t-73 99.5t-24 139q0 130 35 241.5t94.5 193t138 127.5t165.5 46q66 0 124.5 -9.5t114.5 -24.5v-217h-55l-43 129q-23 17 -58 33t-83 16z"/>
<glyph glyph-name="sigma" horiz-adv-x="1104" unicode="σ" d="M533 59q53 0 97.5 24t76.5 72.5t49.5 120.5t17.5 168q0 82 -11 148t-29 117t-40 87.5t-44 59.5q-92 0 -164.5 -25t-123 -75t-77.5 -126t-27 -179q0 -104 22.5 -178.5t61 -122t88 -69.5t103.5 -22zM1016 1048h57l-18 -192h-291v-7q23 -20 56 -56t63 -87.5t51.5 -118.5 t21.5 -149q0 -105 -30 -190t-86.5 -144.5t-136.5 -91.5t-180 -32q-101 0 -183.5 35t-140.5 99.5t-89.5 155.5t-31.5 203q0 106 35 192t103 147t167.5 94.5t227.5 33.5h349z"/>
<glyph glyph-name="tau" horiz-adv-x="823" unicode="τ" d="M150 856l-48 -128h-57l21 212h712v-84h-294v-642q0 -71 29 -100.5t75 -29.5q24 0 55.5 5.5t52.5 10.5v-65q-12 -10 -32.5 -19.5t-45.5 -17.5t-52.5 -13t-53.5 -5q-88 0 -141 53.5t-53 163.5v659h-168z"/>
<glyph glyph-name="upsilon" horiz-adv-x="1014" unicode="υ" d="M514 -20q-101 0 -171 27t-113.5 73.5t-63 109.5t-19.5 135v545l-120 25v45h286v-658q0 -45 12 -84.5t37 -69t63 -46t90 -16.5q68 0 113.5 25.5t73 75t39 123.5t11.5 171q0 174 -25.5 282t-92.5 148l-1 73q70 -15 126 -49.5t94.5 -93t59 -143t20.5 -198.5q0 -122 -29 -215 t-83.5 -156.5t-132 -96t-174.5 -32.5z"/>
<glyph glyph-name="phi" horiz-adv-x="1182" unicode="φ" d="M923 478q0 110 -13 187.5t-36 126t-53.5 71t-65.5 22.5q-52 0 -81.5 -52.5t-29.5 -162.5v-610q68 10 120 38.5t87.5 79t53.5 124.5t18 176zM644 -436h-106v420q-110 8 -195 39t-144 89t-89.5 145t-30.5 209q0 124 24 211.5t69.5 146.5t113 92t154.5 48l-1 -73 q-54 -20 -88.5 -55.5t-54.5 -87.5t-28 -120.5t-8 -155.5q0 -100 17.5 -173t52 -122.5t87 -78.5t121.5 -40v612q0 60 12.5 114t40.5 94.5t72.5 64t109.5 23.5q157 0 243 -120.5t86 -353.5q0 -121 -33 -212.5t-93.5 -154.5t-145 -98t-186.5 -44v-419z"/>
<glyph glyph-name="chi" horiz-adv-x="909" unicode="χ" d="M747 -436q-6 4 -14 15.5t-17 28t-18.5 35.5t-17.5 39l-214 483q-33 -65 -72 -144t-78.5 -160t-76 -158t-63.5 -139h-178v33q22 41 51.5 96t63.5 117.5t70 130.5t72 135t69.5 131t62.5 120l-229 480q-11 24 -27.5 39.5t-35.5 25.5t-38 15t-36 8v45h183q12 -8 27 -32.5 t27 -53.5l188 -437q27 54 58.5 119t64.5 134t64.5 138t58.5 132h175v-39q-38 -67 -82 -148t-89 -166.5t-88.5 -170t-80.5 -158.5l266 -561q22 -47 47.5 -65t59.5 -23v-45h-153z"/>
<glyph glyph-name="psi" horiz-adv-x="1282" unicode="ψ" d="M695 60q75 4 127.5 23.5t85.5 51t47.5 73.5t14.5 92v640h286v-45l-121 -25v-550q0 -69 -21.5 -128.5t-72.5 -104.5t-135.5 -72.5t-210.5 -31.5v-419h-106v418q-130 4 -215 31.5t-135.5 72.5t-71 105t-20.5 129v550l-120 25v45h286v-640q0 -49 14.5 -91.5t47.5 -74 t85.5 -51t128.5 -23.5v1172h106v-1172z"/>
<glyph glyph-name="endash" d="M1038 528v-102h-1052v102h1052z" unicode="–"/>
<glyph glyph-name="emdash" horiz-adv-x="2048" unicode="—" d="M2062 528v-102h-2076v102h2076z"/>
<glyph glyph-name="quoteleft" horiz-adv-x="682" unicode="‘" d="M197 999q0 59 16.5 114.5t53 102.5t94.5 85t141 63v-78q-91 -29 -133.5 -70.5t-42.5 -97.5q0 -19 10 -30.5t25 -21t32.5 -18.5t32.5 -22t25 -31.5t10 -46.5q0 -54 -34 -82t-87 -28q-29 0 -54.5 10.5t-45.5 31t-31.5 50.5t-11.5 69z"/>
<glyph glyph-name="quotesinglbase" horiz-adv-x="682" unicode="‚" d="M483 49q0 -59 -16.5 -114.5t-53 -102.5t-94.5 -85t-141 -62v77q91 29 133.5 71t42.5 97q0 18 -10 30.5t-25 22t-32.5 18.5t-32.5 21.5t-25 31t-10 46.5q0 54 34 82.5t87 28.5q28 0 54 -10.5t46 -31t31.5 -51t11.5 -69.5z"/>
<glyph glyph-name="quotedblleft" horiz-adv-x="909" unicode="“" d="M98 999q0 59 16.5 114.5t53 102.5t94.5 85t141 63v-78q-91 -29 -133.5 -70.5t-42.5 -97.5q0 -19 10 -30.5t25 -21t32.5 -18.5t32.5 -22t25 -31.5t10 -46.5q0 -54 -34 -82t-86 -28q-29 0 -55 10.5t-45.5 31t-31.5 50.5t-12 69zM518 999q0 59 16.5 114.5t53 102.5t94.5 85 t141 63v-78q-91 -29 -133.5 -70.5t-42.5 -97.5q0 -19 10 -30.5t25 -21t32.5 -18.5t32.5 -22t25 -31.5t10 -46.5q0 -54 -34 -82t-86 -28q-29 0 -55 10.5t-45.5 31t-31.5 50.5t-12 69z"/>
<glyph glyph-name="quotedblright" horiz-adv-x="909" unicode="”" d="M811 1200q0 -59 -16.5 -114.5t-53 -102.5t-94.5 -85t-141 -62v77q91 29 133.5 71t42.5 97q0 18 -10 30.5t-25 22t-32.5 18.5t-32.5 21.5t-25 31t-10 46.5q0 54 34 82.5t87 28.5q28 0 54 -10.5t45.5 -31t31.5 -51t12 -69.5zM391 1200q0 -59 -16.5 -114.5t-53 -102.5 t-94.5 -85t-141 -62v77q91 29 133.5 71t42.5 97q0 18 -10 30.5t-25 22t-32.5 18.5t-32.5 21.5t-25 31t-10 46.5q0 54 34 82.5t87 28.5q28 0 54 -10.5t46 -31t31.5 -51t11.5 -69.5z"/>
<glyph glyph-name="dagger" d="M612 780l-77 -1020h-46l-73 1020l63 160l-416 -47v156l416 -43l-43 415h156l-47 -415l416 43v-156l-416 47z" unicode="†"/>
<glyph glyph-name="daggerdbl" d="M416 401l73 189l-73 190l63 160l-416 -47v156l416 -43l-43 415h156l-47 -415l416 43v-156l-416 47l67 -160l-77 -190l77 -189l-67 -159l416 47v-156l-416 43l47 -416h-156l43 416l-416 -43v156l416 -47z" unicode="‡"/>
<glyph glyph-name="ellipsis" horiz-adv-x="2048" unicode="…" d="M1831 92q0 -25 -9.5 -47t-25.5 -38.5t-38.5 -26t-47.5 -9.5q-26 0 -48 9.5t-38 26t-25.5 38.5t-9.5 47t9.5 47.5t25.5 38.5t38 25.5t48 9.5q25 0 47.5 -9.5t38.5 -25.5t25.5 -38.5t9.5 -47.5zM1145 92q0 -25 -9.5 -47t-25.5 -38.5t-38.5 -26t-47.5 -9.5q-26 0 -48 9.5 t-38 26t-25.5 38.5t-9.5 47t9.5 47.5t25.5 38.5t38 25.5t48 9.5q25 0 47.5 -9.5t38.5 -25.5t25.5 -38.5t9.5 -47.5zM459 92q0 -25 -9.5 -47t-25.5 -38.5t-38.5 -26t-47.5 -9.5q-26 0 -48 9.5t-38 26t-25.5 38.5t-9.5 47t9.5 47.5t25.5 38.5t38 25.5t48 9.5q25 0 47.5 -9.5 t38.5 -25.5t25.5 -38.5t9.5 -47.5z"/>
<glyph glyph-name="perthousand" horiz-adv-x="2048" unicode="‰" d="M266 -20h-110l948 1382h110zM1845 324q0 139 -34 205.5t-119 66.5q-49 0 -81 -16.5t-51 -50t-26.5 -84.5t-7.5 -121q0 -69 7.5 -121t26.5 -87t51 -53t81 -18q85 0 119 71t34 208zM2001 324q0 -177 -75 -265t-234 -88q-322 0 -322 353q0 178 81 262t247 84 q147 0 225 -82.5t78 -263.5zM1167 324q0 139 -34 205.5t-119 66.5q-49 0 -81 -16.5t-51 -50t-26.5 -84.5t-7.5 -121q0 -69 7.5 -121t26.5 -87t51 -53t81 -18q85 0 119 71t34 208zM1323 324q0 -177 -75 -265t-234 -88q-322 0 -322 353q0 178 81 262t247 84q148 0 225.5 -82.5 t77.5 -263.5zM520 1016q0 139 -34 205.5t-119 66.5q-49 0 -81 -16.5t-51 -50t-26.5 -84.5t-7.5 -121q0 -68 7.5 -120.5t26.5 -87.5t51 -53t81 -18q85 0 119 71t34 208zM676 1016q0 -177 -75 -264.5t-234 -87.5q-322 0 -322 352q0 178 81 262t247 84q147 0 225 -82.5 t78 -263.5z"/>
<glyph glyph-name="minute" horiz-adv-x="448" unicode="′" d="M150 1341h197l-172 -481h-74z"/>
<glyph glyph-name="second" horiz-adv-x="853" unicode="″" d="M160 1341h197l-172 -481h-74zM545 1341h197l-172 -481h-74z"/>
<glyph glyph-name="guilsinglleft" horiz-adv-x="682" unicode="‹" d="M133 496l334 356h82l-228 -389l228 -389h-82l-334 356v66z"/>
<glyph glyph-name="guilsinglright" horiz-adv-x="682" unicode="›" d="M549 430l-334 -356h-82l228 389l-228 389h82l334 -356v-66z"/>
<glyph glyph-name="uni203E" horiz-adv-x="682" unicode="‾" d="M743 1540h-803v80h803v-80z"/>
<glyph glyph-name="fraction" horiz-adv-x="342" unicode="⁄" d="M-260 0h-102l964 1341h100z"/>
<glyph glyph-name="fraction" horiz-adv-x="342" unicode="∕" d="M-260 0h-102l964 1341h100z"/>
<glyph glyph-name="Euro" d="M143 829q31 269 159 398t339 129q50 0 93 -4t83 -10t77 -16t75 -21l4 -252h-68l-20 133q-45 42 -104 66t-119 24q-66 0 -119 -24t-93 -76q-40 -54 -64 -139q-26 -85 -36 -208h350v-81h-354q-2 -22 -2 -45v-46v-38t2 -35h354v-82h-350q20 -226 100 -336t207 -109 q41 0 78 8t68 22q31 15 56 33t42 38l25 159h67l-4 -274q-31 -11 -71 -23t-85 -21t-93 -14t-99 -5q-105 0 -191 35t-148 102q-64 67 -104 164t-55 221h-112v82h106q-2 17 -2 35v36v47t2 46h-106v81h112z" unicode="€"/>
<glyph glyph-name="trademark" horiz-adv-x="2007" unicode="™" d="M1380 537h-28l-285 669v-610l109 -16v-43h-285v43l104 16v688l-104 16v41h270l244 -583l264 583h254v-41l-102 -16v-688l102 -16v-43h-348v43l108 16v608zM254 537v43l127 16v684h-31q-78 0 -126.5 -3.5t-69.5 -8.5l-17 -125h-41v198h709v-198h-41l-16 125q-22 5 -76 7.5 t-125 2.5h-29v-682l127 -16v-43h-391z"/>
<glyph glyph-name="arrowleft" horiz-adv-x="2048" unicode="←" d="M641 297q29 -34 58.5 -83t60.5 -114h-72q-58 68 -123 124t-147 98v36q82 42 147 98t123 124h72q-31 -65 -60.5 -114t-58.5 -83h989v-86h-989z"/>
<glyph glyph-name="arrowup" d="M469 928q-34 -29 -83 -58.5t-114 -60.5v72q68 58 124 123t98 147h36q42 -82 98 -147t124 -123v-72q-65 31 -114 60.5t-83 58.5v-989h-86v989z" unicode="↑"/>
<glyph glyph-name="arrowright" horiz-adv-x="2048" unicode="→" d="M1407 383q-29 34 -58.5 83t-60.5 114h72q58 -68 123 -124t147 -98v-36q-82 -42 -147 -98t-123 -124h-72q31 65 60.5 114t58.5 83h-989v86h989z"/>
<glyph glyph-name="arrowdown" d="M555 162q34 29 83 58.5t114 60.5v-72q-68 -58 -124 -123t-98 -147h-36q-42 82 -98 147t-124 123v72q65 -31 114 -60.5t83 -58.5v989h86v-989z" unicode="↓"/>
<glyph glyph-name="partialdiff" horiz-adv-x="1012" unicode="∂" d="M813 643q-9 45 -29 83.5t-48.5 67.5t-64 45.5t-75.5 16.5q-59 0 -107 -26.5t-86 -71t-65 -102t-45 -118.5t-26.5 -121.5t-8.5 -111.5q0 -55 11.5 -103t35.5 -83t60.5 -55.5t85.5 -20.5t92.5 24t81 65.5t68 99t54.5 124t40.5 140t25.5 147.5zM928 938q0 -46 -3.5 -98 t-9.5 -105t-14.5 -106t-19.5 -101q-29 -128 -75.5 -231t-108.5 -175t-139.5 -110.5t-169.5 -38.5q-89 0 -150.5 30t-99 79.5t-54 114.5t-16.5 135q0 56 12 123t37.5 134.5t65 131t94.5 112t126.5 78t160.5 29.5q93 0 164.5 -49.5t105.5 -132.5h4q0 25 2 53.5t2 62.5 q0 111 -18.5 198.5t-55 147.5t-91 91.5t-126.5 31.5q-62 0 -120.5 -25t-107.5 -59l-36 33l105 150q9 4 24.5 10t36 11.5t45 9.5t51.5 4q107 0 179.5 -44t117 -118.5t63.5 -172t19 -204.5z"/>
<glyph glyph-name="product" horiz-adv-x="1686" unicode="∏" d="M114 -436v53l172 27v1618l-172 26v53h1460v-53l-172 -26v-1618l172 -27v-53h-536v53l172 27v1607h-731v-1607l172 -27v-53h-537z"/>
<glyph glyph-name="summation" horiz-adv-x="1460" unicode="∑" d="M831 587v-39l-557 -814h445q41 0 89.5 0.5t98 1.5t97 3t86 3.5t66.5 3.5t38 4l57 228h66l-19 -414h-1206v74l578 843l-533 781v79h1105v-351h-66l-42 247q-32 4 -82 6.5t-102.5 4t-98.5 1.5h-69l-404 2z"/>
<glyph glyph-name="minus" horiz-adv-x="1155" unicode="−" d="M1055 731v-102h-953v102h953z"/>
<glyph glyph-name="radical" horiz-adv-x="1124" unicode="√" d="M623 -14h-107l-297 829h-168v80h271l258 -737l452 1462h90z"/>
<glyph glyph-name="infinity" horiz-adv-x="1460" unicode="∞" d="M645 596q-57 140 -123.5 211.5t-156.5 71.5q-48 0 -87.5 -22.5t-67 -61t-42.5 -90.5t-15 -111q0 -57 13.5 -108t40.5 -89.5t67.5 -61t94.5 -22.5q81 0 148 70.5t128 212.5zM1088 872q-80 0 -146.5 -70t-130.5 -212q60 -141 126.5 -212t152.5 -71q50 0 90.5 22.5t68.5 61 t43 90.5t15 111t-16 110.5t-44.5 89t-69 59t-89.5 21.5zM1382 590q0 -78 -22.5 -148.5t-64 -123.5t-99.5 -84t-129 -31q-99 0 -187.5 62t-163.5 202q-64 -127 -146 -192.5t-175 -65.5q-70 0 -128.5 27.5t-100.5 77.5t-65.5 121.5t-23.5 160.5q0 81 22.5 152t64 123t100.5 82 t131 30q47 0 94 -14t92 -44.5t86 -80t76 -119.5q64 125 142.5 188.5t183.5 63.5q70 0 127.5 -27.5t98.5 -78t64 -122t23 -159.5z"/>
<glyph glyph-name="intersection" horiz-adv-x="1479" unicode="∩" d="M282 -2v512q0 116 34 212t95 165t144.5 107t181.5 38q99 0 183.5 -38t146 -107t96.5 -165t35 -212v-512h-103v514q0 98 -26.5 175.5t-74 131.5t-112.5 82.5t-143 28.5t-143 -28t-112 -82t-73 -132t-26 -178v-512h-103z"/>
<glyph glyph-name="approxequal" horiz-adv-x="1124" unicode="≈" d="M780 301q-46 0 -88 18t-81.5 44.5t-76 58t-71.5 58t-69 44.5t-68 18q-41 0 -70 -14.5t-49 -44.5t-31.5 -75.5t-17.5 -106.5h-101q6 61 19.5 122.5t42.5 111t78.5 80t128.5 30.5q48 0 91 -18t82.5 -45t76.5 -58t71.5 -58t67.5 -45t65 -18q40 0 68 16t47.5 47t31 76 t19.5 103h103q-8 -61 -22.5 -122t-44 -110.5t-78 -80.5t-124.5 -31zM780 711q-46 0 -88 18t-81.5 44.5t-76 58t-71.5 58t-69 44.5t-68 18q-41 0 -70 -14.5t-49 -44.5t-31.5 -75.5t-17.5 -106.5h-101q6 61 19.5 122.5t42.5 111t78.5 80t128.5 30.5q48 0 91 -18t82.5 -45 t76.5 -58t71.5 -58t67.5 -45t65 -18q40 0 68 16t47.5 47t31 76t19.5 103h103q-8 -61 -22.5 -122t-44 -110.5t-78 -80.5t-124.5 -31z"/>
<glyph glyph-name="notequal" horiz-adv-x="1124" unicode="≠" d="M802 936h236v-102h-307l-215 -308h522v-102h-594l-198 -284h-123l198 284h-236v102h307l215 308h-522v102h593l198 284h125z"/>
<glyph glyph-name="equivalence" horiz-adv-x="1155" unicode="≡" d="M1055 731v-102h-953v102h953zM1055 1026v-102h-953v102h953zM1055 436v-102h-953v102h953z"/>
<glyph glyph-name="lessequal" horiz-adv-x="1124" unicode="≤" d="M1038 102v-102h-953v102h953zM85 655v50l953 469v-103l-809 -391l809 -391v-103z"/>
<glyph glyph-name="greaterequal" horiz-adv-x="1124" unicode="≥" d="M1037 102v-102h-953v102h953zM86 186v103l809 391l-809 391v103l953 -469v-50z"/>
<glyph glyph-name="lozenge" horiz-adv-x="1012" unicode="◊" d="M508 1286l-354 -565l354 -574l352 574zM547 0h-82l-457 719l457 721h82l459 -719z"/>
<glyph glyph-name="spade" horiz-adv-x="1088" unicode="♠" d="M544 1231q14 -54 34 -101.5t46 -91.5q28 -43 75.5 -95.5t116.5 -115.5q141 -126 176 -192q37 -67 37 -137q0 -95 -63 -158q-66 -66 -154 -66q-157 0 -256 191q3 -147 39 -234q38 -86 119.5 -135.5t218.5 -58.5l8 -37h-792l6 37q125 0 211 49q43 25 76 59.5t55 80 t31.5 102.5t9.5 123v14q-45 -96 -111 -143.5t-149 -47.5q-90 0 -156 66q-63 63 -63 154q0 74 30 133q23 42 62 84.5t96 89.5q69 59 124 115.5t93 113.5q56 83 80 201z"/>
<glyph glyph-name="club" horiz-adv-x="1344" unicode="♣" d="M1094 0h-842l8 35q84 17 138 33.5t81 33.5q41 25 73 62.5t58 87.5q52 100 52 209q0 8 -1 19t-1 28q-58 -121 -148 -180q-43 -28 -87 -43t-89 -15q-59 0 -107.5 21t-89.5 59q-79 83 -79 199q0 115 73 194q73 80 166 80q31 0 71 -12.5t91 -38.5q-20 34 -33.5 60t-21.5 45 q-5 17 -8 36t-3 39q0 115 78 193q40 38 88.5 58t108.5 20q116 0 196 -80q80 -78 80 -187q0 -86 -69 -184q84 40 100 43q14 5 29 6.5t32 1.5q51 0 94 -18.5t79 -59.5q73 -76 73 -192q0 -118 -80 -201q-80 -80 -192 -80q-62 0 -128 30t-116 81q-17 19 -38.5 49.5t-47.5 75.5 q3 -81 14.5 -143.5t34.5 -108.5q22 -45 55.5 -83t79.5 -69q61 -39 220 -69z"/>
<glyph glyph-name="heart" horiz-adv-x="1216" unicode="♥" d="M610 -23q-14 56 -35 106.5t-47 98.5q-28 50 -79.5 123.5t-127.5 175.5q-56 76 -90.5 122.5t-48.5 68.5q-43 65 -61.5 118t-18.5 109q0 103 68 174q70 70 172 70q98 0 176 -72q28 -28 51.5 -68t40.5 -94q34 119 105 177.5t159 58.5q50 0 92.5 -18t77.5 -52q70 -70 70 -164 q0 -86 -41 -174q-20 -45 -59 -104.5t-99 -134.5q-75 -96 -129 -172t-86 -131q-31 -54 -53 -109t-37 -109z"/>
<glyph glyph-name="diamond" horiz-adv-x="1045" unicode="♦" d="M519 1223q45 -78 101.5 -160.5t125.5 -175.5t127 -163.5t105 -123.5q-39 -40 -99 -115t-143 -186q-69 -93 -122 -172.5t-93 -151.5q-13 25 -30.5 54t-39.5 61q-38 57 -87 124.5t-109 147.5q-14 20 -61 79.5t-128 158.5q50 59 114 139t144 187q59 77 107 151t88 146z"/>
<glyph glyph-name="foursuperior" d="M365 1186h-2l-277 -389h279v389zM502 694v-159h-137v159h-361v97l391 550h107v-544h101v-103h-101z" horiz-adv-x="614"/>
</font>
</defs>
</svg>
